<!-- icon666.com - MILLIONS vector ICONS FREE --><svg id="Layer_1" enable-background="new 0 0 479.909 479.909"
  viewBox="0 0 479.909 479.909" xmlns="http://www.w3.org/2000/svg">
  <g fill="#42434d">
    <path d="m364.133 418.608c9.19 18.18-20.58 35.12-31.61 18.25l-73.79-112.84c-17.25-26.39 30.4-53.77 44.58-25.73z">
    </path>
    <path d="m147.353 436.858c-11.03 16.87-40.8-.07-31.61-18.25l60.83-120.32c14.18-28.04 61.83-.66 44.57 25.73z"></path>
    <path d="m322.143 265.708c-31.49 1.75-31.38-53.21 0-51.46l134.61 7.48c20.34 1.13 20.13 35.38 0 36.5z"></path>
    <path d="m157.763 214.248c31.38-1.75 31.49 53.21 0 51.46l-134.61-7.48c-20.13-1.12-20.34-35.37 0-36.5z"></path>
    <path d="m303.333 181.668c-14.23 28.14-61.77.57-44.57-25.73l73.79-112.84c11.14-17.05 40.7.26 31.61 18.25z"></path>
    <path d="m221.123 155.938c17.2 26.3-30.34 53.87-44.57 25.73l-60.83-120.32c-9.09-17.99 20.46-35.3 31.61-18.25z">
    </path>
  </g>
  <path
    d="m397.366 239.956c0 64.74-39.439 122.034-98.21 145.88-37.82 15.36-80.592 15.356-118.42-.02-57.74-23.472-98.15-80.076-98.15-145.86 0-86.917 70.47-157.39 157.39-157.39 86.907 0 157.39 70.463 157.39 157.39z"
    fill="#585966"></path>
  <path
    d="m335.896 115.166c-166.151-41.025-266.815 175.196-133.84 277.58-71.886-17.776-123.031-84.198-119.27-160.79 4.167-83.165 72.919-149.39 157.19-149.39 34.854 0 68.35 11.391 95.92 32.6z"
    fill="#6e6f80"></path>
  <path d="m214.246 322.146c-1.75-31.38 53.21-31.49 51.46 0l-7.48 134.61c-1.12 20.13-35.37 20.34-36.5 0z"
    fill="#6e6f80"></path>
  <path d="m436.856 332.556c16.87 11.03-.07 40.8-18.25 31.61l-120.32-60.83c-28.04-14.18-.66-61.83 25.73-44.57z"
    fill="#6e6f80"></path>
  <path d="m155.936 258.786c26.3-17.2 53.87 30.34 25.73 44.57l-120.32 60.83c-17.99 9.09-35.3-20.46-18.25-31.61z"
    fill="#6e6f80"></path>
  <path
    d="m186.986 265.926c-4.399 1.313 4.344-3.912-118.89 76.65-7.619 4.981-8.38 13.63-5.28 20.87l-1.47.74c-17.99 9.09-35.3-20.46-18.25-31.61l112.84-73.79c11.82-7.73 23.9-2.38 31.05 7.14z"
    fill="#838599"></path>
  <path d="m418.606 115.776c18.18-9.19 35.12 20.58 18.25 31.61l-112.84 73.79c-26.39 17.25-53.77-30.4-25.73-44.58z"
    fill="#6e6f80"></path>
  <path
    d="m442.016 126.266c-3.218.599 6.836-4.187-124.73 62.33-14.931 7.549-14.15 24.59-6.17 36.26-21.02-1.25-36.24-36.42-12.83-48.26l120.32-60.82c9.96-5.03 19.55 1.62 23.41 10.49z"
    fill="#838599"></path>
  <path d="m181.666 176.576c28.14 14.23.57 61.77-25.73 44.57l-112.84-73.79c-17.05-11.14.26-40.7 18.25-31.61z"
    fill="#6e6f80"></path>
  <path
    d="m193.066 200.236-113.72-57.49c-10.59-5.35-20.95 2.7-24.2 12.49l-12.05-7.88c-17.05-11.14.26-40.7 18.25-31.61l120.32 60.83c10.1 5.11 13.02 14.5 11.4 23.66z"
    fill="#838599"></path>
  <path d="m265.706 157.766c1.75 31.49-53.21 31.38-51.46 0l7.48-134.61c1.13-20.34 35.38-20.13 36.5 0z" fill="#6e6f80">
  </path>
  <path
    d="m258.026 21.316c-7.36 1.26-13.82 6.2-14.3 14.84-8.081 145.44-8.72 138.493-5.59 145.13-12.66-.7-24.72-8.55-23.89-23.52l7.48-134.61c1.09-19.7 33.25-20.12 36.3-1.84z"
    fill="#838599"></path>
  <g>
    <path
      d="m457.2 213.739-54.419-3.024c-1.625-9.113-4.018-18.063-7.168-26.802l45.623-29.833c25.317-16.555.897-59.163-26.238-45.447l-48.677 24.608c-6.032-7.147-12.589-13.713-19.602-19.66l24.582-48.624c13.647-26.995-28.809-51.687-45.447-26.239l-15.344 23.464c-2.418 3.698-1.381 8.656 2.317 11.074 3.699 2.419 8.657 1.381 11.073-2.317l15.344-23.464c5.603-8.568 22.338 1.243 17.777 10.264l-23.224 45.938c-19.227-13.279-41.143-22.345-64.557-26.514l-3.027-54.452c-1.677-30.202-50.791-30.357-52.477 0l-3.027 54.452c-9.211 1.64-18.189 4.038-26.865 7.153l-29.816-45.597c-16.629-25.426-59.1-.767-45.447 26.239l24.602 48.665c-6.99 5.932-13.527 12.479-19.541 19.603l-48.69-24.615c-26.993-13.644-51.689 28.804-26.239 45.447l45.63 29.838c-8.094 22.444-11.059 45.893-9.234 69.21l-51.517-2.863c-10.098-.561-10.212-19.959.001-20.527l26.053-1.448c4.411-.245 7.788-4.02 7.543-8.432-.245-4.411-4.018-7.793-8.432-7.544l-26.053 1.448c-30.339 1.686-30.211 50.799 0 52.478l54.472 3.028c1.627 9.11 4.021 18.056 7.173 26.792l-45.636 29.843c-25.291 16.538-.848 59.139 26.239 45.447l48.704-24.622c6.02 7.129 12.563 13.68 19.559 19.614l-24.611 48.681c-13.709 27.118 28.888 51.565 45.447 26.239l29.835-45.626c8.662 3.107 17.626 5.5 26.822 7.138l3.027 54.452c1.685 30.34 50.799 30.212 52.477 0l3.027-54.452c9.177-1.634 18.122-4.021 26.767-7.118l29.822 45.606c16.557 25.319 59.164.894 45.447-26.239l-14.008-27.708c-1.993-3.944-6.806-5.522-10.749-3.53-3.943 1.994-5.523 6.806-3.53 10.749l14.008 27.708c4.618 9.134-12.244 18.724-17.777 10.264l-28.179-43.094c21.055-10.004 39.872-24.466 55.266-42.7l48.69 24.615c27.091 13.697 51.511-28.921 26.238-45.448l-45.629-29.837c3.149-8.731 5.541-17.672 7.167-26.776l54.426-3.025c30.202-1.681 30.36-50.793.002-52.48zm-34.984-90.827c9.134-4.619 18.765 12.217 10.264 17.777l-112.84 73.788c-16.978 11.099-35.92-21.55-17.746-30.736zm-171.977-99.315 7.482 134.617c1.136 20.463-36.611 20.149-35.492 0 2.27-40.885-4.154 74.577 7.482-134.617.57-10.221 19.967-10.091 20.528 0zm-127.376 34.141c-4.564-9.027 12.179-18.824 17.777-10.264l28.179 43.093c-7.909 3.764-15.5 8.158-22.715 13.144zm-65.127 65.151 120.322 60.829c18.287 9.243-.859 41.779-17.746 30.736l-112.841-73.789c-8.572-5.605 1.197-22.363 10.265-17.776zm0 234.158c-9.027 4.566-18.824-12.179-10.265-17.776 116.387-76.112 85.372-55.828 112.841-73.789 16.869-11.029 36.024 21.497 17.746 30.736-35.27 17.829 66.7-33.76-120.322 60.829zm82.927 75.435c-5.536 8.467-22.392-1.136-17.777-10.264l23.252-45.993c7.216 4.985 14.81 9.377 22.72 13.139zm89.049 23.833-7.482-134.617c-1.117-20.121 36.629-20.477 35.492 0l-7.482 134.617c-.562 10.1-19.96 10.211-20.528 0zm192.504-99.291-120.322-60.829c-17.952-9.075.557-41.977 17.746-30.736l112.84 73.788c8.466 5.536-1.136 22.391-10.264 17.777zm-93.82-104.956c-35.57-23.264-71.931 39.088-33.721 58.406l56.913 28.772c-21.433 24.134-50.184 40.659-81.433 47.042l3.541-63.703c2.358-42.42-69.818-42.744-67.441 0l3.541 63.703c-30.463-6.223-59.192-22.006-81.419-47.026l56.9-28.766c37.915-19.172 2.11-81.835-33.721-58.407l-53.401 34.92c-4.187-12.61-6.649-25.686-7.35-39.055h30.429c4.418 0 8-3.582 8-8s-3.582-8-8-8h-30.429c.7-13.362 3.161-26.431 7.343-39.036l53.408 34.924c35.787 23.406 71.744-39.183 33.721-58.406l-56.914-28.772c21.208-23.882 49.382-40.496 81.433-47.043l-3.541 63.704c-2.368 42.593 69.816 42.707 67.441 0l-3.541-63.703c30.478 6.226 59.219 22.02 81.447 47.058l-56.928 28.78c-37.869 19.146-2.149 81.866 33.721 58.406l53.414-34.928c4.179 12.598 6.637 25.661 7.337 39.017h-30.429c-4.418 0-8 3.582-8 8s3.582 8 8 8h30.429c-.7 13.362-3.161 26.432-7.344 39.036zm127.916-1.827-51.471 2.861c.694-8.856.695-17.385.004-26.248l51.467 2.86c10.219.568 10.092 19.967 0 20.527z">
    </path>
    <path d="m263.169 231.956h-46.387c-4.418 0-8 3.582-8 8s3.582 8 8 8h46.387c4.418 0 8-3.582 8-8s-3.582-8-8-8z"></path>
  </g>
</svg>