<svg id="Слой_1" data-name="Слой 1" xmlns="http://www.w3.org/2000/svg" viewBox="0 0 190.52 766">
  <defs>
    <style>
      .cls-1 {
        fill: #c6c6c6;
      }

      .cls-1,
      .cls-2 {
        stroke: #9d9d9c;
        stroke-miterlimit: 10;
        stroke-width: 2px;
      }

      .cls-2,
      .cls-3 {
        fill: #b2b2b2;
      }

      .cls-4 {
        opacity: 0.6;
      }

      .cls-5 {
        fill: #1d1d1c;
      }
    </style>
  </defs>
  <path class="cls-1" d="M362.64,742.94h-130v-644h130v644Z" transform="translate(-202.13 -37.94)" />
  <path class="cls-1"
    d="M375.65,98.94h-156a3,3,0,0,1-3-3c-.4-1.73-.79-3.47-1.19-5.2.4-1.58.79-3.17,1.19-4.75v-.93c.65-2.34,1.31-4.68,2-7-.65-2-1.31-4.08-2-6.11a3,3,0,0,1,3-3h156a3,3,0,0,1,3,3,47.77,47.77,0,0,0-1.24,7,49.74,49.74,0,0,0,1.24,17C378.64,96.15,378.62,97.21,375.65,98.94Z"
    transform="translate(-202.13 -37.94)" />
  <path class="cls-1"
    d="M388.92,68.94H206.36a2.56,2.56,0,0,1-2.57-2.56,19.71,19.71,0,0,0,0-8.65,15.88,15.88,0,0,1-.66-4.13,17.65,17.65,0,0,1,.66-4.4,19.57,19.57,0,0,0,0-7.69,2.63,2.63,0,0,1,.75-1.81,2.56,2.56,0,0,1,1.82-.76H388.92a5,5,0,0,1,2.57,2.57c.73,2.07-1.06,3.37-2,6.22-2,6.42,2,15.88,2,18.65C391.49,66.4,391.49,66.41,388.92,68.94Z"
    transform="translate(-202.13 -37.94)" />
  <path class="cls-1"
    d="M374.09,772.94H221.18a8.23,8.23,0,0,1-3.21-1.33,8.42,8.42,0,0,1-2.84-3.34,34.32,34.32,0,0,1,4-18.94,3.81,3.81,0,0,1-1.16-5.05,3.86,3.86,0,0,1,3.21-1.34H374.09c1.12,2.79,2.26,3.61,3.13,3.82a2.13,2.13,0,0,1,1.42.73c.29.44.12.94.17,1.49a13.73,13.73,0,0,1-.17,3.11c-1,6.62-2.91,6.81-2.24,9.31.51,1.91,2.28,4.25,2.24,7C378.64,768.44,378.64,768.46,374.09,772.94Z"
    transform="translate(-202.13 -37.94)" />
  <path class="cls-1"
    d="M386.72,802.94H208.56a4.74,4.74,0,0,1-3.37-1.39,4.94,4.94,0,0,1-1.29-2.34,5.62,5.62,0,0,1-.11-1c0-1.52,0-2.28,2.21-4.9,1.23-1.47,1.69-5.23-2.21-15.55,1,.2,2,.28,2.28-.19.45-.72-1.26-2.06-.88-3.19.2-.6,1-1.18,3.37-1.4H386.72c1.79.86,4.12,2.35,4.77,4.78,1,3.83-3.43,5.46-2.79,10.08.4,2.89,2.82,7.21,2.79,10.37C391.49,798.21,391.48,798.23,386.72,802.94Z"
    transform="translate(-202.13 -37.94)" />
  <rect class="cls-2" x="31.27" y="80.06" width="14.4" height="606" rx="6.9" />
  <rect class="cls-2" x="58.36" y="80.06" width="14.4" height="606" rx="6.9" />
  <rect class="cls-2" x="87.96" y="80.06" width="14.4" height="606" rx="6.9" />
  <rect class="cls-2" x="117.55" y="80.06" width="14.4" height="606" rx="6.9" />
  <rect class="cls-2" x="146.1" y="80.06" width="14.4" height="606" rx="6.9" />
  <path class="cls-3"
    d="M298.18,331.59c-.31-1.56-.13,2.55-.11,2.49a6.16,6.16,0,0,0,.14-1.05c.1-.57.21-1.13.3-1.69a22.39,22.39,0,0,0,.31-3.17,50.34,50.34,0,0,0-.15-7.57,21.37,21.37,0,0,0-2-6.56,11,11,0,0,1-.58-1.43,3.7,3.7,0,0,1-.14-.55l0,3.64a5.44,5.44,0,0,0,.19-.57,2.17,2.17,0,0,1,2-1.41s0-5,0-5c-3,0-2.27,4.55-2.26,6.34a8.32,8.32,0,0,0,.59,3.45,36.54,36.54,0,0,1,1.6,3.89,20.5,20.5,0,0,1,.76,4.18c.18,2,.19-4.46,0-2.41,0,.52-.09,1-.16,1.54-.11.7-.25,1.4-.37,2.11a24.76,24.76,0,0,0-.26,3.94,25.14,25.14,0,0,0,.19,4.83c-.31-1.6.31-3.39,0-5Z"
    transform="translate(-202.13 -37.94)" />
  <path class="cls-1" d="M391.49,59.07" transform="translate(-202.13 -37.94)" />
  <g class="cls-4">
    <path class="cls-5"
      d="M233.36,166.4c5.62-.2,7.48,6.5,8.08,10.89.36,2.69.64,5.54,2,8a10.5,10.5,0,0,0,5.22,4.41c3.73,1.64,9,2.27,11.17,6.16,1.5,2.67.74,5.85,1.21,8.75a10,10,0,0,0,2.75,5.28c2.89,3.06,6.8,4.86,10,7.51a12.68,12.68,0,0,1,3.6,4.34,12.85,12.85,0,0,1,.73,2.63c-.61-2.62,0-3.13,0-1.72,0,.44,0,.87,0,1.31q0,1.72,0,3.45a9.62,9.62,0,0,0,.52,3.73,8.17,8.17,0,0,0,2.82,3.16,35.45,35.45,0,0,1,6.44,6c4,5,6.89,10.94,10,16.53L322,300.23a4.2,4.2,0,0,1,0-.73c0-.59,0-1.18,0-1.77s0-1.18,0-1.77c0-.18.07-.58,0-.73l-21.48-38.66c-3.28-5.9-6.35-12-10-17.66a35.87,35.87,0,0,0-5.68-7c-2-1.82-4.94-3.15-6.13-5.66-.62-1.31-.43-4.08-.56.47,0-.67,0-1.33,0-2,0-1.74.09-3.5-.07-5.23a9.24,9.24,0,0,0-2.42-5.36c-2.72-3.05-6.54-4.86-9.72-7.34a14.69,14.69,0,0,1-3.93-4.27c-1.38-2.48-1.1-5.21-1.28-7.94a7.71,7.71,0,0,0-3-6.07,21.69,21.69,0,0,0-5.94-2.69c-2.36-.83-4.85-1.68-6.71-3.42-2.29-2.15-3-5.28-3.41-8.26s-.68-5.93-2.16-8.61c-1.29-2.34-3.36-4.28-6.18-4.18-.09,0,0,5,0,5Z"
      transform="translate(-202.13 -37.94)" />
  </g>
  <g class="cls-4">
    <path class="cls-5"
      d="M361.38,650.8c.22-3.22.46-6.93-1.05-9.89a19.56,19.56,0,0,0-6.66-6.9c-2.49-1.69-5.15-3.16-7.48-5.09a16.79,16.79,0,0,1-3-3.16,19,19,0,0,1-2.22-4.79,18.86,18.86,0,0,0-13.06-12.08,10.17,10.17,0,0,0-9.19,2.05c-2,1.58-3.79,3.75-6.28,4.51-3.4,1-6.05-1.53-7.5-4.34a29.08,29.08,0,0,1-2.83-12.31c0-.32,0,.42,0,.26,0,.49,0,1,0,1.49,0,1,0,2.05,0,3.08A32.41,32.41,0,0,0,304,614c.91,2.47,2.35,5.28,5,6.31,5.31,2.11,8.82-5.09,13.31-6.45,5.85-1.78,12.5,2.38,15.91,6.89a18.12,18.12,0,0,1,2.16,3.68c.69,1.55,1.08,3.22,1.85,4.74a17.52,17.52,0,0,0,5.78,6.08c2.7,1.92,5.65,3.47,8.18,5.62a18.54,18.54,0,0,1,3.41,3.72,11.74,11.74,0,0,1,1.21,2.3,7.44,7.44,0,0,1,.34,1c.06.23.12.47.16.71q.29,2.05.08-2.69c-.07,1,0,2.06,0,3.08,0,.49,0,1,0,1.49,0,.05,0,.49,0,.25Z"
      transform="translate(-202.13 -37.94)" />
  </g>
  <g class="cls-4">
    <path class="cls-5"
      d="M231,541.23c3.62-1.14,5.2-4.94,6.09-8.33,1-3.88,1.81-7.84,5.3-10.29,1.62-1.13,3.45-1.91,5.1-3a12.83,12.83,0,0,0,3.68-3.66c1.84-2.78,2.68-6.1,3.47-9.3,1-3.85,1.85-7.8,4-11.18.29-.44,0-2,0-2.5v-1.77a2.26,2.26,0,0,1,0-.73c-3.82,5.88-3.52,13.31-6.85,19.38a13,13,0,0,1-3.14,3.87,36.24,36.24,0,0,1-5,3.07,11.23,11.23,0,0,0-4.14,3.84,20.34,20.34,0,0,0-2,5.53c-1,3.88-2.22,8.7-6.53,10.06a14.66,14.66,0,0,0,0,2.5,19.29,19.29,0,0,1,0,2.5Z"
      transform="translate(-202.13 -37.94)" />
  </g>
  <g class="cls-4">
    <path class="cls-5"
      d="M362.15,415.32a10.42,10.42,0,0,1-10.28-3.5c-1.16-1.44-1.77-3.37-3.3-4.49s-3.43-1.09-5.19-1.19-3.67-.25-5-1.61-1.79-3.17-3.16-4.46a9.57,9.57,0,0,0-10.1-1.88,12.91,12.91,0,0,0,0,2.5,14,14,0,0,1,0,2.5,9.57,9.57,0,0,1,10.1,1.88c1.37,1.29,1.89,3.14,3.16,4.46s3.21,1.52,5,1.61,3.7.1,5.19,1.19,2.14,3.05,3.3,4.49a10.42,10.42,0,0,0,10.28,3.5c.39-.09-.33-4.93,0-5Z"
      transform="translate(-202.13 -37.94)" />
  </g>
  <g class="cls-4">
    <path class="cls-5"
      d="M281,118.31a117.08,117.08,0,0,0,.11,11.85,26,26,0,0,0,1,5.66,33,33,0,0,0,2.39,5.16,14.77,14.77,0,0,1,1.67,5.5c.19,2,.09,4,.24,6,.21,3,1.1,6.24,3.76,8a11.66,11.66,0,0,1,0-2.5c0-.32.25-2.33,0-2.5-5.29-3.49-3.12-10.79-4.32-16-.71-3.09-2.79-5.63-3.74-8.64a24.26,24.26,0,0,1-.94-4.77c-.09-.87-.15-1.73-.18-2.6-.08-2.38,0,2.51,0,.52l0-1.34c0-1.14,0-2.28,0-3.42,0-.23,0-1.79,0-.9Z"
      transform="translate(-202.13 -37.94)" />
  </g>
  <g class="cls-4">
    <path class="cls-5"
      d="M255.84,422.08A28.3,28.3,0,0,0,258,413a56.57,56.57,0,0,0-.14-10.33,28.94,28.94,0,0,0-2.7-9.23,45.3,45.3,0,0,0-2.49-4.19,16.55,16.55,0,0,1-1.19-2.19A8.22,8.22,0,0,1,251,386c0-.19-.1-.38-.13-.57-.24,3.56-.21,4.59.08,3.06s-.34-3.41,0-5a25.36,25.36,0,0,0-.16,5.44,8.41,8.41,0,0,0,.86,3.75c.73,1.48,1.75,2.8,2.57,4.23a26.49,26.49,0,0,1,1.95,4.18,27.77,27.77,0,0,1,1.25,4.45c.16.79.28,1.59.37,2.39,0,.38.08.77.1,1.15.17,2.4.12-2.62,0-1.44a29.48,29.48,0,0,1-2.13,9.48,8.36,8.36,0,0,0,0,2.5c0,.58,0,1.17,0,1.76a2.63,2.63,0,0,1,0,.74Z"
      transform="translate(-202.13 -37.94)" />
  </g>
  <g class="cls-4">
    <path class="cls-5"
      d="M344.14,212.41l2.48,9.79a4.45,4.45,0,0,1,0-.74c0-.59,0-1.17,0-1.76s0-1.18,0-1.77a3,3,0,0,0,0-.73l-2.48-9.79a4.45,4.45,0,0,1,0,.74c0,.59,0,1.18,0,1.76s0,1.18,0,1.77a3,3,0,0,0,0,.73Z"
      transform="translate(-202.13 -37.94)" />
  </g>
  <g class="cls-4">
    <path class="cls-5"
      d="M330.74,560.42a18.84,18.84,0,0,0,.34-5.66,11.9,11.9,0,0,0-.59-4.06,44,44,0,0,0-2-4.24,20,20,0,0,1-1.5-4.37c.83,3.6-.19,4,.13,2.28.1-.57.25-1.13.37-1.7a14,14,0,0,0,.34-2.23,38.13,38.13,0,0,0,0-6,8,8,0,0,0-5.69-6.74c.07,0,0,2.3,0,2.5a12.84,12.84,0,0,0,0,2.5,7.94,7.94,0,0,1,5.37,5.22,5.75,5.75,0,0,1,.22.84,5.06,5.06,0,0,1,.1.68V536c-.2.84-.31,1.72-.49,2.56a19.69,19.69,0,0,0-.39,4.4,27,27,0,0,0,.13,4.5A14.22,14.22,0,0,0,328.3,551c.54,1.16,1.16,2.29,1.68,3.46a14.27,14.27,0,0,1,.72,1.88c.09.31.17.62.23.94l.05.31q.27,2.31.06-3.4v-.34a6.6,6.6,0,0,1-.31,1.58,10,10,0,0,0,0,2.5,9.52,9.52,0,0,1,0,2.5Z"
      transform="translate(-202.13 -37.94)" />
  </g>
  <g class="cls-4">
    <path class="cls-5"
      d="M266.17,690.9a75.78,75.78,0,0,0,.2-10.76,41.26,41.26,0,0,0-1.27-8.56,3.53,3.53,0,0,1,0,.73c0,.59,0,1.18,0,1.77s0,1.18,0,1.76a3.65,3.65,0,0,0,0,.74,40.41,40.41,0,0,1,1.07,5.89c.06.51.1,1,.13,1.54,0,.27,0,.54.05.81v.28c0,1.15,0,.36,0-2.4,0,1.07-.09,2.13-.2,3.2a23.14,23.14,0,0,0,0,2.5c0,.81.11,1.69,0,2.5Z"
      transform="translate(-202.13 -37.94)" />
  </g>
  <g class="cls-4">
    <path class="cls-5" d="M264.6,674.9s0-5,0-5,0,5,0,5Z" transform="translate(-202.13 -37.94)" />
  </g>
  <g class="cls-4">
    <path class="cls-5"
      d="M298,667.2a11.86,11.86,0,0,1-1.13-3.82c0-.19,0-.39-.05-.58s0-.18,0-.27c0-.77,0-.14,0,1.88s0,2.65,0,1.78V666c0-.22,0-.43.06-.65a13.07,13.07,0,0,1,.39-2,12.37,12.37,0,0,1,4.38-6.54,4.56,4.56,0,0,0,0-.73c0-.59,0-1.18,0-1.77s0-1.18,0-1.77a3.61,3.61,0,0,1,0-.73,12.57,12.57,0,0,0-4.74,8.29,22.21,22.21,0,0,0-.15,2.82c0,1.54-.05,3.08,0,4.62a12.08,12.08,0,0,0,1.2,4.64,3.4,3.4,0,0,1,0-.73c0-.59,0-1.18,0-1.77s0-1.18,0-1.77a2.21,2.21,0,0,0,0-.73Z"
      transform="translate(-202.13 -37.94)" />
  </g>
  <g class="cls-4">
    <path class="cls-5"
      d="M296,346.83a36.57,36.57,0,0,1,3.75,9.59c.18.81.32,1.62.42,2.44.06.52.08,1,.13,1.55,0-2.69,0-3.38,0-2.08l-.05.82c-.16,2-.48,3.94-.81,5.9-.26,1.62.27,3.38,0,5a63.57,63.57,0,0,0,.86-15A33,33,0,0,0,296,341.83a3.42,3.42,0,0,1,0,.73c0,.59,0,1.18,0,1.77s0,1.18,0,1.77a2,2,0,0,0,0,.73Z"
      transform="translate(-202.13 -37.94)" />
  </g>
  <g class="cls-4">
    <path class="cls-5"
      d="M357.27,339.31a3.9,3.9,0,0,1-1-2c.84,3.71-.23,4.94.06,3.3q.06-.33.15-.66a10.27,10.27,0,0,1,.36-1.11c.6-1.58,1.56-3,2.12-4.56.77-2.18.58-4.5.56-6.78,0-1.57-.08-3.07-1.5-4.05,0,0,0,.83,0,.74,0,.59,0,1.18,0,1.76s0,1.18,0,1.77c0,.11-.06.69,0,.73a3.24,3.24,0,0,1,1.25,1.58,4.61,4.61,0,0,1,.15.53c.29,1.49-.73,1.74.05-3.44-.05.34-.1.69-.17,1a22.31,22.31,0,0,1-1.94,4.49,11.31,11.31,0,0,0-1.15,5,36,36,0,0,0,0,4.53,3.6,3.6,0,0,0,1,2.11,5.33,5.33,0,0,1,0-.73c0-.59,0-1.18,0-1.77s0-1.18,0-1.77c0-.13.06-.65,0-.73Z"
      transform="translate(-202.13 -37.94)" />
  </g>
  <g class="cls-4">
    <path class="cls-5" d="M242.23,304.5l1-12.78c.12-1.66-.13-3.35,0-5l-1,12.78c-.12,1.66.13,3.35,0,5Z"
      transform="translate(-202.13 -37.94)" />
  </g>
  <g class="cls-4">
    <path class="cls-5"
      d="M297.25,489.82c-.08-.66-.14-1.31-.18-2,0-.28,0-.55,0-.83.24,4,0,2.73.05,1.72a33.79,33.79,0,0,1,.41-3.61,34.47,34.47,0,0,1,1.9-6.76,14.15,14.15,0,0,0,1.2-5.12c0-1.39,0-2.79,0-4.17a3.57,3.57,0,0,0-.83-2.34,4.16,4.16,0,0,1,0,.73V471c0,.14-.06.63,0,.73a5.39,5.39,0,0,1,.68,1.19,1.37,1.37,0,0,1,.07.29c.14.76.15.19,0-1.72,0-3.36.06-2-.1-1.22a17.56,17.56,0,0,1-.9,2.74,35.22,35.22,0,0,0-2,7.11,41.82,41.82,0,0,0-.5,6.8,64.94,64.94,0,0,0,.26,7.89c-.19-1.64.18-3.35,0-5Z"
      transform="translate(-202.13 -37.94)" />
  </g>
  <g class="cls-4">
    <path class="cls-5"
      d="M241.58,610.76a13,13,0,0,0-.45,4.3,20.39,20.39,0,0,0,.34,5.46,8.23,8.23,0,0,0,3.84,5s0-.84,0-.73V621.2a2.87,2.87,0,0,0,0-.73,8,8,0,0,1-3.43-3.83,8.28,8.28,0,0,1-.67-2.49c0-.12,0-.24,0-.37,0-.76,0-.09,0,2s0,2.77,0,1.94c0-.23,0-.46.08-.69a7.18,7.18,0,0,1,.33-1.29,3,3,0,0,0,0-.73c0-.59,0-1.18,0-1.77s0-1.18,0-1.77a2.56,2.56,0,0,1,0-.73Z"
      transform="translate(-202.13 -37.94)" />
  </g>
</svg>