<svg id="Слой_1" data-name="Слой 1" xmlns="http://www.w3.org/2000/svg" viewBox="0 0 190.52 766">
  <defs>
    <style>
      .cls-1 {
        fill: #c6c6c6;
      }

      .cls-1,
      .cls-2 {
        stroke: #9d9d9c;
      }

      .cls-1,
      .cls-2,
      .cls-7 {
        stroke-miterlimit: 10;
        stroke-width: 2px;
      }

      .cls-2,
      .cls-3 {
        fill: #b2b2b2;
      }

      .cls-4 {
        opacity: 0.6;
      }

      .cls-5 {
        fill: #1d1d1c;
      }

      .cls-6,
      .cls-7 {
        fill: #fbd490;
      }

      .cls-7 {
        stroke: #f5e7cf;
      }

      .cls-8 {
        fill: #f5e7cf;
      }

      .cls-9 {
        fill: #ea4d4e;
      }

      .cls-10 {
        fill: #c12018;
      }

      .cls-11 {
        fill: #e94a59;
      }

      .cls-12 {
        fill: #e79e35;
      }

      .cls-13 {
        fill: #db8b2d;
      }

      .cls-14 {
        fill: #fbbd57;
      }

      .cls-15 {
        fill: #f1ae46;
      }

      .cls-16 {
        fill: #fcc97e;
      }
    </style>
  </defs>
  <path class="cls-1" d="M362.64,742.94h-130v-644h130v644Z" transform="translate(-202.13 -37.94)" />
  <path class="cls-1"
    d="M375.65,98.94h-156a3,3,0,0,1-3-3c-.4-1.73-.79-3.47-1.19-5.2.4-1.58.79-3.17,1.19-4.75v-.93c.65-2.34,1.31-4.68,2-7-.65-2-1.31-4.08-2-6.11a3,3,0,0,1,3-3h156a3,3,0,0,1,3,3,47.77,47.77,0,0,0-1.24,7,49.74,49.74,0,0,0,1.24,17C378.64,96.15,378.62,97.21,375.65,98.94Z"
    transform="translate(-202.13 -37.94)" />
  <path class="cls-1"
    d="M388.92,68.94H206.36a2.56,2.56,0,0,1-2.57-2.56,19.71,19.71,0,0,0,0-8.65,15.88,15.88,0,0,1-.66-4.13,17.65,17.65,0,0,1,.66-4.4,19.57,19.57,0,0,0,0-7.69,2.63,2.63,0,0,1,.75-1.81,2.56,2.56,0,0,1,1.82-.76H388.92a5,5,0,0,1,2.57,2.57c.73,2.07-1.06,3.37-2,6.22-2,6.42,2,15.88,2,18.65C391.49,66.4,391.49,66.41,388.92,68.94Z"
    transform="translate(-202.13 -37.94)" />
  <path class="cls-1"
    d="M374.09,772.94H221.18a8.23,8.23,0,0,1-3.21-1.33,8.42,8.42,0,0,1-2.84-3.34,34.32,34.32,0,0,1,4-18.94,3.81,3.81,0,0,1-1.16-5.05,3.86,3.86,0,0,1,3.21-1.34H374.09c1.12,2.79,2.26,3.61,3.13,3.82a2.13,2.13,0,0,1,1.42.73c.29.44.12.94.17,1.49a13.73,13.73,0,0,1-.17,3.11c-1,6.62-2.91,6.81-2.24,9.31.51,1.91,2.28,4.25,2.24,7C378.64,768.44,378.64,768.46,374.09,772.94Z"
    transform="translate(-202.13 -37.94)" />
  <path class="cls-1"
    d="M386.72,802.94H208.56a4.74,4.74,0,0,1-3.37-1.39,4.94,4.94,0,0,1-1.29-2.34,5.62,5.62,0,0,1-.11-1c0-1.52,0-2.28,2.21-4.9,1.23-1.47,1.69-5.23-2.21-15.55,1,.2,2,.28,2.28-.19.45-.72-1.26-2.06-.88-3.19.2-.6,1-1.18,3.37-1.4H386.72c1.79.86,4.12,2.35,4.77,4.78,1,3.83-3.43,5.46-2.79,10.08.4,2.89,2.82,7.21,2.79,10.37C391.49,798.21,391.48,798.23,386.72,802.94Z"
    transform="translate(-202.13 -37.94)" />
  <rect class="cls-2" x="31.27" y="80.06" width="14.4" height="606" rx="6.9" />
  <rect class="cls-2" x="58.36" y="80.06" width="14.4" height="606" rx="6.9" />
  <rect class="cls-2" x="87.96" y="80.06" width="14.4" height="606" rx="6.9" />
  <rect class="cls-2" x="117.55" y="80.06" width="14.4" height="606" rx="6.9" />
  <rect class="cls-2" x="146.1" y="80.06" width="14.4" height="606" rx="6.9" />
  <path class="cls-3"
    d="M298.18,331.59c-.31-1.56-.13,2.55-.11,2.49a6.16,6.16,0,0,0,.14-1.05c.1-.57.21-1.13.3-1.69a22.39,22.39,0,0,0,.31-3.17,50.34,50.34,0,0,0-.15-7.57,21.37,21.37,0,0,0-2-6.56,11,11,0,0,1-.58-1.43,3.7,3.7,0,0,1-.14-.55l0,3.64a5.44,5.44,0,0,0,.19-.57,2.17,2.17,0,0,1,2-1.41s0-5,0-5c-3,0-2.27,4.55-2.26,6.34a8.32,8.32,0,0,0,.59,3.45,36.54,36.54,0,0,1,1.6,3.89,20.5,20.5,0,0,1,.76,4.18c.18,2,.19-4.46,0-2.41,0,.52-.09,1-.16,1.54-.11.7-.25,1.4-.37,2.11a24.76,24.76,0,0,0-.26,3.94,25.14,25.14,0,0,0,.19,4.83c-.31-1.6.31-3.39,0-5Z"
    transform="translate(-202.13 -37.94)" />
  <path class="cls-1" d="M391.49,59.07" transform="translate(-202.13 -37.94)" />
  <g class="cls-4">
    <path class="cls-5"
      d="M233.36,166.4c5.62-.2,7.48,6.5,8.08,10.89.36,2.69.64,5.54,2,8a10.5,10.5,0,0,0,5.22,4.41c3.73,1.64,9,2.27,11.17,6.16,1.5,2.67.74,5.85,1.21,8.75a10,10,0,0,0,2.75,5.28c2.89,3.06,6.8,4.86,10,7.51a12.68,12.68,0,0,1,3.6,4.34,12.85,12.85,0,0,1,.73,2.63c-.61-2.62,0-3.13,0-1.72,0,.44,0,.87,0,1.31q0,1.72,0,3.45a9.62,9.62,0,0,0,.52,3.73,8.17,8.17,0,0,0,2.82,3.16,35.45,35.45,0,0,1,6.44,6c4,5,6.89,10.94,10,16.53L322,300.23a4.2,4.2,0,0,1,0-.73c0-.59,0-1.18,0-1.77s0-1.18,0-1.77c0-.18.07-.58,0-.73l-21.48-38.66c-3.28-5.9-6.35-12-10-17.66a35.87,35.87,0,0,0-5.68-7c-2-1.82-4.94-3.15-6.13-5.66-.62-1.31-.43-4.08-.56.47,0-.67,0-1.33,0-2,0-1.74.09-3.5-.07-5.23a9.24,9.24,0,0,0-2.42-5.36c-2.72-3.05-6.54-4.86-9.72-7.34a14.69,14.69,0,0,1-3.93-4.27c-1.38-2.48-1.1-5.21-1.28-7.94a7.71,7.71,0,0,0-3-6.07,21.69,21.69,0,0,0-5.94-2.69c-2.36-.83-4.85-1.68-6.71-3.42-2.29-2.15-3-5.28-3.41-8.26s-.68-5.93-2.16-8.61c-1.29-2.34-3.36-4.28-6.18-4.18-.09,0,0,5,0,5Z"
      transform="translate(-202.13 -37.94)" />
  </g>
  <g class="cls-4">
    <path class="cls-5"
      d="M361.38,650.8c.22-3.22.46-6.93-1.05-9.89a19.56,19.56,0,0,0-6.66-6.9c-2.49-1.69-5.15-3.16-7.48-5.09a16.79,16.79,0,0,1-3-3.16,19,19,0,0,1-2.22-4.79,18.86,18.86,0,0,0-13.06-12.08,10.17,10.17,0,0,0-9.19,2.05c-2,1.58-3.79,3.75-6.28,4.51-3.4,1-6.05-1.53-7.5-4.34a29.08,29.08,0,0,1-2.83-12.31c0-.32,0,.42,0,.26,0,.49,0,1,0,1.49,0,1,0,2.05,0,3.08A32.41,32.41,0,0,0,304,614c.91,2.47,2.35,5.28,5,6.31,5.31,2.11,8.82-5.09,13.31-6.45,5.85-1.78,12.5,2.38,15.91,6.89a18.12,18.12,0,0,1,2.16,3.68c.69,1.55,1.08,3.22,1.85,4.74a17.52,17.52,0,0,0,5.78,6.08c2.7,1.92,5.65,3.47,8.18,5.62a18.54,18.54,0,0,1,3.41,3.72,11.74,11.74,0,0,1,1.21,2.3,7.44,7.44,0,0,1,.34,1c.06.23.12.47.16.71q.29,2.05.08-2.69c-.07,1,0,2.06,0,3.08,0,.49,0,1,0,1.49,0,.05,0,.49,0,.25Z"
      transform="translate(-202.13 -37.94)" />
  </g>
  <g class="cls-4">
    <path class="cls-5"
      d="M231,541.23c3.62-1.14,5.2-4.94,6.09-8.33,1-3.88,1.81-7.84,5.3-10.29,1.62-1.13,3.45-1.91,5.1-3a12.83,12.83,0,0,0,3.68-3.66c1.84-2.78,2.68-6.1,3.47-9.3,1-3.85,1.85-7.8,4-11.18.29-.44,0-2,0-2.5v-1.77a2.26,2.26,0,0,1,0-.73c-3.82,5.88-3.52,13.31-6.85,19.38a13,13,0,0,1-3.14,3.87,36.24,36.24,0,0,1-5,3.07,11.23,11.23,0,0,0-4.14,3.84,20.34,20.34,0,0,0-2,5.53c-1,3.88-2.22,8.7-6.53,10.06a14.66,14.66,0,0,0,0,2.5,19.29,19.29,0,0,1,0,2.5Z"
      transform="translate(-202.13 -37.94)" />
  </g>
  <g class="cls-4">
    <path class="cls-5"
      d="M362.15,415.32a10.42,10.42,0,0,1-10.28-3.5c-1.16-1.44-1.77-3.37-3.3-4.49s-3.43-1.09-5.19-1.19-3.67-.25-5-1.61-1.79-3.17-3.16-4.46a9.57,9.57,0,0,0-10.1-1.88,12.91,12.91,0,0,0,0,2.5,14,14,0,0,1,0,2.5,9.57,9.57,0,0,1,10.1,1.88c1.37,1.29,1.89,3.14,3.16,4.46s3.21,1.52,5,1.61,3.7.1,5.19,1.19,2.14,3.05,3.3,4.49a10.42,10.42,0,0,0,10.28,3.5c.39-.09-.33-4.93,0-5Z"
      transform="translate(-202.13 -37.94)" />
  </g>
  <path class="cls-6"
    d="M254.82,690.26l6.73,7.67a8.11,8.11,0,0,0,7.16,2.81l9.48-1.3a.43.43,0,0,1,.41.62L274.13,709a9.21,9.21,0,0,0,0,8l4.49,9.3a.39.39,0,0,1-.41.58l-9.48-2.17a7.49,7.49,0,0,0-7.16,2.15l-6.7,7a.39.39,0,0,1-.67-.26l-1.39-10.23a9.19,9.19,0,0,0-4.44-6.71l-8.63-4.94a.43.43,0,0,1,0-.75l8.62-4.15a8.11,8.11,0,0,0,4.42-6.3l1.37-10.11A.37.37,0,0,1,254.82,690.26Z"
    transform="translate(-202.13 -37.94)" />
  <ellipse class="cls-7" cx="260.89" cy="711.59" rx="3.77" ry="4.09"
    transform="translate(-396.25 67.51) rotate(-16.76)" />
  <ellipse class="cls-8" cx="258.77" cy="704.55" rx="0.75" ry="0.82"
    transform="translate(-394.31 66.6) rotate(-16.76)" />
  <ellipse class="cls-8" cx="257.82" cy="701.42" rx="0.75" ry="0.82"
    transform="translate(-393.45 66.2) rotate(-16.76)" />
  <ellipse class="cls-8" cx="256.88" cy="698.29" rx="0.75" ry="0.82"
    transform="matrix(0.96, -0.29, 0.29, 0.96, -392.59, 65.79)" />
  <ellipse class="cls-8" cx="255.94" cy="695.17" rx="0.75" ry="0.82"
    transform="translate(-391.72 65.39) rotate(-16.76)" />
  <ellipse class="cls-8" cx="274.02" cy="702.32" rx="0.75" ry="0.82"
    transform="translate(-393.02 70.91) rotate(-16.76)" />
  <ellipse class="cls-8" cx="271.65" cy="704.24" rx="0.75" ry="0.82"
    transform="matrix(0.96, -0.29, 0.29, 0.96, -393.67, 70.31)" />
  <ellipse class="cls-8" cx="269.28" cy="706.16" rx="0.75" ry="0.82"
    transform="translate(-394.33 69.7) rotate(-16.76)" />
  <ellipse class="cls-8" cx="266.91" cy="708.07" rx="0.75" ry="0.82"
    transform="translate(-394.98 69.1) rotate(-16.76)" />
  <ellipse class="cls-8" cx="256.05" cy="727.94" rx="0.75" ry="0.82"
    transform="translate(-401.17 66.82) rotate(-16.76)" />
  <ellipse class="cls-8" cx="257.09" cy="724.94" rx="0.75" ry="0.82"
    transform="translate(-400.26 66.99) rotate(-16.76)" />
  <ellipse class="cls-8" cx="258.13" cy="721.94" rx="0.75" ry="0.82"
    transform="translate(-399.35 67.16) rotate(-16.76)" />
  <ellipse class="cls-8" cx="259.16" cy="718.94" rx="0.75" ry="0.82"
    transform="translate(-398.44 67.33) rotate(-16.76)" />
  <ellipse class="cls-8" cx="273.94" cy="722.56" rx="0.75" ry="0.82"
    transform="translate(-398.86 71.75) rotate(-16.76)" />
  <ellipse class="cls-8" cx="271.42" cy="720.63" rx="0.75" ry="0.82"
    transform="translate(-398.41 70.94) rotate(-16.76)" />
  <ellipse class="cls-8" cx="268.9" cy="718.7" rx="0.75" ry="0.82"
    transform="translate(-397.96 70.13) rotate(-16.76)" />
  <ellipse class="cls-8" cx="266.38" cy="716.77" rx="0.75" ry="0.82"
    transform="translate(-397.51 69.32) rotate(-16.76)" />
  <ellipse class="cls-8" cx="244.81" cy="711.12" rx="0.75" ry="0.82"
    transform="translate(-396.8 62.86) rotate(-16.76)" />
  <ellipse class="cls-8" cx="247.85" cy="711.41" rx="0.75" ry="0.82"
    transform="translate(-396.75 63.75) rotate(-16.76)" />
  <ellipse class="cls-8" cx="250.88" cy="711.7" rx="0.75" ry="0.82"
    transform="translate(-396.71 64.63) rotate(-16.76)" />
  <ellipse class="cls-8" cx="253.92" cy="711.99" rx="0.75" ry="0.82"
    transform="translate(-396.66 65.52) rotate(-16.76)" />
  <path class="cls-9"
    d="M282.58,217.42l1.78,8.28a10.56,10.56,0,0,0,11.23,8.52l8.1-.79a1,1,0,0,1,.56,1.79l-7,4.33A11.2,11.2,0,0,0,293,253.33l3.23,7.8a.94.94,0,0,1-1.47,1.11l-6.1-5.62a10.17,10.17,0,0,0-13.88,0l-6.11,5.62a.94.94,0,0,1-1.46-1.11l3.22-7.8a11.2,11.2,0,0,0-4.29-13.78l-7-4.33a1,1,0,0,1,.56-1.79l8.1.79A10.55,10.55,0,0,0,279,225.7l1.78-8.28A.92.92,0,0,1,282.58,217.42Z"
    transform="translate(-202.13 -37.94)" />
  <path class="cls-10"
    d="M281.68,242.52a1.12,1.12,0,0,1-1-.74,1.18,1.18,0,0,1,.33-1.28,1,1,0,0,1,1.21-.13,1.17,1.17,0,0,1,.57,1.2A1.12,1.12,0,0,1,281.68,242.52Z"
    transform="translate(-202.13 -37.94)" />
  <path class="cls-10"
    d="M280.58,237.48a1.12,1.12,0,0,1,1.1-1.15h0a1.12,1.12,0,0,1,1.09,1.15h0a1.12,1.12,0,0,1-1.09,1.14h0A1.12,1.12,0,0,1,280.58,237.48Zm0-3.91a1.12,1.12,0,0,1,1.1-1.14h0a1.12,1.12,0,0,1,1.09,1.14h0a1.12,1.12,0,0,1-1.09,1.15h0A1.12,1.12,0,0,1,280.58,233.57Zm0-3.9a1.12,1.12,0,0,1,1.1-1.14h0a1.12,1.12,0,0,1,1.09,1.14h0a1.12,1.12,0,0,1-1.09,1.15h0A1.12,1.12,0,0,1,280.58,229.67Zm0-3.9a1.12,1.12,0,0,1,1.1-1.14h0a1.12,1.12,0,0,1,1.09,1.14h0a1.13,1.13,0,0,1-1.09,1.15h0A1.13,1.13,0,0,1,280.58,225.77Z"
    transform="translate(-202.13 -37.94)" />
  <path class="cls-10"
    d="M281.68,223a1.12,1.12,0,0,1-1-.74A1.18,1.18,0,0,1,281,221a1,1,0,0,1,1.21-.13,1.17,1.17,0,0,1,.57,1.21A1.12,1.12,0,0,1,281.68,223Z"
    transform="translate(-202.13 -37.94)" />
  <path class="cls-10"
    d="M281.68,242.52a1.12,1.12,0,0,1-1-.74,1.18,1.18,0,0,1,.33-1.28,1,1,0,0,1,1.21-.13,1.17,1.17,0,0,1,.57,1.2A1.12,1.12,0,0,1,281.68,242.52Z"
    transform="translate(-202.13 -37.94)" />
  <path class="cls-10"
    d="M277.78,241.38A1.16,1.16,0,0,1,277,240h0a1.09,1.09,0,0,1,1.36-.77h0a1.15,1.15,0,0,1,.74,1.42h0a1.1,1.1,0,0,1-1.05.82h0a1.1,1.1,0,0,1-.31,0Zm-3.59-1.11a1.15,1.15,0,0,1-.74-1.42h0a1.09,1.09,0,0,1,1.36-.77h0a1.14,1.14,0,0,1,.75,1.42h0a1.1,1.1,0,0,1-1.05.82h0a.89.89,0,0,1-.32,0C273.61,240.1,274.3,240.31,274.19,240.27Zm-3.58-1.1a1.14,1.14,0,0,1-.74-1.42h0a1.08,1.08,0,0,1,1.36-.77h0a1.15,1.15,0,0,1,.74,1.42h0a1.1,1.1,0,0,1-1.05.82h0a1.12,1.12,0,0,1-.31-.05Zm-3.59-1.1a1.15,1.15,0,0,1-.74-1.42h0a1.09,1.09,0,0,1,1.36-.78h0a1.17,1.17,0,0,1,.75,1.43h0a1.12,1.12,0,0,1-1.06.82h0a1.18,1.18,0,0,1-.31-.05C266.44,237.89,267.13,238.1,267,238.07Z"
    transform="translate(-202.13 -37.94)" />
  <path class="cls-10"
    d="M263.75,237a1.12,1.12,0,0,1-1-.76A1.18,1.18,0,0,1,263,235a1.07,1.07,0,0,1,1.29-.1,1.17,1.17,0,0,1,.49,1.19A1.12,1.12,0,0,1,263.75,237Z"
    transform="translate(-202.13 -37.94)" />
  <path class="cls-10"
    d="M281.68,242.52a1.12,1.12,0,0,1-1-.74,1.18,1.18,0,0,1,.33-1.28,1,1,0,0,1,1.21-.13,1.17,1.17,0,0,1,.57,1.2A1.12,1.12,0,0,1,281.68,242.52Z"
    transform="translate(-202.13 -37.94)" />
  <path class="cls-10"
    d="M272.44,255.08a1.17,1.17,0,0,1-.26-1.59h0a1.06,1.06,0,0,1,1.53-.28h0a1.17,1.17,0,0,1,.26,1.59h0a1.07,1.07,0,0,1-.9.49h0a1.1,1.1,0,0,1-.63-.21C272,254.72,272.64,255.22,272.44,255.08Zm2.15-3.19a1.18,1.18,0,0,1-.26-1.6h0a1.07,1.07,0,0,1,1.53-.27h0a1.17,1.17,0,0,1,.26,1.59h0a1.07,1.07,0,0,1-.9.49h0a1.1,1.1,0,0,1-.63-.21C274.1,251.53,274.79,252,274.59,251.89Zm2.15-3.19a1.19,1.19,0,0,1-.26-1.6h0a1.08,1.08,0,0,1,1.53-.28h0a1.19,1.19,0,0,1,.26,1.6h0a1.07,1.07,0,0,1-.9.49h0a1.1,1.1,0,0,1-.63-.21C276.25,248.33,276.94,248.84,276.74,248.7Zm2.16-3.19a1.18,1.18,0,0,1-.27-1.6h0a1.07,1.07,0,0,1,1.53-.28h0a1.19,1.19,0,0,1,.26,1.6h0a1.07,1.07,0,0,1-.89.49h0a1.06,1.06,0,0,1-.63-.21Z"
    transform="translate(-202.13 -37.94)" />
  <path class="cls-10"
    d="M270.92,258.48a1.11,1.11,0,0,1-1-.78,1.17,1.17,0,0,1,.37-1.27,1.07,1.07,0,0,1,1.23-.08,1.19,1.19,0,0,1,.51,1.21A1.12,1.12,0,0,1,270.92,258.48Z"
    transform="translate(-202.13 -37.94)" />
  <path class="cls-10"
    d="M281.68,242.52a1.12,1.12,0,0,1-1-.74,1.18,1.18,0,0,1,.33-1.28,1,1,0,0,1,1.21-.13,1.17,1.17,0,0,1,.57,1.2A1.12,1.12,0,0,1,281.68,242.52Z"
    transform="translate(-202.13 -37.94)" />
  <path class="cls-10"
    d="M284.21,240.6a1.15,1.15,0,0,1,.74-1.42h0a1.09,1.09,0,0,1,1.36.77h0a1.15,1.15,0,0,1-.74,1.43h0a1.1,1.1,0,0,1-.31,0h0a1.1,1.1,0,0,1-1.05-.82Zm3.59-1.1a1.14,1.14,0,0,1,.74-1.42h0a1.09,1.09,0,0,1,1.36.77h0a1.15,1.15,0,0,1-.74,1.42h0a.87.87,0,0,1-.31,0h0a1.09,1.09,0,0,1-1.05-.82C287.62,238.89,287.94,240,287.8,239.5Zm3.58-1.1a1.15,1.15,0,0,1,.74-1.42h0a1.09,1.09,0,0,1,1.37.77h0a1.15,1.15,0,0,1-.75,1.42h0a1.06,1.06,0,0,1-.31.05h0a1.1,1.1,0,0,1-1.05-.82Zm3.59-1.1a1.16,1.16,0,0,1,.74-1.43h0a1.09,1.09,0,0,1,1.36.78h0a1.15,1.15,0,0,1-.74,1.42h0a1.12,1.12,0,0,1-.31.05h0a1.11,1.11,0,0,1-1-.82C294.8,236.69,295.11,237.79,295,237.3Z"
    transform="translate(-202.13 -37.94)" />
  <path class="cls-10"
    d="M299.61,237a1.12,1.12,0,0,1-1-.76,1.18,1.18,0,0,1,.33-1.26,1.07,1.07,0,0,1,1.29-.1,1.17,1.17,0,0,1,.49,1.19A1.13,1.13,0,0,1,299.61,237Z"
    transform="translate(-202.13 -37.94)" />
  <path class="cls-10"
    d="M281.68,242.52a1.12,1.12,0,0,1-1-.74,1.18,1.18,0,0,1,.33-1.28,1,1,0,0,1,1.21-.13,1.17,1.17,0,0,1,.57,1.2A1.12,1.12,0,0,1,281.68,242.52Z"
    transform="translate(-202.13 -37.94)" />
  <path class="cls-10"
    d="M289.38,254.8a1.17,1.17,0,0,1,.27-1.59h0a1.06,1.06,0,0,1,1.53.28h0a1.18,1.18,0,0,1-.27,1.59h0a1.06,1.06,0,0,1-.63.21h0a1.07,1.07,0,0,1-.9-.49C289,254.29,289.59,255.12,289.38,254.8Zm-2.15-3.19a1.17,1.17,0,0,1,.27-1.59h0a1.07,1.07,0,0,1,1.53.27h0a1.2,1.2,0,0,1-.27,1.6h0a1.06,1.06,0,0,1-.63.21h0a1.07,1.07,0,0,1-.9-.49C286.88,251.1,287.44,251.93,287.23,251.61Zm-2.15-3.19a1.18,1.18,0,0,1,.27-1.6h0a1.07,1.07,0,0,1,1.52.28h0a1.19,1.19,0,0,1-.26,1.6h0a1.06,1.06,0,0,1-.63.21h0a1.07,1.07,0,0,1-.9-.49C284.73,247.9,285.29,248.74,285.08,248.42Zm-2.15-3.19a1.18,1.18,0,0,1,.27-1.6h0a1.06,1.06,0,0,1,1.52.28h0a1.19,1.19,0,0,1-.26,1.6h0a1.06,1.06,0,0,1-.63.21h0a1.07,1.07,0,0,1-.9-.49C282.58,244.71,283.14,245.55,282.93,245.23Z"
    transform="translate(-202.13 -37.94)" />
  <path class="cls-10"
    d="M292.43,258.48a1.11,1.11,0,0,1-1-.78,1.17,1.17,0,0,1,.37-1.27,1.07,1.07,0,0,1,1.23-.08,1.17,1.17,0,0,1,.51,1.21A1.11,1.11,0,0,1,292.43,258.48Z"
    transform="translate(-202.13 -37.94)" />
  <path class="cls-11" d="M348.58,129.69l-27.46,3.71h0a16.81,16.81,0,0,0,27.53-3.71Z"
    transform="translate(-202.13 -37.94)" />
  <path class="cls-12"
    d="M326.43,135.05a8.54,8.54,0,0,1-.91,3c-.9,1.7.81,3.49,2.87,3a13.48,13.48,0,0,0,4.83-2,25.14,25.14,0,0,0-6.79-4Z"
    transform="translate(-202.13 -37.94)" />
  <path class="cls-13"
    d="M329.65,138.32c-.57-.37-1.15-.7-1.73-1a2.12,2.12,0,0,0-2.11.11,8.87,8.87,0,0,0,.62-2.37,25.14,25.14,0,0,1,6.79,4,11.28,11.28,0,0,1-3.2,1.53,1.52,1.52,0,0,0-.37-2.3Z"
    transform="translate(-202.13 -37.94)" />
  <path class="cls-12"
    d="M343.91,132.69a25.37,25.37,0,0,0-5.49,5.7,13.46,13.46,0,0,0,5.19.61c2.11-.1,3.29-2.28,2-3.68a8.23,8.23,0,0,1-1.67-2.63Z"
    transform="translate(-202.13 -37.94)" />
  <path class="cls-13"
    d="M341.66,136.7c.46-.51.93-1,1.41-1.43a2.14,2.14,0,0,1,2.07-.46,8,8,0,0,1-1.23-2.12,25.37,25.37,0,0,0-5.49,5.7,11.67,11.67,0,0,0,3.5.62,1.52,1.52,0,0,1-.26-2.31Z"
    transform="translate(-202.13 -37.94)" />
  <path class="cls-14"
    d="M332.17,111.66c-8.56,1.16-14.72,8.2-13.7,15.68a12.24,12.24,0,0,0,2.66,6.11q.36.12.72.21A31,31,0,0,1,332.49,139a2.05,2.05,0,0,0,1.25.4,18.34,18.34,0,0,0,4.28-.58,1.94,1.94,0,0,0,1.09-.72,31,31,0,0,1,8.85-8l.63-.39a12.28,12.28,0,0,0,1-6.61c-1-7.5-8.79-12.64-17.37-11.48Z"
    transform="translate(-202.13 -37.94)" />
  <path class="cls-15"
    d="M348,130.14l.63-.39a12.36,12.36,0,0,0,.67-1.94,5.32,5.32,0,0,1-1.92-2.24,1.39,1.39,0,0,0-1.38-.73,2.86,2.86,0,0,1-2.64-1.14,1.43,1.43,0,0,0-1.45-.51,2.41,2.41,0,0,1-2.05-.49,1.55,1.55,0,0,0-1.48-.22,3.37,3.37,0,0,1-2.16.08,1.73,1.73,0,0,0-1.4.19,2.61,2.61,0,0,1-2.14.29,1.59,1.59,0,0,0-1.4.28,2.77,2.77,0,0,1-2.08.57,1.58,1.58,0,0,0-1.45.62,2.22,2.22,0,0,1-1.55.82,1.53,1.53,0,0,0-1.24.91,3,3,0,0,1-2.45,1.71,1.41,1.41,0,0,0-1.18,1.21,4.19,4.19,0,0,1-1.26,2.7,11.54,11.54,0,0,0,1.1,1.59q.36.12.72.21A31,31,0,0,1,332.49,139a2.05,2.05,0,0,0,1.25.4,18.34,18.34,0,0,0,4.28-.58,1.94,1.94,0,0,0,1.09-.72,31,31,0,0,1,8.85-8Z"
    transform="translate(-202.13 -37.94)" />
  <path class="cls-12"
    d="M339.11,138.13a31.49,31.49,0,0,1,6.27-6.27,3,3,0,0,1-2.84-1.79.83.83,0,0,0-.82-.44,1.66,1.66,0,0,1-1.56-.67.84.84,0,0,0-.85-.3,1.44,1.44,0,0,1-1.22-.29.91.91,0,0,0-.88-.13,2,2,0,0,1-1.28,0,1,1,0,0,0-.83.11,1.54,1.54,0,0,1-1.26.17.91.91,0,0,0-.83.17,1.65,1.65,0,0,1-1.23.33,1,1,0,0,0-.86.37,1.31,1.31,0,0,1-.92.48.92.92,0,0,0-.74.55,1.79,1.79,0,0,1-1.45,1,.84.84,0,0,0-.7.72,3.05,3.05,0,0,1-2.24,2.47h0a31.47,31.47,0,0,1,7.62,4.36,2.05,2.05,0,0,0,1.25.4,18.34,18.34,0,0,0,4.28-.58,1.94,1.94,0,0,0,1.09-.72Z"
    transform="translate(-202.13 -37.94)" />
  <path class="cls-16"
    d="M329.65,134.1A29.12,29.12,0,0,0,321,129a.49.49,0,0,1-.32-.68.66.66,0,0,1,.79-.31,30.19,30.19,0,0,1,9,5.31.49.49,0,0,1,0,.75A.68.68,0,0,1,329.65,134.1Z"
    transform="translate(-202.13 -37.94)" />
  <path class="cls-14"
    d="M330.52,133.33a30.57,30.57,0,0,0-8.61-5.16,1.3,1.3,0,0,0-.61.94,29.38,29.38,0,0,1,8.35,5,.68.68,0,0,0,.86,0,.49.49,0,0,0,0-.75Z"
    transform="translate(-202.13 -37.94)" />
  <path class="cls-15"
    d="M327.12,132.16a28,28,0,0,1,2.53,1.94.68.68,0,0,0,.86,0,.49.49,0,0,0,0-.75,28.7,28.7,0,0,0-2.47-1.9l-.24,0a.83.83,0,0,0-.69.68Z"
    transform="translate(-202.13 -37.94)" />
  <path class="cls-16"
    d="M330.76,133a39.77,39.77,0,0,0-9.24-9.64.48.48,0,0,1-.09-.74.67.67,0,0,1,.85-.11,40.36,40.36,0,0,1,9.53,9.92.51.51,0,0,1-.22.73.64.64,0,0,1-.83-.16Z"
    transform="translate(-202.13 -37.94)" />
  <path class="cls-14"
    d="M331.81,132.43a42,42,0,0,0-6-7,1.45,1.45,0,0,0-.86.78,41.26,41.26,0,0,1,5.83,6.8.64.64,0,0,0,.83.16A.51.51,0,0,0,331.81,132.43Z"
    transform="translate(-202.13 -37.94)" />
  <path class="cls-15"
    d="M330.76,133a.64.64,0,0,0,.83.16.51.51,0,0,0,.22-.73c-.61-.89-1.23-1.72-1.85-2.5a.92.92,0,0,0-.7.54,1.51,1.51,0,0,1-.15.28q.84,1,1.65,2.25Z"
    transform="translate(-202.13 -37.94)" />
  <path class="cls-16"
    d="M332,132.24a70.13,70.13,0,0,0-7.72-13.84.5.5,0,0,1,.19-.74.65.65,0,0,1,.83.14,71.29,71.29,0,0,1,7.83,14,.52.52,0,0,1-.35.69.61.61,0,0,1-.78-.28Z"
    transform="translate(-202.13 -37.94)" />
  <path class="cls-14"
    d="M333.16,131.83a86.62,86.62,0,0,0-3.93-7.94h-.07a1.71,1.71,0,0,0-1.13.29,84.06,84.06,0,0,1,4,8.06.61.61,0,0,0,.78.28A.52.52,0,0,0,333.16,131.83Z"
    transform="translate(-202.13 -37.94)" />
  <path class="cls-15"
    d="M332,132.24a.61.61,0,0,0,.78.28.52.52,0,0,0,.35-.69c-.42-1-.84-1.88-1.25-2.75h-.13a1,1,0,0,0-.86.37l-.11.12c.41.85.81,1.74,1.22,2.68Z"
    transform="translate(-202.13 -37.94)" />
  <path class="cls-16"
    d="M333.5,131.74a98.89,98.89,0,0,0-4.83-16.49.52.52,0,0,1,.37-.68.6.6,0,0,1,.77.3,100.27,100.27,0,0,1,4.88,16.65.56.56,0,0,1-.49.63A.58.58,0,0,1,333.5,131.74Z"
    transform="translate(-202.13 -37.94)" />
  <path class="cls-14"
    d="M332.59,123a1.57,1.57,0,0,0-1.2.19c.73,2.47,1.49,5.38,2.11,8.52a.58.58,0,0,0,.7.41.56.56,0,0,0,.49-.63c-.62-3.12-1.38-6-2.1-8.49Z"
    transform="translate(-202.13 -37.94)" />
  <path class="cls-15"
    d="M333.5,131.74a.58.58,0,0,0,.7.41.56.56,0,0,0,.49-.63c-.2-1-.41-2-.63-2.9l-.22-.05a.91.91,0,0,0-.83.17l-.14.1c.22.94.43,1.91.63,2.9Z"
    transform="translate(-202.13 -37.94)" />
  <path class="cls-16"
    d="M339.72,132.83a.48.48,0,0,1-.21-.71,29.75,29.75,0,0,1,7.29-7.51.65.65,0,0,1,.84.09.49.49,0,0,1-.13.74,29.35,29.35,0,0,0-7,7.19.65.65,0,0,1-.82.2Z"
    transform="translate(-202.13 -37.94)" />
  <path class="cls-14"
    d="M340.54,132.63a29.67,29.67,0,0,1,6.8-7.07,1.35,1.35,0,0,0-.91-.69,30.44,30.44,0,0,0-6.92,7.25.48.48,0,0,0,.21.71.65.65,0,0,0,.82-.2Z"
    transform="translate(-202.13 -37.94)" />
  <path class="cls-15"
    d="M339.72,132.83a.65.65,0,0,0,.82-.2,26.46,26.46,0,0,1,2-2.6.86.86,0,0,0-.81-.4h-.34a28.34,28.34,0,0,0-1.87,2.49.48.48,0,0,0,.21.71Z"
    transform="translate(-202.13 -37.94)" />
  <path class="cls-16"
    d="M338.43,132.24a.51.51,0,0,1-.4-.65,40,40,0,0,1,6.56-12.09.66.66,0,0,1,.84-.12.48.48,0,0,1,.11.74,39.75,39.75,0,0,0-6.36,11.74A.63.63,0,0,1,338.43,132.24Z"
    transform="translate(-202.13 -37.94)" />
  <path class="cls-14"
    d="M342,123.17a42.54,42.54,0,0,0-4,8.42.51.51,0,0,0,.4.65.63.63,0,0,0,.75-.38,41.9,41.9,0,0,1,4-8.34,1.43,1.43,0,0,0-1.14-.35Z"
    transform="translate(-202.13 -37.94)" />
  <path class="cls-15"
    d="M338.43,132.24a.63.63,0,0,0,.75-.38c.34-1,.7-1.9,1.08-2.78l-.1-.12a.84.84,0,0,0-.85-.3l-.16,0c-.39.91-.77,1.89-1.12,2.91a.51.51,0,0,0,.4.65Z"
    transform="translate(-202.13 -37.94)" />
  <path class="cls-16"
    d="M337.23,131.94a.55.55,0,0,1-.67-.57,71.24,71.24,0,0,1,3.84-15.61.64.64,0,0,1,.76-.35.5.5,0,0,1,.37.67,70.66,70.66,0,0,0-3.77,15.39.6.6,0,0,1-.53.47Z"
    transform="translate(-202.13 -37.94)" />
  <path class="cls-14"
    d="M338.34,122.48l0,0a87,87,0,0,0-1.73,8.87.55.55,0,0,0,.67.57.6.6,0,0,0,.53-.47,86,86,0,0,1,1.75-9,1.62,1.62,0,0,0-1.17,0Z"
    transform="translate(-202.13 -37.94)" />
  <path class="cls-15"
    d="M337.23,131.94a.59.59,0,0,0,.53-.47q.23-1.58.48-3l-.15-.1a.91.91,0,0,0-.88-.13l-.15,0c-.18,1-.34,2-.5,3.08a.55.55,0,0,0,.67.57Z"
    transform="translate(-202.13 -37.94)" />
  <path class="cls-16"
    d="M335.65,132a.56.56,0,0,1-.64-.48,99.56,99.56,0,0,1,.29-17.36.61.61,0,0,1,.66-.49.54.54,0,0,1,.54.57,98.54,98.54,0,0,0-.29,17.18.58.58,0,0,1-.56.58Z"
    transform="translate(-202.13 -37.94)" />
  <path class="cls-14"
    d="M334.78,122.75c0,2.58,0,5.56.23,8.73a.56.56,0,0,0,.64.48.58.58,0,0,0,.56-.58c-.23-3.23-.27-6.27-.22-8.86a1.67,1.67,0,0,0-1.21.23Z"
    transform="translate(-202.13 -37.94)" />
  <path class="cls-15"
    d="M335.93,128.29a1,1,0,0,0-.83.11.91.91,0,0,1-.26.13c0,1,.09,1.95.17,2.95a.56.56,0,0,0,.64.48.58.58,0,0,0,.56-.58c-.07-1-.13-2.07-.17-3.07Z"
    transform="translate(-202.13 -37.94)" />
</svg>