<svg id="Слой_1" data-name="Слой 1" xmlns="http://www.w3.org/2000/svg" viewBox="0 0 190.52 766">
  <defs>
    <style>
      .cls-1 {
        fill: #c6c6c6;
      }

      .cls-1,
      .cls-2 {
        stroke: #9d9d9c;
        stroke-miterlimit: 10;
        stroke-width: 2px;
      }

      .cls-2,
      .cls-3 {
        fill: #b2b2b2;
      }

      .cls-4 {
        opacity: 0.6;
      }

      .cls-5 {
        fill: #1d1d1c;
      }
    </style>
  </defs>
  <path class="cls-1" d="M362.64,742.94h-130v-644h130v644Z" transform="translate(-202.13 -37.94)" />
  <path class="cls-1"
    d="M375.65,98.94h-156a3,3,0,0,1-3-3c-.4-1.73-.79-3.47-1.19-5.2.4-1.58.79-3.17,1.19-4.75v-.93c.65-2.34,1.31-4.68,2-7-.65-2-1.31-4.08-2-6.11a3,3,0,0,1,3-3h156a3,3,0,0,1,3,3,47.77,47.77,0,0,0-1.24,7,49.74,49.74,0,0,0,1.24,17C378.64,96.15,378.62,97.21,375.65,98.94Z"
    transform="translate(-202.13 -37.94)" />
  <path class="cls-1"
    d="M388.92,68.94H206.36a2.56,2.56,0,0,1-2.57-2.56,19.71,19.71,0,0,0,0-8.65,15.88,15.88,0,0,1-.66-4.13,17.65,17.65,0,0,1,.66-4.4,19.57,19.57,0,0,0,0-7.69,2.63,2.63,0,0,1,.75-1.81,2.56,2.56,0,0,1,1.82-.76H388.92a5,5,0,0,1,2.57,2.57c.73,2.07-1.06,3.37-2,6.22-2,6.42,2,15.88,2,18.65C391.49,66.4,391.49,66.41,388.92,68.94Z"
    transform="translate(-202.13 -37.94)" />
  <path class="cls-1"
    d="M374.09,772.94H221.18a8.23,8.23,0,0,1-3.21-1.33,8.42,8.42,0,0,1-2.84-3.34,34.32,34.32,0,0,1,4-18.94,3.81,3.81,0,0,1-1.16-5.05,3.86,3.86,0,0,1,3.21-1.34H374.09c1.12,2.79,2.26,3.61,3.13,3.82a2.13,2.13,0,0,1,1.42.73c.29.44.12.94.17,1.49a13.73,13.73,0,0,1-.17,3.11c-1,6.62-2.91,6.81-2.24,9.31.51,1.91,2.28,4.25,2.24,7C378.64,768.44,378.64,768.46,374.09,772.94Z"
    transform="translate(-202.13 -37.94)" />
  <path class="cls-1"
    d="M386.72,802.94H208.56a4.74,4.74,0,0,1-3.37-1.39,4.94,4.94,0,0,1-1.29-2.34,5.62,5.62,0,0,1-.11-1c0-1.52,0-2.28,2.21-4.9,1.23-1.47,1.69-5.23-2.21-15.55,1,.2,2,.28,2.28-.19.45-.72-1.26-2.06-.88-3.19.2-.6,1-1.18,3.37-1.4H386.72c1.79.86,4.12,2.35,4.77,4.78,1,3.83-3.43,5.46-2.79,10.08.4,2.89,2.82,7.21,2.79,10.37C391.49,798.21,391.48,798.23,386.72,802.94Z"
    transform="translate(-202.13 -37.94)" />
  <rect class="cls-2" x="31.27" y="80.06" width="14.4" height="606" rx="6.9" />
  <rect class="cls-2" x="58.36" y="80.06" width="14.4" height="606" rx="6.9" />
  <rect class="cls-2" x="87.96" y="80.06" width="14.4" height="606" rx="6.9" />
  <rect class="cls-2" x="117.55" y="80.06" width="14.4" height="606" rx="6.9" />
  <rect class="cls-2" x="146.1" y="80.06" width="14.4" height="606" rx="6.9" />
  <path class="cls-3"
    d="M298.18,331.59c-.31-1.56-.13,2.55-.11,2.49a6.16,6.16,0,0,0,.14-1.05c.1-.57.21-1.13.3-1.69a22.39,22.39,0,0,0,.31-3.17,50.34,50.34,0,0,0-.15-7.57,21.37,21.37,0,0,0-2-6.56,11,11,0,0,1-.58-1.43,3.7,3.7,0,0,1-.14-.55l0,3.64a5.44,5.44,0,0,0,.19-.57,2.17,2.17,0,0,1,2-1.41s0-5,0-5c-3,0-2.27,4.55-2.26,6.34a8.32,8.32,0,0,0,.59,3.45,36.54,36.54,0,0,1,1.6,3.89,20.5,20.5,0,0,1,.76,4.18c.18,2,.19-4.46,0-2.41,0,.52-.09,1-.16,1.54-.11.7-.25,1.4-.37,2.11a24.76,24.76,0,0,0-.26,3.94,25.14,25.14,0,0,0,.19,4.83c-.31-1.6.31-3.39,0-5Z"
    transform="translate(-202.13 -37.94)" />
  <path class="cls-1" d="M391.49,59.07" transform="translate(-202.13 -37.94)" />
  <g class="cls-4">
    <path class="cls-5"
      d="M233.36,166.4c5.62-.2,7.48,6.5,8.08,10.89.36,2.69.64,5.54,2,8a10.5,10.5,0,0,0,5.22,4.41c3.73,1.64,9,2.27,11.17,6.16,1.5,2.67.74,5.85,1.21,8.75a10,10,0,0,0,2.75,5.28c2.89,3.06,6.8,4.86,10,7.51a12.68,12.68,0,0,1,3.6,4.34,12.85,12.85,0,0,1,.73,2.63c-.61-2.62,0-3.13,0-1.72,0,.44,0,.87,0,1.31q0,1.72,0,3.45a9.62,9.62,0,0,0,.52,3.73,8.17,8.17,0,0,0,2.82,3.16,35.45,35.45,0,0,1,6.44,6c4,5,6.89,10.94,10,16.53L322,300.23a4.2,4.2,0,0,1,0-.73c0-.59,0-1.18,0-1.77s0-1.18,0-1.77c0-.18.07-.58,0-.73l-21.48-38.66c-3.28-5.9-6.35-12-10-17.66a35.87,35.87,0,0,0-5.68-7c-2-1.82-4.94-3.15-6.13-5.66-.62-1.31-.43-4.08-.56.47,0-.67,0-1.33,0-2,0-1.74.09-3.5-.07-5.23a9.24,9.24,0,0,0-2.42-5.36c-2.72-3.05-6.54-4.86-9.72-7.34a14.69,14.69,0,0,1-3.93-4.27c-1.38-2.48-1.1-5.21-1.28-7.94a7.71,7.71,0,0,0-3-6.07,21.69,21.69,0,0,0-5.94-2.69c-2.36-.83-4.85-1.68-6.71-3.42-2.29-2.15-3-5.28-3.41-8.26s-.68-5.93-2.16-8.61c-1.29-2.34-3.36-4.28-6.18-4.18-.09,0,0,5,0,5Z"
      transform="translate(-202.13 -37.94)" />
  </g>
  <g class="cls-4">
    <path class="cls-5"
      d="M361.38,650.8c.22-3.22.46-6.93-1.05-9.89a19.56,19.56,0,0,0-6.66-6.9c-2.49-1.69-5.15-3.16-7.48-5.09a16.79,16.79,0,0,1-3-3.16,19,19,0,0,1-2.22-4.79,18.86,18.86,0,0,0-13.06-12.08,10.17,10.17,0,0,0-9.19,2.05c-2,1.58-3.79,3.75-6.28,4.51-3.4,1-6.05-1.53-7.5-4.34a29.08,29.08,0,0,1-2.83-12.31c0-.32,0,.42,0,.26,0,.49,0,1,0,1.49,0,1,0,2.05,0,3.08A32.41,32.41,0,0,0,304,614c.91,2.47,2.35,5.28,5,6.31,5.31,2.11,8.82-5.09,13.31-6.45,5.85-1.78,12.5,2.38,15.91,6.89a18.12,18.12,0,0,1,2.16,3.68c.69,1.55,1.08,3.22,1.85,4.74a17.52,17.52,0,0,0,5.78,6.08c2.7,1.92,5.65,3.47,8.18,5.62a18.54,18.54,0,0,1,3.41,3.72,11.74,11.74,0,0,1,1.21,2.3,7.44,7.44,0,0,1,.34,1c.06.23.12.47.16.71q.29,2.05.08-2.69c-.07,1,0,2.06,0,3.08,0,.49,0,1,0,1.49,0,.05,0,.49,0,.25Z"
      transform="translate(-202.13 -37.94)" />
  </g>
  <g class="cls-4">
    <path class="cls-5"
      d="M231,541.23c3.62-1.14,5.2-4.94,6.09-8.33,1-3.88,1.81-7.84,5.3-10.29,1.62-1.13,3.45-1.91,5.1-3a12.83,12.83,0,0,0,3.68-3.66c1.84-2.78,2.68-6.1,3.47-9.3,1-3.85,1.85-7.8,4-11.18.29-.44,0-2,0-2.5v-1.77a2.26,2.26,0,0,1,0-.73c-3.82,5.88-3.52,13.31-6.85,19.38a13,13,0,0,1-3.14,3.87,36.24,36.24,0,0,1-5,3.07,11.23,11.23,0,0,0-4.14,3.84,20.34,20.34,0,0,0-2,5.53c-1,3.88-2.22,8.7-6.53,10.06a14.66,14.66,0,0,0,0,2.5,19.29,19.29,0,0,1,0,2.5Z"
      transform="translate(-202.13 -37.94)" />
  </g>
  <g class="cls-4">
    <path class="cls-5"
      d="M362.15,415.32a10.42,10.42,0,0,1-10.28-3.5c-1.16-1.44-1.77-3.37-3.3-4.49s-3.43-1.09-5.19-1.19-3.67-.25-5-1.61-1.79-3.17-3.16-4.46a9.57,9.57,0,0,0-10.1-1.88,12.91,12.91,0,0,0,0,2.5,14,14,0,0,1,0,2.5,9.57,9.57,0,0,1,10.1,1.88c1.37,1.29,1.89,3.14,3.16,4.46s3.21,1.52,5,1.61,3.7.1,5.19,1.19,2.14,3.05,3.3,4.49a10.42,10.42,0,0,0,10.28,3.5c.39-.09-.33-4.93,0-5Z"
      transform="translate(-202.13 -37.94)" />
  </g>
</svg>