<svg width="27" height="31" viewBox="0 0 27 31" fill="none" xmlns="http://www.w3.org/2000/svg">
<g filter="url(#filter0_d_53_858)">
<path d="M21 21H10V7H21M21 5H10C9.46957 5 8.96086 5.21071 8.58579 5.58579C8.21071 5.96086 8 6.46957 8 7V21C8 21.5304 8.21071 22.0391 8.58579 22.4142C8.96086 22.7893 9.46957 23 10 23H21C21.5304 23 22.0391 22.7893 22.4142 22.4142C22.7893 22.0391 23 21.5304 23 21V7C23 6.46957 22.7893 5.96086 22.4142 5.58579C22.0391 5.21071 21.5304 5 21 5ZM18 1H6C5.46957 1 4.96086 1.21071 4.58579 1.58579C4.21071 1.96086 4 2.46957 4 3V17H6V3H18V1Z" fill="#FFFEFE"/>
</g>
<defs>
<filter id="filter0_d_53_858" x="-2" y="0" width="32" height="32" filterUnits="userSpaceOnUse" color-interpolation-filters="sRGB">
<feFlood flood-opacity="0" result="BackgroundImageFix"/>
<feColorMatrix in="SourceAlpha" type="matrix" values="0 0 0 0 0 0 0 0 0 0 0 0 0 0 0 0 0 0 127 0" result="hardAlpha"/>
<feOffset dy="4"/>
<feGaussianBlur stdDeviation="2"/>
<feComposite in2="hardAlpha" operator="out"/>
<feColorMatrix type="matrix" values="0 0 0 0 0 0 0 0 0 0 0 0 0 0 0 0 0 0 0.25 0"/>
<feBlend mode="normal" in2="BackgroundImageFix" result="effect1_dropShadow_53_858"/>
<feBlend mode="normal" in="SourceGraphic" in2="effect1_dropShadow_53_858" result="shape"/>
</filter>
</defs>
</svg>
