<svg width="30" height="30" viewBox="0 0 30 30" fill="none" xmlns="http://www.w3.org/2000/svg">
<path d="M17.7273 10.5938V8.34375C18.4773 7.90625 19.2443 7.57812 20.0284 7.35938C20.8125 7.14062 21.6364 7.03125 22.5 7.03125C23.0909 7.03125 23.6705 7.09375 24.2386 7.21875C24.8068 7.34375 25.3636 7.5 25.9091 7.6875V9.75C25.3636 9.46875 24.8125 9.25781 24.2557 9.11719C23.6989 8.97656 23.1136 8.90625 22.5 8.90625C21.6364 8.90625 20.8068 9.05469 20.0114 9.35156C19.2159 9.64844 18.4545 10.0625 17.7273 10.5938ZM17.7273 20.9062V18.6094C18.4773 18.1875 19.2443 17.8711 20.0284 17.6602C20.8125 17.4492 21.6364 17.3438 22.5 17.3438C23.0909 17.3438 23.6705 17.4062 24.2386 17.5312C24.8068 17.6562 25.3636 17.8125 25.9091 18V20.0625C25.3636 19.7812 24.8125 19.5703 24.2557 19.4297C23.6989 19.2891 23.1136 19.2188 22.5 19.2188C21.6364 19.2188 20.8068 19.3594 20.0114 19.6406C19.2159 19.9219 18.4545 20.3438 17.7273 20.9062ZM17.7273 15.75V13.5C18.4773 13.0625 19.2443 12.7344 20.0284 12.5156C20.8125 12.2969 21.6364 12.1875 22.5 12.1875C23.0909 12.1875 23.6705 12.25 24.2386 12.375C24.8068 12.5 25.3636 12.6562 25.9091 12.8438V14.9062C25.3636 14.625 24.8125 14.4141 24.2557 14.2734C23.6989 14.1328 23.1136 14.0625 22.5 14.0625C21.6364 14.0625 20.8068 14.2109 20.0114 14.5078C19.2159 14.8047 18.4545 15.2188 17.7273 15.75ZM7.09091 23.4375C8.30841 23.4375 9.49341 23.6328 10.6459 24.0234C11.7986 24.4141 12.9318 25 14.0455 25.7812V5.76562C13.0227 4.82812 11.9134 4.10156 10.7175 3.58594C9.52159 3.07031 8.31273 2.8125 7.09091 2.8125C6.22727 2.8125 5.38068 2.96094 4.55114 3.25781C3.72159 3.55469 2.88636 3.92188 2.04545 4.35938V24.7031C2.75 24.2656 3.55114 23.9453 4.44886 23.7422C5.34659 23.5391 6.22727 23.4375 7.09091 23.4375ZM16.0909 25.7812C17.2273 25 18.3409 24.4141 19.4318 24.0234C20.5227 23.6328 21.6818 23.4375 22.9091 23.4375C23.7727 23.4375 24.6648 23.5312 25.5852 23.7188C26.5057 23.9062 27.2955 24.1562 27.9545 24.4688V4.35938C27.1818 3.82812 26.3657 3.4375 25.5061 3.1875C24.6466 2.9375 23.7809 2.8125 22.9091 2.8125C21.6818 2.8125 20.4943 3.07031 19.3466 3.58594C18.1989 4.10156 17.1136 4.82812 16.0909 5.76562V25.7812ZM15.0682 30C13.9091 28.8125 12.6477 27.8984 11.2841 27.2578C9.92045 26.6172 8.52273 26.2969 7.09091 26.2969C6.26045 26.2969 5.44489 26.4375 4.6442 26.7188C3.84352 27 3.04545 27.3438 2.25 27.75C1.725 28.0938 1.21875 28.0469 0.73125 27.6094C0.24375 27.1719 0 26.5469 0 25.7344V4.03125C0 3.5625 0.0795455 3.13281 0.238636 2.74219C0.397727 2.35156 0.636364 2.04688 0.954545 1.82812C1.90909 1.20312 2.90216 0.742188 3.93375 0.445312C4.96557 0.148438 6.01795 0 7.09091 0C8.52273 0 9.91477 0.265625 11.267 0.796875C12.6193 1.32812 13.8864 2.14062 15.0682 3.23438C16.2273 2.14062 17.4716 1.32812 18.8011 0.796875C20.1307 0.265625 21.5 0 22.9091 0C23.9743 0 25.019 0.148438 26.0431 0.445312C27.0674 0.742188 28.0568 1.20312 29.0114 1.82812C29.3295 2.04688 29.5739 2.35156 29.7443 2.74219C29.9148 3.13281 30 3.5625 30 4.03125V25.7344C30 26.6059 29.7443 27.2692 29.233 27.7242C28.7216 28.1789 28.2159 28.1875 27.7159 27.75C26.9432 27.3125 26.1565 26.9609 25.3558 26.6953C24.5551 26.4297 23.7395 26.2969 22.9091 26.2969C21.4773 26.2969 20.1023 26.625 18.7841 27.2812C17.4659 27.9375 16.2273 28.8438 15.0682 30Z" fill="white"/>
</svg>
