<svg width="20" height="19" viewBox="0 0 20 19" fill="none" xmlns="http://www.w3.org/2000/svg">
<path d="M13.286 13.565C12.5853 14.7354 12.0949 15.5523 11.6715 16.1303C11.2463 16.7106 10.9804 16.9164 10.7829 17.0004C10.2827 17.2132 9.71734 17.2132 9.21709 17.0004C9.01964 16.9164 8.75374 16.7106 8.32851 16.1303C7.90505 15.5523 7.41471 14.7354 6.71397 13.565L3.11105 7.54746C2.37661 6.3208 1.86291 5.4608 1.53877 4.78379C1.21192 4.10113 1.15679 3.75747 1.1793 3.54208C1.23716 2.98854 1.52305 2.48415 1.96824 2.15016C2.14148 2.0202 2.46465 1.89097 3.21826 1.82071C3.96563 1.75104 4.96737 1.75 6.39708 1.75H13.6029C15.0326 1.75 16.0344 1.75104 16.7817 1.82071C17.5353 1.89097 17.8585 2.0202 18.0318 2.15016C18.4769 2.48415 18.7628 2.98854 18.8207 3.54208C18.8432 3.75747 18.7881 4.10113 18.4612 4.78379C18.1371 5.4608 17.6234 6.3208 16.8889 7.54746L13.286 13.565Z" fill="#40C9F3" stroke="white" stroke-width="2"/>
<path d="M10 2V7.86259V17" stroke="white" stroke-width="2"/>
</svg>
