<svg width="71" height="71" viewBox="0 0 71 71" fill="none" xmlns="http://www.w3.org/2000/svg">
  <g clip-path="url(#clip0_150_775)">
    <path
      d="M44.6667 18.4048C45.2224 19.2088 45.7795 20.3203 46.2875 22.1791C46.036 22.2564 45.756 22.3263 45.4528 22.3753C43.9074 22.6255 42.4988 22.2574 41.1465 21.2502C39.9934 20.3913 38.3619 20.6296 37.5034 21.783C36.6445 22.9361 36.8831 24.5673 38.0362 25.4261C40.5991 27.3349 43.557 28.0388 46.5902 27.4615C46.632 27.4535 46.6729 27.4451 46.7142 27.4367C46.5725 28.93 46.2079 30.5693 45.5308 32.3477C44.0397 31.5827 42.5053 30.9772 41.0201 30.3913C38.3322 29.3307 35.7933 28.329 33.5245 26.535C32.5253 25.745 31.4316 24.7589 30.3458 23.7161C31.889 21.5793 34.1037 17.7729 33.7819 13.8657C33.6639 12.4327 32.4066 11.3667 30.9735 11.4849C29.5404 11.6027 28.4745 12.8603 28.5926 14.2932C28.7442 16.1345 27.677 18.3123 26.6241 19.9312C24.8424 18.0324 23.5603 16.5554 23.5331 16.5241C22.5922 15.4371 20.9481 15.3186 19.8609 16.2595C18.7733 17.2009 18.6552 18.8447 19.5962 19.9319C19.8457 20.2201 25.7574 27.0315 30.2949 30.6193C33.1671 32.8902 36.3237 34.1357 39.109 35.2346C43.5634 36.9922 47.0539 38.3693 48.9244 43.1287C46.2468 42.146 42.6455 41.1569 38.4127 40.8163C36.828 40.6888 35.2033 40.5914 33.4832 40.4885C29.6813 40.261 25.6087 40.0171 22.0805 39.4107C22.5825 36.7279 22.2432 32.4034 17.5246 27.3751C16.5407 26.3266 14.893 26.2743 13.8446 27.2582C12.7958 28.2427 12.7438 29.8897 13.7276 30.9382C16.7502 34.159 17.1585 36.6413 17.0235 38.0776C16.1061 37.7086 15.3 37.2775 14.638 36.7701C13.4967 35.8954 11.8628 36.1087 10.9879 37.2528C10.1133 38.394 10.3294 40.0282 11.4706 40.9029C15.7851 44.2095 22.8507 45.0138 30.0723 45.4937C28.2672 47.7896 25.6409 50.3425 23.0403 50.5206C21.6023 50.619 20.517 51.8677 20.6215 53.3069C20.7269 54.7578 22.0537 55.823 23.5037 55.7075C26.7768 55.4467 30.0086 53.5213 33.111 49.9833C33.2352 49.8416 33.3564 49.7004 33.4752 49.5595C34.6949 48.1117 35.6157 46.7301 36.149 45.8713C36.7757 45.9134 37.3909 45.9576 37.9951 46.0063C45.8571 46.6391 51.2701 49.9002 51.3179 49.9294C52.1723 50.4583 53.2547 50.4482 54.0991 49.9036C54.3202 49.7609 54.5147 49.5884 54.679 49.3933C55.142 48.8436 55.3653 48.1161 55.2698 47.3807C55.0602 45.7646 54.7553 44.3193 54.3715 43.0202C55.0423 42.5493 55.9888 41.8099 56.8909 40.8442C57.0552 40.6683 57.2102 40.4936 57.3569 40.3194C59.9115 37.2871 59.8761 34.5189 59.3658 32.6908C58.9791 31.3058 57.5429 30.4966 56.1581 30.8833C54.7731 31.2698 53.964 32.7061 54.3506 34.091C54.7735 35.6057 53.3359 37.1643 52.1791 38.1316C51.4947 37.0741 50.7321 36.1714 49.9142 35.389C52.8929 28.5167 52.1381 23.0304 50.9152 19.5567C50.3378 17.9167 49.6143 16.5747 48.9416 15.5433C48.0336 14.1511 46.0588 13.9818 44.919 15.1916C44.0908 16.0708 43.9801 17.4112 44.6667 18.4048Z"
      fill="#DA00FF" />
    <path
      d="M55.4408 50.0348C55.2102 50.3086 54.9404 50.5459 54.6391 50.7403C53.4778 51.4892 51.9685 51.5032 50.7938 50.776C50.7488 50.7489 45.4701 47.6069 37.9154 46.9988C37.5295 46.9679 37.1191 46.937 36.6724 46.9055C36.026 47.9034 35.0703 49.2593 33.8602 50.6397C30.5813 54.3791 27.1236 56.418 23.5831 56.7002C22.6038 56.7782 21.614 56.4553 20.8674 55.8144C20.1369 55.1872 19.6969 54.3224 19.6284 53.379C19.5584 52.417 19.8694 51.4824 20.5005 50.7581C21.1328 50.0298 22.0107 49.5926 22.9727 49.5268C24.7822 49.403 26.6536 47.831 28.035 46.3475C21.5377 45.8495 15.0814 44.9248 10.865 41.6934C9.28978 40.4859 8.99044 38.2222 10.1977 36.6469C10.7827 35.8836 11.6271 35.394 12.5796 35.2674C13.5335 35.1408 14.4799 35.3936 15.2443 35.9795C15.4436 36.1323 15.6633 36.2806 15.9024 36.4238C15.6193 35.2271 14.854 33.5933 13.0018 31.6197C11.644 30.1728 11.7154 27.8909 13.1634 26.5319C14.6106 25.1737 16.8931 25.2462 18.2514 26.6934C22.693 31.4265 23.4775 35.6302 23.2015 38.582C26.441 39.0691 30.0463 39.2849 33.5432 39.4942C35.2718 39.5977 36.8998 39.6952 38.4931 39.8234C41.3472 40.0531 44.1748 40.5866 46.9283 41.4135C45.1022 38.67 42.331 37.5763 38.7445 36.1613C35.8944 35.0366 32.6651 33.7625 29.6778 31.4005C25.0656 27.7535 19.0955 20.8747 18.8437 20.5835C17.5449 19.0828 17.7087 16.8056 19.2099 15.5062C20.7105 14.2075 22.9881 14.3717 24.287 15.8721C24.3301 15.9219 25.1893 16.9102 26.4525 18.2824C27.282 16.7657 27.6855 15.4055 27.6007 14.3747C27.5221 13.4204 27.8184 12.4924 28.4351 11.7603C28.4376 11.7574 28.44 11.7545 28.4424 11.7517C29.0642 11.0183 29.9343 10.5708 30.8926 10.4921C31.8506 10.413 32.7822 10.712 33.5156 11.3338C34.249 11.9555 34.6963 12.8257 34.7753 13.7839C35.0812 17.4989 33.3521 21.0552 31.6534 23.5827C32.5777 24.4479 33.413 25.1763 34.143 25.7535C36.2962 27.4561 38.7682 28.4316 41.3854 29.4642C42.5587 29.9272 43.7628 30.4022 44.9624 30.9612C45.2163 30.1689 45.4127 29.3833 45.5499 28.61C42.6694 28.8606 39.8886 28.0468 37.4419 26.2247C36.6708 25.6504 36.1696 24.8102 36.0303 23.8588C35.8912 22.9074 36.1309 21.9588 36.7053 21.1877C37.2779 20.4175 38.1193 19.9151 39.0711 19.776C40.0225 19.6369 40.9711 19.8767 41.7422 20.4511C42.8011 21.2397 43.8497 21.5536 45.0211 21.4285C44.6845 20.4253 44.3035 19.6298 43.848 18.9707C42.9023 17.6022 43.0471 15.7265 44.1947 14.5083C44.9504 13.706 46.0137 13.302 47.1118 13.3996C48.206 13.497 49.1772 14.0799 49.7765 14.9987C50.6282 16.3044 51.3277 17.7265 51.8554 19.2255C53.0763 22.6936 53.9059 28.2358 51.0923 35.1572C51.5357 35.6196 51.9528 36.1098 52.3408 36.6244C53.1776 35.7487 53.5565 34.9479 53.3919 34.3586C53.1333 33.4324 53.251 32.4611 53.723 31.6234C54.195 30.7858 54.965 30.1819 55.8911 29.9237C56.8169 29.6652 57.7882 29.7828 58.6258 30.2548C59.4635 30.7267 60.0673 31.4967 60.3258 32.4227C60.8921 34.4508 60.9689 37.5784 58.1194 40.9608C57.9609 41.149 57.7926 41.3386 57.6195 41.5239C56.8916 42.3031 56.1372 42.9423 55.5171 43.4156C55.8339 44.6114 56.0826 45.8986 56.2583 47.2524C56.3871 48.2507 56.0895 49.2648 55.4408 50.0348ZM35.3875 45.2295C35.5899 44.9892 35.8967 44.8562 36.2159 44.8775C36.9084 44.9239 37.5167 44.9684 38.0751 45.0134C46.166 45.6646 51.7815 49.0452 51.8373 49.0793C52.3669 49.4071 53.0409 49.4008 53.5594 49.0663C53.6941 48.9794 53.8146 48.8735 53.9174 48.7515C54.2071 48.4076 54.3401 47.9546 54.2822 47.5089C54.0863 45.9992 53.7952 44.584 53.4163 43.3023C53.2951 42.8923 53.4489 42.4508 53.7992 42.2048C54.4056 41.7792 55.3079 41.0796 56.1631 40.1642C56.313 40.0037 56.4584 39.8399 56.5952 39.6775C58.8841 36.9605 58.8436 34.5241 58.4065 32.9585C58.2909 32.545 58.0214 32.2012 57.6473 31.9905C57.2732 31.7797 56.8394 31.7272 56.4259 31.8427C56.0123 31.9582 55.6685 32.2278 55.4578 32.6017C55.2471 32.9758 55.1945 33.4098 55.31 33.8233C55.7526 35.4081 54.891 37.1621 52.8181 38.8958C52.5993 39.0788 52.3125 39.1592 52.0304 39.1165C51.7482 39.0739 51.498 38.9123 51.343 38.6729C50.7356 37.7344 50.0233 36.8716 49.2258 36.1089C48.9247 35.8207 48.8348 35.3755 49.0005 34.9931C51.8706 28.3714 51.115 23.1238 49.9758 19.8877C49.5009 18.5387 48.8724 17.2602 48.1076 16.0876C47.8441 15.6836 47.4166 15.4273 46.9346 15.3845C46.4488 15.3413 45.9784 15.52 45.6443 15.8748C45.1368 16.4134 45.0714 17.2383 45.4863 17.8388C46.2172 18.8966 46.7772 20.1924 47.2484 21.9169C47.3903 22.4359 47.0944 22.9737 46.5801 23.1316C46.2582 23.2306 45.9326 23.3069 45.6121 23.3587C43.8122 23.6501 42.1096 23.2096 40.5517 22.0493C40.2072 21.7927 39.7836 21.6856 39.3587 21.7478C38.9339 21.8099 38.5574 22.0349 38.3027 22.3779C38.0459 22.7225 37.9389 23.1461 38.0011 23.571C38.0632 23.9958 38.2871 24.3711 38.6316 24.6274C40.9648 26.3653 43.6526 27.007 46.4044 26.4832C46.4315 26.478 46.4586 26.4724 46.4855 26.4671L46.5171 26.4607C46.8261 26.3982 47.1465 26.4858 47.3808 26.6968C47.6152 26.9078 47.7357 27.2171 47.7059 27.5311C47.5463 29.2134 47.1278 30.9534 46.4618 32.7023C46.361 32.9669 46.1524 33.1763 45.8878 33.2777C45.6234 33.3792 45.3283 33.3633 45.0763 33.234C43.6286 32.4913 42.1167 31.8948 40.6546 31.318C37.8957 30.2293 35.2909 29.2015 32.9068 27.3165C31.9679 26.574 30.874 25.6044 29.6561 24.4347C29.2979 24.0908 29.2478 23.5357 29.5384 23.1333C30.882 21.2729 33.0907 17.606 32.7894 13.9477C32.7541 13.5197 32.5544 13.1312 32.2269 12.8535C31.8995 12.5759 31.4834 12.4424 31.0556 12.4776C30.6275 12.5128 30.239 12.7125 29.9614 13.04C29.9603 13.0413 29.9592 13.0426 29.9581 13.0439C29.6826 13.3709 29.5503 13.7852 29.5853 14.2115C29.7662 16.4074 28.5288 18.8293 27.4592 20.4742C27.2925 20.7309 27.0171 20.8964 26.7123 20.9234C26.4075 20.9505 26.1073 20.836 25.8979 20.6128C24.1329 18.732 22.8361 17.2406 22.7818 17.178C22.2001 16.506 21.183 16.4327 20.513 17.0127C19.8424 17.593 19.7695 18.6099 20.3495 19.2801C20.5963 19.5654 26.4465 26.3066 30.9128 29.8381C33.6695 32.0176 36.7534 33.2345 39.4744 34.308C43.9544 36.0757 47.8228 37.6021 49.8515 42.7643C49.995 43.1294 49.9097 43.5463 49.6367 43.8249C49.3626 44.1053 48.9494 44.1988 48.5812 44.0637C45.2702 42.8483 41.8222 42.0897 38.333 41.8089C36.7601 41.6824 35.1418 41.5855 33.4287 41.4829C29.5264 41.2494 25.4962 41.0082 21.912 40.3922C21.6491 40.3471 21.4154 40.1983 21.2632 39.9793C21.1109 39.7605 21.0528 39.4896 21.1017 39.2273C21.5704 36.7226 21.2043 32.7515 16.7984 28.0566C16.1919 27.4103 15.1726 27.3779 14.5263 27.9844C13.8799 28.5913 13.8477 29.6104 14.4541 30.2567C17.6883 33.7029 18.1757 36.4627 18.0154 38.1709C17.9859 38.484 17.8106 38.7645 17.542 38.9282C17.2735 39.0919 16.9436 39.119 16.6519 39.0018C15.6191 38.5862 14.7377 38.1014 14.0322 37.5606C13.6905 37.2987 13.2677 37.1856 12.8415 37.2422C12.4169 37.2985 12.0394 37.5184 11.7792 37.858C11.2395 38.5622 11.3731 39.5733 12.0766 40.1126C16.2781 43.3326 23.6028 44.0657 30.1384 44.5001C30.507 44.5246 30.8317 44.7511 30.9821 45.0887C31.1325 45.426 31.0837 45.8192 30.8553 46.1096C29.0074 48.46 26.1634 51.3053 23.1084 51.5145C22.6787 51.5439 22.2866 51.7392 22.0044 52.0644C21.7227 52.387 21.5837 52.8053 21.615 53.2349C21.6448 53.645 21.84 54.0244 22.1648 54.3032C22.5115 54.6009 22.9706 54.751 23.4247 54.7148C26.4302 54.4754 29.4371 52.6626 32.3621 49.3268C33.7018 47.7984 34.7129 46.296 35.3029 45.3461C35.3285 45.3047 35.3569 45.2658 35.3875 45.2295Z"
      fill="#4C0059" />
    <path
      d="M33.2605 43.8753C33.0546 44.1197 32.7349 44.2608 32.3931 44.2246L28.1401 43.7737C27.593 43.7158 27.1966 43.2253 27.2546 42.6782C27.3127 42.1313 27.803 41.7347 28.3501 41.7927L32.6031 42.2436C33.1502 42.3015 33.5466 42.792 33.4886 43.3391C33.4668 43.5443 33.3843 43.7284 33.2605 43.8753Z"
      fill="#4C0059" />
    <path
      d="M25.6351 43.0669C25.4291 43.3113 25.1094 43.4524 24.7677 43.4162L23.5179 43.2837C22.9708 43.2258 22.5744 42.7353 22.6324 42.1882C22.6905 41.6414 23.1808 41.2447 23.7279 41.3027L24.9777 41.4352C25.5248 41.4931 25.9212 41.9836 25.8632 42.5307C25.8414 42.736 25.7588 42.92 25.6351 43.0669Z"
      fill="#4C0059" />
  </g>
  <defs>
    <clipPath id="clip0_150_775">
      <rect width="50" height="50" fill="white" transform="translate(0 38.2393) rotate(-49.8878)" />
    </clipPath>
  </defs>
</svg>