<svg width="71" height="71" viewBox="0 0 71 71" fill="none" xmlns="http://www.w3.org/2000/svg">
  <g transform="rotate(55 33 33)">
    <path
      d="M18.197 46.9858L18.2542 47.4615L18.197 46.9858C13.5424 47.5458 10.0303 44.7706 8.67335 42.2021C8.33649 41.5644 8.14352 40.959 8.09111 40.4402C8.0385 39.9194 8.12968 39.5204 8.31568 39.2467C8.65475 38.7476 9.56886 38.3668 11.5971 39.0396C18.2559 41.2482 23.1606 41.2278 26.4227 40.6361C28.0521 40.3406 29.2664 39.9034 30.08 39.5351C30.4867 39.351 30.7929 39.1843 31.0007 39.0613C31.0104 39.0555 31.0198 39.0499 31.0291 39.0443L32.865 40.268C32.7143 40.4111 32.5233 40.5867 32.293 40.7875C31.6304 41.3652 30.6436 42.1508 29.355 42.9734C26.7771 44.619 22.9994 46.408 18.197 46.9858Z"
      fill="#FF3131" stroke="#970000" />
    <path
      d="M18.9917 23.2082L18.9918 23.2082C24.3426 29.822 30.2568 34.6532 41.7968 38.8385L41.7968 38.8385C48.6186 41.3124 53.91 45.6008 57.0379 48.6209C56.5648 49.0581 56.3413 49.2647 56.1178 49.4713C55.7796 49.7839 55.4413 50.0966 54.2385 51.2087C46.0169 46.2074 40.6522 44.6356 35.4929 43.398C34.9057 43.2571 34.3219 43.1207 33.7373 42.9841C29.1466 41.9116 24.5111 40.8285 17.8549 37.4984C13.8771 35.5082 11.7367 33.2197 10.7891 31.0562C9.84456 28.8998 10.0602 26.8142 10.8972 25.1541C11.7405 23.4815 13.2056 22.2575 14.7333 21.8278C16.2351 21.4054 17.8052 21.7415 18.9917 23.2082Z"
      fill="#FF0B0B" stroke="#970000" />
    <path
      d="M18.9917 23.2081L18.9918 23.2082C24.3426 29.8219 30.2568 34.6531 41.7968 38.8384L41.7968 38.8385C48.6186 41.3123 53.91 45.6007 57.0379 48.6208L56.389 49.2205C54.0587 47.0255 50.0047 43.7554 45.2383 42.2904C37.9252 40.0426 26.6146 33.5807 20.5599 28.0216C17.1557 24.896 13.4605 24.8118 10.775 25.4091C11.5065 23.7973 12.8177 22.5563 14.2462 21.9923C15.8968 21.3406 17.683 21.5903 18.9917 23.2081Z"
      fill="#FF3131" stroke="#970000" />
    <path
      d="M50.7695 31.9421C51.8756 36.7594 51.8316 41.4861 50.8557 44.3146L49.1756 43.2975C49.1596 43.2781 49.1387 43.2519 49.1132 43.2184C49.0387 43.1202 48.9253 42.9591 48.7844 42.7223C48.5025 42.2488 48.11 41.4719 47.697 40.2891C46.497 36.8478 44.1986 31.653 40.0823 26.5639C38.3655 24.437 37.2802 22.5089 36.7285 20.9175C36.1701 19.3071 36.1843 18.1224 36.531 17.4129C36.6985 17.0701 36.9473 16.8273 37.2752 16.6796C37.6098 16.5289 38.0575 16.464 38.6323 16.5374C39.7923 16.6856 41.3787 17.3864 43.3222 18.8519C47.1453 21.7347 49.5921 26.8141 50.7695 31.9421Z"
      fill="#FF0B0B" stroke="#970000" />
    <path
      d="M48.6188 42.9057C48.5005 42.5739 48.3439 42.1325 48.1459 41.5699C48.3696 41.6547 48.5882 41.709 48.8012 41.731C49.4175 41.7948 49.9427 41.5829 50.3387 41.1647C50.7162 40.7659 50.9559 40.2036 51.0995 39.577C51.2446 38.9438 51.301 38.2033 51.2806 37.4043C51.1993 34.2315 49.8931 29.8569 47.5315 26.9824L47.5315 26.9824C45.5559 24.5781 43.653 23.8249 42.0145 23.9043C40.712 23.9675 39.6618 24.5541 38.9652 25.086C37.7007 23.2896 36.9184 21.677 36.5458 20.3446C36.1387 18.8888 36.2419 17.8528 36.6201 17.2512C36.9683 16.6972 37.6427 16.3752 38.775 16.5583C39.9226 16.7437 41.4589 17.4468 43.3222 18.8518C47.1453 21.7346 49.5921 26.814 50.7695 31.9421C51.8847 36.7988 51.8308 41.5636 50.8316 44.3837L48.8335 43.5045C48.7862 43.3735 48.7152 43.176 48.6188 42.9057Z"
      fill="#FF3131" stroke="#970000" />
    <path
      d="M24.9874 21.7681C23.8403 19.9209 23.4162 18.3633 23.4412 17.2042C23.4661 16.0484 23.9287 15.3263 24.5317 15.0041C25.1395 14.6792 26.0338 14.6835 27.0776 15.2885C28.1205 15.8928 29.272 17.0814 30.2981 19.0207L30.2982 19.0207C32.4057 23.0027 34.9001 28.1746 36.8697 32.3557C37.854 34.4453 38.7064 36.2856 39.3127 37.6034C39.57 38.1626 39.7829 38.6277 39.9428 38.9778L38.4021 38.9171C34.3808 34.48 28.2838 27.0754 24.9874 21.7681ZM24.9874 21.7681L24.5626 22.0319M24.9874 21.7681L24.5626 22.0319M24.5626 22.0319C19.84 14.4263 26.5151 10.8024 30.7401 18.7868C34.4646 25.824 39.3861 36.5514 40.5024 38.9999L38.1729 39.4085C34.147 34.9822 27.9214 27.4396 24.5626 22.0319Z"
      fill="#FF0B0B" stroke="#970000" />
    <path
      d="M54.1712 23.5093L54.1712 23.5093C55.3734 22.5212 56.2488 22.3689 56.743 22.5518C57.198 22.7203 57.6054 23.2919 57.5864 24.4962C57.5495 26.8348 55.85 30.9018 51.2583 35.6068L51.1082 35.5157C50.9297 34.3352 50.6177 33.0791 50.1797 31.8479C50.5616 28.6322 51.7554 25.4944 54.1712 23.5093Z"
      fill="#FF0B0B" stroke="#970000" />
    <path
      d="M28.4936 47.8204L28.4936 47.8204C29.3159 48.4135 30.1315 49.0885 30.9792 49.7902C31.5528 50.265 32.1412 50.752 32.7564 51.2341C34.2464 52.4016 35.8432 53.4949 37.5571 54.0786C39.2897 54.6687 41.1412 54.7374 43.1066 53.8624C44.9875 53.0252 46.9294 51.3431 48.9684 48.5295L50.5066 49.0446C50.4666 49.1106 50.4242 49.1812 50.3796 49.2556C50.3622 49.2846 50.3444 49.3143 50.3262 49.3447C50.0712 49.7704 49.7354 50.3309 49.3194 50.9752C48.4273 52.357 47.1749 54.1111 45.5983 55.6949C44.0198 57.2807 42.1378 58.6743 39.9904 59.3678C37.8572 60.0568 35.4346 60.0647 32.7325 58.8381C27.2221 56.3368 25.0562 52.5084 24.8565 49.9034C24.755 48.5798 25.1561 47.6716 25.7326 47.2863C26.2745 46.9242 27.1967 46.8851 28.4936 47.8204Z"
      fill="#FF0B0B" stroke="#970000" />
  </g>
</svg>