<svg id="Слой_1" data-name="Слой 1" xmlns="http://www.w3.org/2000/svg" viewBox="0 0 370.73 168.25">
  <defs>
    <style>
      .cls-1 {
        fill: #1d1d1b;
        stroke: #1d1d1b;
        stroke-miterlimit: 10;
      }
    </style>
  </defs>
  <path class="cls-1"
    d="M428.6,397.73c0,3.39-.45,8.77-7.61,18.21-37.8,49.76-129.09,43-151.86,41.26C151,448.39,113.84,409,112,405.83a18.09,18.09,0,0,1-2.37-8.1,15.49,15.49,0,0,1,1.56-6.75c22.88-17.58,65.24-44.65,123.69-51.34a243.16,243.16,0,0,1,34.21-1.37C366.89,339.9,428.6,386.68,428.6,397.73Z"
    transform="translate(-109.17 -304.97)" />
  <path class="cls-1"
    d="M193.74,358.25a43.74,43.74,0,0,1,13.76-26.69,49,49,0,0,1,12.6-8.33c8.77-3.56,90.25-35.7,130-3.72a56.85,56.85,0,0,1,4.34,3.93,48.27,48.27,0,0,1,5.34,6.41c5.41,8.3-24.43,43.29-23,44.72.45.44,4.06-2.09,16.25-13.19Z"
    transform="translate(-109.17 -304.97)" />
  <path class="cls-1"
    d="M418.81,398.26c-11.12-18.55-9.16-41.52,4.17-56.24,17.37-19.19,49.06-18.81,55.14-9,9.12,14.71-33.23,60.69-37,64.81-1,1.07-1.81,1.95-2.41,2.57"
    transform="translate(-109.17 -304.97)" />
  <path class="cls-1"
    d="M418.84,399.4c-12.52,19.33-10.14,44.8,4.83,60.18,13,13.35,33.33,17,50.86,8.81-9.16-30.83-22.2-52.91-35.19-68.87-.75-.92-1.5-1.82-2.26-2.72"
    transform="translate(-109.17 -304.97)" />
</svg>