<svg id="Слой_1" data-name="Слой 1" xmlns="http://www.w3.org/2000/svg" viewBox="0 0 189.7 766">
  <defs>
    <style>
      .cls-1 {
        fill: #c6c6c6;
      }

      .cls-1,
      .cls-2 {
        stroke: #9d9d9c;
        stroke-miterlimit: 10;
        stroke-width: 2px;
      }

      .cls-2 {
        fill: #b2b2b2;
      }

      .cls-3 {
        fill: #017c4f;
      }

      .cls-4 {
        fill: #046942;
      }

      .cls-5 {
        fill: #06a76e;
      }

      .cls-6 {
        fill: #04915e;
      }

      .cls-7 {
        fill: #e57e25;
      }

      .cls-8 {
        fill: #f0c418;
      }

      .cls-9 {
        fill: #ffd521;
      }

      .cls-10 {
        fill: #f7a728;
      }

      .cls-11 {
        fill: #de324c;
      }

      .cls-12 {
        fill: #ea5060;
      }

      .cls-13 {
        fill: #f49b4f;
      }

      .cls-14 {
        opacity: 0.5;
      }

      .cls-15 {
        fill: #1d1d1b;
      }
    </style>
  </defs>
  <rect class="cls-1" x="29.85" y="61" width="130" height="644" />
  <rect class="cls-1" x="13.85" y="31" width="162" height="30" rx="2.99" />
  <rect class="cls-1" x="1" y="1" width="187.7" height="30" rx="2.57" />
  <rect class="cls-1" x="13.85" y="705" width="162" height="30" rx="4.55" />
  <rect class="cls-1" x="1" y="735" width="187.7" height="30" rx="4.77" />
  <rect class="cls-2" x="30.61" y="80.06" width="14.4" height="606" rx="6.9" />
  <rect class="cls-2" x="57.7" y="80.06" width="14.4" height="606" rx="6.9" />
  <rect class="cls-2" x="87.3" y="80.06" width="14.4" height="606" rx="6.9" />
  <rect class="cls-2" x="116.9" y="80.06" width="14.4" height="606" rx="6.9" />
  <rect class="cls-2" x="145.45" y="80.06" width="14.4" height="606" rx="6.9" />
  <path class="cls-3"
    d="M364,107.82c.06-2-.2-2.09-.18-4.21,0-2.5.4-3.34-.21-4a3,3,0,0,0-2.64-.39,5.23,5.23,0,0,1-.82.12,6.13,6.13,0,0,1-1.31-.09c-.8-.11-.75,0-1.84-.14,0,0-.76-.07-1.72-.22A33,33,0,0,1,349,97.43c-16.57-5.29-31,12.85-34.52,17.66-.19.27.08.76.35.65,4-1.6,18.12-6.4,34.21-2.17a19.43,19.43,0,0,0,14.49-2A21.87,21.87,0,0,0,364,107.82Z"
    transform="translate(-202.79 -37.94)" />
  <path class="cls-4"
    d="M364,107.82c0-.86-.05-1.18-.11-2.38,0-.53-.06-1.29-.06-2.23-5.76,2.43-10.42,3.22-12.17,3.22a21.65,21.65,0,0,1-4-.42l-.83-.2a54.8,54.8,0,0,0-23-.88,62.61,62.61,0,0,0-9.28,10.16c-.19.27.08.76.35.65,4-1.6,18.12-6.4,34.21-2.17a19.43,19.43,0,0,0,14.49-2c.1-.5.21-1.13.3-1.86C363.88,109.28,364,108.63,364,107.82Z"
    transform="translate(-202.79 -37.94)" />
  <path class="cls-5"
    d="M331.3,648.24c-6.32,9-23.07,26.38-57.06,24.74-18.35-.88-32.47,4.32-42.81,10.85.18,6-.51,12.24-.31,18.23.16,4.51.51,9.17.28,13.67,0,.21,0,.42-.05.63a5.49,5.49,0,0,1-.06,1.46,5.64,5.64,0,0,1,.2,1.59,1.92,1.92,0,0,1,.12.25c6.18-13.43,19.68-32.16,46.87-31.64,35.29.69,49.37-26.25,54-38.73C332.74,648.57,331.71,647.65,331.3,648.24Z"
    transform="translate(-202.79 -37.94)" />
  <path class="cls-6"
    d="M331.3,648.24c-6.32,9-23.07,26.38-57.06,24.74-18.35-.88-32.47,4.32-42.81,10.85.1,3.38-.07,6.81-.21,10.22,10.6-7.91,26.18-15,47.41-14,18.94.91,32.52-4.09,41.93-10.25a68.07,68.07,0,0,0,11.91-20.49C332.74,648.57,331.71,647.65,331.3,648.24Z"
    transform="translate(-202.79 -37.94)" />
  <path class="cls-5"
    d="M230.54,148.26a16.45,16.45,0,0,1,0,4.55c-.22,1.61-.57,2.35-.83,4.14a20,20,0,0,0-.17,4c5-1.08,13.57-1.32,21.34-6.83,27.59-19.6,37.33-21.56,60.92-8.82.31.17.56-.4.31-.71-5.59-6.84-30.18-33.25-59.43-9.22C244.47,142.18,237,146.14,230.54,148.26Z"
    transform="translate(-202.79 -37.94)" />
  <path class="cls-6"
    d="M229.75,148.58c0,.51,0,1.28,0,2.2s0,1.61-.06,2.24c0,.88-.06,2.15,0,3.73,6.2-3.65,13.85-8.08,22.68-13.07,13-7.34,17.3-9.63,23.5-9.87a35.94,35.94,0,0,1,17.71,4.13c5.4,1.11,11.2,3.6,18.23,7.39.31.17.56-.4.31-.71-3.29-4-17.35-20.31-35.92-19.1a42.32,42.32,0,0,0-13,3.19,43,43,0,0,0-10.5,6.69A91.07,91.07,0,0,1,229.75,148.58Z"
    transform="translate(-202.79 -37.94)" />
  <path class="cls-5"
    d="M362.13,289.79c-.62-3.16-.41-4.67-.05-5.46a5.21,5.21,0,0,0,.65-1.58,5.89,5.89,0,0,0,.12-1.63c0-.71,0-1.7.06-3A100.35,100.35,0,0,0,340.08,284c-19.84,7.64-23.71,15.47-35.3,15.45-7.43,0-14.79-3-24.6-8.72-.3-.17-.57.38-.33.69,3.75,4.94,16.69,20,34.51,19.92,4.88,0,11.1-3.14,23.35-9C348,297.45,356.3,293,362.13,289.79Z"
    transform="translate(-202.79 -37.94)" />
  <path class="cls-6"
    d="M362.8,289.42c0-.62,0-1.71,0-2.34,0-2,0-2.56,0-2.9,0-.61,0-1.43,0-2.4-10.88,5.42-19.32,9.79-24.54,12.52-11.85,6.19-16.39,8.92-23.35,9a35.19,35.19,0,0,1-17.52-4.82c-5.15-1.29-10.64-3.89-17.24-7.76-.3-.17-.57.38-.33.69,3.75,4.94,16.69,20,34.51,19.92,2,0,5.53-.44,23.35-9C348.43,297.2,357,292.6,362.8,289.42Z"
    transform="translate(-202.79 -37.94)" />
  <path class="cls-3"
    d="M321,450.14c-8.08-4.86-44.19-24.06-65.79,6.83-8.13,11.62-16.62,18-24.35,21.29.09,1.87.1,3.73,0,5.59a19.14,19.14,0,0,1,0,3.3c0,.34,0,.69,0,1,9.95.47,20.85-2.3,29.55-12.87,21.44-26,30.86-30.46,60.51-24.49C321.27,450.89,321.31,450.35,321,450.14Z"
    transform="translate(-202.79 -37.94)" />
  <path class="cls-4"
    d="M321,450.14c-8.08-4.86-44.19-24.06-65.79,6.83-8.12,11.62-16.62,18-24.35,21.29q.13,2.83,0,5.64a20.86,20.86,0,0,1,0,2.5,47.88,47.88,0,0,0,13.1-6.89,68.06,68.06,0,0,0,14.79-15.73c13.2-18.87,31.81-19,46.14-15.22a113.88,113.88,0,0,1,16,2.26C321.27,450.89,321.31,450.34,321,450.14Z"
    transform="translate(-202.79 -37.94)" />
  <path class="cls-5"
    d="M363.46,568a33.33,33.33,0,0,1-12.88-10c-10.39-12.74-30.63-4.19-35.71-1.75-.28.14-.32.7,0,.74a48.78,48.78,0,0,1,27.85,15c1.37,1.5,3.44,2.73,6.52,4,4.45,1.81,11.55,3.11,13.58.08.38-.56.9-1.74.25-4.1a5.62,5.62,0,0,0,.28-1.8,10.38,10.38,0,0,1,0-1.45A6.63,6.63,0,0,1,363.46,568Z"
    transform="translate(-202.79 -37.94)" />
  <path class="cls-6"
    d="M363.28,569a59.08,59.08,0,0,1-35.88-17,56.66,56.66,0,0,0-12.53,4.26c-.28.14-.32.7,0,.74a48.78,48.78,0,0,1,27.85,15,14.23,14.23,0,0,0,3.95,3.2c5.54,3.29,11.89,2.91,16.63,2,0-1.25.07-2.54.07-3.85C363.34,571.82,363.32,570.38,363.28,569Z"
    transform="translate(-202.79 -37.94)" />
  <path class="cls-6" d="M232.16,157.35" transform="translate(-202.79 -37.94)" />
  <path class="cls-6" d="M363.3,568.25" transform="translate(-202.79 -37.94)" />
  <path class="cls-7"
    d="M321.92,370.34l2.58,7.42a2.3,2.3,0,0,1-.81,2.54l-6.58,5.16a2.14,2.14,0,0,0,1.32,3.91l8.25-.54a2.07,2.07,0,0,1,2.13,1.36l2.61,7.53a2.05,2.05,0,0,0,2.78,1.21,2.57,2.57,0,0,0,1.51-1.55l2.42-7.73a2.44,2.44,0,0,1,2.17-1.7l8.09-.52a2.51,2.51,0,0,0,2.28-2.38,1.9,1.9,0,0,0-.94-1.72L343,379a2.07,2.07,0,0,1-.82-2.39l2.49-7.9a2.13,2.13,0,0,0-3.48-2.2l-6.58,5.16a2.3,2.3,0,0,1-2.66.19l-6.6-4.27a2.35,2.35,0,0,0-3.11.63A2.21,2.21,0,0,0,321.92,370.34Z"
    transform="translate(-202.79 -37.94)" />
  <path class="cls-8"
    d="M325.21,370.94a.57.57,0,0,1-.81-.05h0l-.35-.45a.57.57,0,0,1,.14-.8.58.58,0,0,1,.81.05l.35.45a.57.57,0,0,1-.14.8Z"
    transform="translate(-202.79 -37.94)" />
  <path class="cls-8"
    d="M327,373.17a.59.59,0,0,1-.82-.06h0l-.35-.44a.6.6,0,0,1,.14-.81.59.59,0,0,1,.82.05l.35.45a.6.6,0,0,1-.14.81Z"
    transform="translate(-202.79 -37.94)" />
  <path class="cls-8" d="M328.7,375.39a.58.58,0,0,1-.81-.06h0l-.35-.44a.61.61,0,0,1,.95-.75l.35.44a.58.58,0,0,1-.14.81Z"
    transform="translate(-202.79 -37.94)" />
  <path class="cls-8" d="M330.45,377.61a.59.59,0,0,1-.82-.05h0l-.35-.45a.61.61,0,0,1,1-.75l.35.44a.6.6,0,0,1-.14.81Z"
    transform="translate(-202.79 -37.94)" />
  <path class="cls-8" d="M332.19,379.83a.57.57,0,0,1-.81-.05h0l-.34-.45a.61.61,0,0,1,1-.75l.35.45a.57.57,0,0,1-.14.8Z"
    transform="translate(-202.79 -37.94)" />
  <path class="cls-8"
    d="M319.89,386.92a.55.55,0,0,1-.24.12l-.58.15a.52.52,0,0,1-.68-.4.65.65,0,0,1,.49-.7h0l.58-.15a.51.51,0,0,1,.67.4A.61.61,0,0,1,319.89,386.92Z"
    transform="translate(-202.79 -37.94)" />
  <path class="cls-8"
    d="M322.8,386.16l-.24.12-.59.15a.53.53,0,0,1-.67-.4.64.64,0,0,1,.48-.7l.58-.15a.53.53,0,0,1,.68.39A.66.66,0,0,1,322.8,386.16Z"
    transform="translate(-202.79 -37.94)" />
  <path class="cls-8"
    d="M325.7,385.39a.55.55,0,0,1-.24.12l-.58.16a.52.52,0,0,1-.67-.4.64.64,0,0,1,.48-.71l.58-.15a.52.52,0,0,1,.67.4A.59.59,0,0,1,325.7,385.39Z"
    transform="translate(-202.79 -37.94)" />
  <path class="cls-8"
    d="M328.61,384.63a.6.6,0,0,1-.24.12l-.58.15a.52.52,0,0,1-.68-.4.66.66,0,0,1,.48-.7l.58-.15a.53.53,0,0,1,.68.4A.61.61,0,0,1,328.61,384.63Z"
    transform="translate(-202.79 -37.94)" />
  <path class="cls-8"
    d="M331.51,383.87a.9.9,0,0,1-.24.12l-.58.15a.52.52,0,0,1-.67-.4.63.63,0,0,1,.48-.7l.58-.15a.51.51,0,0,1,.67.39A.62.62,0,0,1,331.51,383.87Z"
    transform="translate(-202.79 -37.94)" />
  <path class="cls-8"
    d="M342,369.57a.59.59,0,0,1-.82-.06.54.54,0,0,1,0-.6l.28-.53a.65.65,0,0,1,.8-.3.53.53,0,0,1,.23.75l-.29.53A.68.68,0,0,1,342,369.57Z"
    transform="translate(-202.79 -37.94)" />
  <path class="cls-8"
    d="M340.56,372.21a.58.58,0,0,1-.81-.06.54.54,0,0,1,0-.6L340,371a.65.65,0,0,1,.8-.3.52.52,0,0,1,.22.75l-.28.53A.6.6,0,0,1,340.56,372.21Z"
    transform="translate(-202.79 -37.94)" />
  <path class="cls-8"
    d="M339.13,374.85a.58.58,0,0,1-.81-.05.54.54,0,0,1,0-.6l.29-.53a.64.64,0,0,1,.8-.3.52.52,0,0,1,.22.75l-.28.52A.72.72,0,0,1,339.13,374.85Z"
    transform="translate(-202.79 -37.94)" />
  <path class="cls-8"
    d="M337.7,377.49a.59.59,0,0,1-.82-.05.56.56,0,0,1,0-.6l.29-.53a.62.62,0,0,1,.79-.3.52.52,0,0,1,.23.75l-.28.53A1.12,1.12,0,0,1,337.7,377.49Z"
    transform="translate(-202.79 -37.94)" />
  <path class="cls-8"
    d="M336.27,380.13a.58.58,0,0,1-.82-.05.54.54,0,0,1,0-.6l.29-.53a.63.63,0,0,1,.79-.3.52.52,0,0,1,.23.75h0l-.29.53A.55.55,0,0,1,336.27,380.13Z"
    transform="translate(-202.79 -37.94)" />
  <path class="cls-8"
    d="M333.86,385.43a.58.58,0,0,1-.82-.05.48.48,0,0,1-.1-.31l0-.58a.66.66,0,0,1,.58-.63.5.5,0,0,1,.59.49l0,.58A.63.63,0,0,1,333.86,385.43Z"
    transform="translate(-202.79 -37.94)" />
  <path class="cls-8"
    d="M333.91,388.33a.58.58,0,0,1-.81-.05A.51.51,0,0,1,333,388v-.58a.65.65,0,0,1,.58-.63.5.5,0,0,1,.59.49v.58A.6.6,0,0,1,333.91,388.33Z"
    transform="translate(-202.79 -37.94)" />
  <path class="cls-8"
    d="M334,391.23a.57.57,0,0,1-.81-.06.46.46,0,0,1-.11-.3v-.58a.65.65,0,0,1,.57-.64.52.52,0,0,1,.6.49h0v.58A.63.63,0,0,1,334,391.23Z"
    transform="translate(-202.79 -37.94)" />
  <path class="cls-8"
    d="M334,394.13a.59.59,0,0,1-.82-.06.45.45,0,0,1-.1-.3l0-.58a.66.66,0,0,1,.58-.64.52.52,0,0,1,.6.5h0v.58A.64.64,0,0,1,334,394.13Z"
    transform="translate(-202.79 -37.94)" />
  <path class="cls-8"
    d="M334.08,397a.58.58,0,0,1-.81-.06.49.49,0,0,1-.11-.31v-.57a.66.66,0,0,1,.58-.64.5.5,0,0,1,.59.5v.58A.63.63,0,0,1,334.08,397Z"
    transform="translate(-202.79 -37.94)" />
  <path class="cls-8"
    d="M337.24,382.78a.62.62,0,0,1-.55.12l-.56-.15a.51.51,0,0,1-.34-.69.65.65,0,0,1,.76-.41l.56.15a.52.52,0,0,1,.34.7A.74.74,0,0,1,337.24,382.78Z"
    transform="translate(-202.79 -37.94)" />
  <path class="cls-8"
    d="M340,383.52a.62.62,0,0,1-.55.13l-.56-.15a.52.52,0,0,1-.34-.7.67.67,0,0,1,.76-.41l.56.15a.52.52,0,0,1,.34.7.65.65,0,0,1-.21.28Z"
    transform="translate(-202.79 -37.94)" />
  <path class="cls-8"
    d="M342.84,384.27a.63.63,0,0,1-.54.12l-.56-.15a.51.51,0,0,1-.35-.69.64.64,0,0,1,.75-.41h0l.56.15a.51.51,0,0,1,.34.69.66.66,0,0,1-.21.29Z"
    transform="translate(-202.79 -37.94)" />
  <path class="cls-8"
    d="M345.64,385a.6.6,0,0,1-.54.12l-.56-.15a.5.5,0,0,1-.34-.69.64.64,0,0,1,.75-.41l.56.15a.51.51,0,0,1,.34.7.58.58,0,0,1-.21.28Z"
    transform="translate(-202.79 -37.94)" />
  <path class="cls-8"
    d="M348.44,385.75a.64.64,0,0,1-.54.13l-.56-.15a.52.52,0,0,1-.34-.7.67.67,0,0,1,.75-.41l.56.15a.51.51,0,0,1,.34.7.58.58,0,0,1-.21.28Z"
    transform="translate(-202.79 -37.94)" />
  <path class="cls-9"
    d="M269.5,587.65l-.19,12.07a1,1,0,0,0,.43.87l9.56,6.63a1.08,1.08,0,0,1-.3,1.88l-11.21,4a1.11,1.11,0,0,0-.68.72l-3.52,11.65a1,1,0,0,1-1.83.36L255,616.18a1,1,0,0,0-.85-.42l-11.73.56a1,1,0,0,1-.83-1.66l7-9.91a1.11,1.11,0,0,0,.15-1l-3.73-11.3a1.09,1.09,0,0,1,1.31-1.39l11.1,3.5a1,1,0,0,0,.94-.19l9.43-7.54A1,1,0,0,1,269.5,587.65Z"
    transform="translate(-202.79 -37.94)" />
  <path class="cls-10"
    d="M264.22,596.35a.74.74,0,0,0-.83.15.79.79,0,0,0-.17.85.73.73,0,0,0,1.36-.14A.74.74,0,0,0,264.22,596.35Z"
    transform="translate(-202.79 -37.94)" />
  <path class="cls-10"
    d="M262.81,599.23a.74.74,0,0,0-.83.15.79.79,0,0,0-.17.85.73.73,0,0,0,1.36-.14A.74.74,0,0,0,262.81,599.23Z"
    transform="translate(-202.79 -37.94)" />
  <path class="cls-10" d="M267,590.59a.72.72,0,0,0-.82.15.75.75,0,0,0-.17.85.73.73,0,1,0,1-1Z"
    transform="translate(-202.79 -37.94)" />
  <path class="cls-10"
    d="M265.63,593.47a.74.74,0,0,0-.83.15.77.77,0,0,0-.16.85.72.72,0,0,0,1.35-.14A.74.74,0,0,0,265.63,593.47Z"
    transform="translate(-202.79 -37.94)" />
  <path class="cls-10"
    d="M261.39,602.11a.76.76,0,0,0-1,1,.69.69,0,0,0,.71.44.77.77,0,0,0,.66-.55A.73.73,0,0,0,261.39,602.11Z"
    transform="translate(-202.79 -37.94)" />
  <path class="cls-10" d="M275,606.88a.76.76,0,0,0-.66,1.24.7.7,0,0,0,.84.17.8.8,0,0,0,.43-.74A.71.71,0,0,0,275,606.88Z"
    transform="translate(-202.79 -37.94)" />
  <path class="cls-10"
    d="M262.37,606.73a.74.74,0,0,0,.85-.18.79.79,0,0,0,.14-.84.73.73,0,0,0-1.35.14A.75.75,0,0,0,262.37,606.73Z"
    transform="translate(-202.79 -37.94)" />
  <path class="cls-10" d="M268.68,607.57a.77.77,0,0,0,.68-1.22.73.73,0,0,0-1.28.48A.7.7,0,0,0,268.68,607.57Z"
    transform="translate(-202.79 -37.94)" />
  <path class="cls-10"
    d="M266.46,606.53a.7.7,0,0,0-1.16-.65.79.79,0,0,0-.24.83.69.69,0,0,0,.73.47A.75.75,0,0,0,266.46,606.53Z"
    transform="translate(-202.79 -37.94)" />
  <path class="cls-10"
    d="M272.56,607.32a.71.71,0,0,0-1.17-.66.79.79,0,0,0-.23.83.71.71,0,0,0,.73.48A.78.78,0,0,0,272.56,607.32Z"
    transform="translate(-202.79 -37.94)" />
  <path class="cls-10" d="M257,604a.69.69,0,0,0,.87.09.77.77,0,0,0,.36-.77.71.71,0,0,0-1.32-.24A.76.76,0,0,0,257,604Z"
    transform="translate(-202.79 -37.94)" />
  <path class="cls-10" d="M255,602a.77.77,0,0,0,1-1,.74.74,0,1,0-1,1Z" transform="translate(-202.79 -37.94)" />
  <path class="cls-10"
    d="M253.64,598.6a.75.75,0,0,0-1.24.61.71.71,0,0,0,.54.66.74.74,0,0,0,.79-.34A.78.78,0,0,0,253.64,598.6Z"
    transform="translate(-202.79 -37.94)" />
  <path class="cls-10"
    d="M249.28,594.26a.75.75,0,0,0-1.23.61.7.7,0,0,0,.54.66.74.74,0,0,0,.79-.35A.75.75,0,0,0,249.28,594.26Z"
    transform="translate(-202.79 -37.94)" />
  <path class="cls-10" d="M251.46,597.49a.73.73,0,0,0-.55-1.25.77.77,0,0,0-.4,1.35A.74.74,0,0,0,251.46,597.49Z"
    transform="translate(-202.79 -37.94)" />
  <path class="cls-10"
    d="M249.27,611.45a.72.72,0,0,0-1.33.15.73.73,0,0,0,.29.84.73.73,0,0,0,.87-.08A.78.78,0,0,0,249.27,611.45Z"
    transform="translate(-202.79 -37.94)" />
  <path class="cls-10" d="M246.52,613a.74.74,0,1,0-1.05,1,.71.71,0,0,0,.87-.09A.8.8,0,0,0,246.52,613Z"
    transform="translate(-202.79 -37.94)" />
  <path class="cls-10"
    d="M257.54,606.84a.72.72,0,0,0-1.33.15.73.73,0,0,0,.29.84.71.71,0,0,0,.87-.09A.77.77,0,0,0,257.54,606.84Z"
    transform="translate(-202.79 -37.94)" />
  <path class="cls-10"
    d="M254.78,608.37a.73.73,0,0,0-1.33.16.73.73,0,0,0,.29.84.73.73,0,0,0,.87-.09A.78.78,0,0,0,254.78,608.37Z"
    transform="translate(-202.79 -37.94)" />
  <path class="cls-10"
    d="M252,609.91a.73.73,0,0,0-1.34.15.75.75,0,0,0,.29.85.73.73,0,0,0,.87-.09A.78.78,0,0,0,252,609.91Z"
    transform="translate(-202.79 -37.94)" />
  <path class="cls-10"
    d="M260,608.05a.76.76,0,0,0-.26,1.38.71.71,0,0,0,.88-.14.78.78,0,0,0,.16-.82A.68.68,0,0,0,260,608.05Z"
    transform="translate(-202.79 -37.94)" />
  <path class="cls-10"
    d="M261.9,620.53a.77.77,0,0,0-.26,1.38.72.72,0,0,0,.89-.14.8.8,0,0,0,.15-.82A.69.69,0,0,0,261.9,620.53Z"
    transform="translate(-202.79 -37.94)" />
  <path class="cls-10"
    d="M261.43,617.41a.77.77,0,0,0-.27,1.38.72.72,0,0,0,.89-.14.78.78,0,0,0,.16-.82A.69.69,0,0,0,261.43,617.41Z"
    transform="translate(-202.79 -37.94)" />
  <path class="cls-10"
    d="M261,614.29a.77.77,0,0,0-.27,1.38.72.72,0,0,0,.89-.14.78.78,0,0,0,.16-.82A.71.71,0,0,0,261,614.29Z"
    transform="translate(-202.79 -37.94)" />
  <path class="cls-10"
    d="M260.49,611.17a.77.77,0,0,0-.27,1.38.72.72,0,0,0,.89-.14.8.8,0,0,0,.16-.82A.7.7,0,0,0,260.49,611.17Z"
    transform="translate(-202.79 -37.94)" />
  <path class="cls-10" d="M260.37,605.69a.71.71,0,0,0-.4-.71.74.74,0,1,0-.25,1.42A.78.78,0,0,0,260.37,605.69Z"
    transform="translate(-202.79 -37.94)" />
  <path class="cls-11"
    d="M258.6,175.36l4,5.25c1.14,1.49,2.89,1.95,4,1l3.53-2.87c1.2-.36,2.58,1.21,2.34,2.66l-1.83,4.89a4.35,4.35,0,0,0,1.09,4.3l4.15,4.38c.95,1.36.39,3.08-1,2.9l-5.07-2a2.23,2.23,0,0,0-3.16,1.67l-1.21,5.32c-.62,1.2-2.35.69-2.93-.87l-1.26-5.9a4.38,4.38,0,0,0-2.92-3.34l-5.07-1.26c-1.33-.62-1.84-2.64-.86-3.43l4.37-1.28c1.37-.41,2-2.1,1.4-3.89l-2-6.29A1.37,1.37,0,0,1,258.6,175.36Z"
    transform="translate(-202.79 -37.94)" />
  <path class="cls-12"
    d="M275,196.44a.11.11,0,0,1-.08,0L270,194.53a3.16,3.16,0,0,0-4.49,2.36L264.36,202l-.06.05a.35.35,0,0,1-.34,0,.5.5,0,0,1-.21-.22l-1.22-5.72a6.16,6.16,0,0,0-4.15-4.73l-4.92-1.23a.64.64,0,0,1-.24-.36.46.46,0,0,1,0-.34l4.15-1.22a2.55,2.55,0,0,0,.54-.22c1.59-.84,2.19-3,1.46-5.29l-2-6.07a.31.31,0,0,1,.16-.28.31.31,0,0,1,.33,0l3.89,5.06c1.45,1.9,3.59,2.64,5.19,1.8a3.08,3.08,0,0,0,.48-.32l3.35-2.73a.46.46,0,0,1,.3.17.62.62,0,0,1,.16.4l-1.77,4.75a6.18,6.18,0,0,0,1.54,6.1l4,4.25a.54.54,0,0,1,.06.3A.33.33,0,0,1,275,196.44Z"
    transform="translate(-202.79 -37.94)" />
  <path class="cls-13"
    d="M266.52,186c-.16-.18-.38-.21-.5-.06l-1.83,2.28-1.76-3.34a.39.39,0,0,0-.49-.24.4.4,0,0,0-.09.55l1.76,3.34-2.92.21c-.19,0-.29.22-.24.45a.48.48,0,0,0,.45.39l2.92-.21-.05,3.47a.56.56,0,0,0,.35.51.25.25,0,0,0,.21,0,.32.32,0,0,0,.16-.29l0-3.47,2.89,1.93a.32.32,0,0,0,.32,0,.26.26,0,0,0,.13-.17.53.53,0,0,0-.22-.58l-2.89-1.93,1.83-2.28A.48.48,0,0,0,266.52,186Z"
    transform="translate(-202.79 -37.94)" />
  <g class="cls-14">
    <path class="cls-15"
      d="M340.43,228.17c.93-3.52,4.08-5.85,5.42-9.2,1.42-3.55,1.76-7.33,3.73-10.67,1.76-3,4.11-5.58,5.63-8.69,1.78-3.64,1.46-7.71,1.38-11.66a15.33,15.33,0,0,0,0,2.44c.1-.42.06-.89.12-1.32a12.26,12.26,0,0,1,.38-1.59,14.11,14.11,0,0,1,1.37-2.95,35.69,35.69,0,0,1,4.12-5.22c.28-.31,0-2.07,0-2.5V175a3,3,0,0,1,0-.73c-2.49,2.76-5.16,5.77-5.83,9.56a36.74,36.74,0,0,0-.21,6.55c0,.54,0,1.07,0,1.61,0,.18.16-2.6-.07-1.59,0,.19-.05.4-.08.6a12.58,12.58,0,0,1-.76,2.59c-1.28,3.14-3.55,5.74-5.38,8.57a20.85,20.85,0,0,0-2.38,4.77c-.61,1.84-1,3.74-1.55,5.59a17.43,17.43,0,0,1-2.93,5.45,15.11,15.11,0,0,0-3,5.16,10.44,10.44,0,0,0,0,2.5,11,11,0,0,1,0,2.5Z"
      transform="translate(-202.79 -37.94)" />
  </g>
  <g class="cls-14">
    <path class="cls-15"
      d="M233.4,116.27c.85-.43,1.63.47,2.12,1.07a12.46,12.46,0,0,1,1.48,2.29,12.23,12.23,0,0,1,.93,2.49,12.49,12.49,0,0,1,.28,1.38c0,.2,0,.41.07.62l0,.45q0,1.09,0-1.86c0-2,0-2.59,0-1.78,0,1,0,2,0,3.07,0,.5,0,1,0,1.5,0,0,0,.49,0,.25.06-1.43,0-2.87,0-4.3,0-.78,0-1.56-.07-2.33a12.63,12.63,0,0,0-.75-3.27,12.76,12.76,0,0,0-1.58-3c-.52-.71-1.5-2.15-2.55-1.62a4.86,4.86,0,0,0,0,.74c0,.59,0,1.17,0,1.76s0,1.18,0,1.77a6.36,6.36,0,0,1,0,.73Z"
      transform="translate(-202.79 -37.94)" />
  </g>
  <g class="cls-14">
    <path class="cls-15"
      d="M245.29,418.08c-2.3-3.6-2.85-7.83-3.14-12a86.55,86.55,0,0,0-1.64-12.94c-2.16-9.64-4.53-19.23-6.81-28.85a12.29,12.29,0,0,1,0,2.5,11.59,11.59,0,0,0,0,2.5c2.28,9.62,4.65,19.21,6.81,28.85a89.66,89.66,0,0,1,1.66,13.26c.3,4.08.88,8.18,3.12,11.69a3.42,3.42,0,0,1,0-.73v-3.53a2.59,2.59,0,0,0,0-.74Z"
      transform="translate(-202.79 -37.94)" />
  </g>
  <g class="cls-14">
    <path class="cls-15"
      d="M231.72,280.62c3.81,2.54,2.3,8.15,4.38,11.71,1.34,2.31,4.5,2.55,5.44,5.15a8.6,8.6,0,0,1,.25,1c-.82-3.22.29-4.29-.1-2.58a8.41,8.41,0,0,1-.68,1.81,20.54,20.54,0,0,1-3,4c-.28.32,0,2.06,0,2.5V306c0,.12.09.65,0,.73a18.07,18.07,0,0,0,3.22-4.55,12.55,12.55,0,0,0,.62-5.13c0-1.58.19-3.37-.47-4.85-.76-1.68-2.36-2.14-3.75-3.12-4.45-3.15-1.41-10.41-5.95-13.43a11.71,11.71,0,0,1,0,2.5c0,.32-.24,2.32,0,2.5Z"
      transform="translate(-202.79 -37.94)" />
  </g>
  <g class="cls-14">
    <path class="cls-15"
      d="M275.77,255.47a23.35,23.35,0,0,1-1.9-4.05c-.21-.64-.3-1.28-.47-1.92.86,3.21-.33,4.06.14,2.39a4.71,4.71,0,0,1,.34-.88,10.07,10.07,0,0,1,2.74-3,15.75,15.75,0,0,0,2.78-3.15,16,16,0,0,0,2.58-7.54,37.19,37.19,0,0,0-.18-8.82c.27,1.62-.27,3.38,0,5,.06.38.12.76.16,1.14.25,2.62.24-4.29,0-2.28a20.66,20.66,0,0,1-.33,2.23,16,16,0,0,1-1.29,3.61A15.41,15.41,0,0,1,278,241.7c-.91,1-2,1.8-3,2.76-2.21,2.25-1.72,5.45-1.69,8.35a15.68,15.68,0,0,0,2.45,7.66,3.4,3.4,0,0,1,0-.73c0-.59,0-1.18,0-1.77s0-1.18,0-1.76c0-.18.07-.59,0-.74Z"
      transform="translate(-202.79 -37.94)" />
  </g>
  <g class="cls-14">
    <path class="cls-15"
      d="M288.15,357.22a46.12,46.12,0,0,0-.58,12.9,10.06,10.06,0,0,0,2.37,5.6c1.35,1.55,2.91,2.83,3.93,4.63,2,3.44,2.24,7.52,2.72,11.36.51,4.11,1.35,8,3.82,11.46,2.78,3.84,6.73,6.63,10.56,9.31a11.71,11.71,0,0,1,0-2.5c0-.33.25-2.31,0-2.5-6.05-4.24-12-8.84-13.68-16.43-.77-3.48-.87-7.06-1.59-10.55a17.62,17.62,0,0,0-1.74-5,21.08,21.08,0,0,0-3.47-4.19,10.22,10.22,0,0,1-2.78-5.25c-.14-.75-.2-3.23-.2-.21s.05.49.14-.29c.12-1.12.31-2.23.5-3.35.29-1.62-.28-3.39,0-5Z"
      transform="translate(-202.79 -37.94)" />
  </g>
  <g class="cls-14">
    <path class="cls-15"
      d="M282.66,573.12c.91-1.87.78-3.84.78-5.87a16.18,16.18,0,0,0-.76-6c-1.52-4-4.91-6.75-7.09-10.32-2.31-3.77-2.29-8.33-4.17-12.27-.91-1.91-2.12-3.68-2.89-5.66a16.23,16.23,0,0,1-.77-3c-.1-.57,0-1.65-.06,1s0,1.24.08.49a16.5,16.5,0,0,1,.33-1.84c1.16-4.83,4-9.1,6.89-13.09.29-.4,0-2,0-2.5v-1.76c0-.14-.09-.64,0-.74-2.58,3.61-5.13,7.4-6.49,11.67a19,19,0,0,0-.87,5.65,34.9,34.9,0,0,0,.25,6.93,20,20,0,0,0,2.44,5.83,25.2,25.2,0,0,1,2.45,6,41.25,41.25,0,0,0,1.84,6.54,23.28,23.28,0,0,0,3.4,5.16A32.94,32.94,0,0,1,282.1,565a12.88,12.88,0,0,1,1.14,3.24c.05.25.06.54.12.78,0,.07.31-4.13-.06-2.68a9.24,9.24,0,0,1-.64,1.83,7.75,7.75,0,0,0,0,2.5c0,.59,0,1.18,0,1.77a2.56,2.56,0,0,1,0,.73Z"
      transform="translate(-202.79 -37.94)" />
  </g>
  <g class="cls-14">
    <path class="cls-15"
      d="M329.26,510.73l0-.41c0-.87,0-.55,0,1,0,2.82,0,.92.09.21.06-.55.14-1.1.24-1.64a23.08,23.08,0,0,1,1.09-4,23.68,23.68,0,0,1,3.94-6.77,46.11,46.11,0,0,0,4.64-6,19.73,19.73,0,0,0,2.17-7.43c.34-2.77.46-5.55.89-8.3a72.27,72.27,0,0,1,2-8.68c.83-2.86,1.78-5.68,2.74-8.5a62.42,62.42,0,0,1,2.93-7.6c2.73-5.53,7.63-9,12.64-12.34.23-.15,0-2.2,0-2.5s-.25-2.35,0-2.5c-4.8,3.19-9.6,6.53-12.35,11.76a58.13,58.13,0,0,0-3.22,8.18c-1.06,3.11-2.11,6.24-3,9.41a66.46,66.46,0,0,0-1.95,9.17c-.38,2.85-.45,5.74-.94,8.58a17.57,17.57,0,0,1-3.4,7.94,78.77,78.77,0,0,0-5.09,6.45c-3.52,5.68-3.86,12.31-3.4,18.82,0,.31,0-.39,0-.26,0-.49,0-1,0-1.49,0-1,.05-2.06,0-3.08Z"
      transform="translate(-202.79 -37.94)" />
  </g>
  <g class="cls-14">
    <path class="cls-15"
      d="M363.59,649.64c-2.08-2.1-4.29-4.34-5.26-7.2a8.72,8.72,0,0,1-.31-1.11c-.3-1.46.33-2.54-.16,2.39.09-.91.18-1.81.33-2.71a32.44,32.44,0,0,0,.57-4.61c0-1.74.06-3.5,0-5.25a13.59,13.59,0,0,0-1.2-4.67,17.63,17.63,0,0,1-1.38-4.7c-.08-1.4-.1-1.11-.06.88s0,2.29,0,1.25c.06-.6.11-1.19.18-1.78.12-.93.28-1.86.44-2.78.28-1.63-.28-3.39,0-5a49,49,0,0,0-.62,12,19.73,19.73,0,0,0,1.67,5.76,17.14,17.14,0,0,1,.82,2.7c.19,1.49.23.56.11-2.77,0,.33,0,.66-.07,1-.06.51-.13,1-.21,1.51a36.18,36.18,0,0,0-.62,5.07A35.76,35.76,0,0,0,358,646c.57,3.54,3.22,6.25,5.64,8.69-.24-.23,0-2.13,0-2.5,0-.59,0-1.18,0-1.77,0-.13.07-.64,0-.73Z"
      transform="translate(-202.79 -37.94)" />
  </g>
  <g class="cls-14">
    <path class="cls-15"
      d="M268.12,710.22c2.21-.21,3.44,2,3.49,4v-4.57c-.05,2.63-1.74,5-2.71,7.29a10.09,10.09,0,0,0-.8,3.45,39.42,39.42,0,0,0,.06,5.75c-.18-1.65.18-3.35,0-5l0-.49v4.57c.11-3.77,3.16-6.65,3.48-10.38.12-1.32.05-2.67.05-4a12.27,12.27,0,0,0-.18-2.84,3.35,3.35,0,0,0-3.34-2.76c-.19,0,.12,5,0,5Z"
      transform="translate(-202.79 -37.94)" />
  </g>
  <g class="cls-14">
    <path class="cls-15"
      d="M280.17,665.29c.66-3.69,2.67-6.85,4.19-10.22a25.79,25.79,0,0,0,1.95-11c0-2.21,0-4.42-.09-6.63l-.06-1.4,0-1.14v2.29c-.33-.14.39-2.83.55-3.24a13.89,13.89,0,0,1,3.36-4.45l4.67-4.93c.27-.29,0-2.09,0-2.5,0-.59,0-1.18,0-1.77,0-.12-.08-.66,0-.73l-4.67,4.93a13.75,13.75,0,0,0-3.36,4.45,14.45,14.45,0,0,0-.6,4.94c0,2.25,0,4.5.05,6.74,0,1,.08,2,.11,3,.08,2.55.14-3.06,0-1.11-.06.74-.12,1.47-.23,2.2a20.7,20.7,0,0,1-1.65,5.27c-1.52,3.37-3.53,6.53-4.19,10.22-.29,1.62.29,3.39,0,5Z"
      transform="translate(-202.79 -37.94)" />
  </g>
  <g class="cls-14">
    <path class="cls-15"
      d="M317.66,179.76c-1.23,2.39-2.45,4.79-3.7,7.18-.8,1.51-2.25,3.65-4.25,3.09.07,0,0,2.3,0,2.5,0,.59,0,1.18,0,1.77a4.23,4.23,0,0,0,0,.73c2,.56,3.45-1.58,4.25-3.09,1.25-2.39,2.47-4.79,3.7-7.18a3,3,0,0,0,0-.73c0-.59,0-1.18,0-1.77s0-1.18,0-1.77a2.58,2.58,0,0,1,0-.73Z"
      transform="translate(-202.79 -37.94)" />
  </g>
</svg>