<svg id="Слой_1" data-name="Слой 1" xmlns="http://www.w3.org/2000/svg" viewBox="0 0 197 768">
  <defs>
    <style>
      .cls-1 {
        fill: #fafcf3;
      }

      .cls-2 {
        fill: #c4c69d;
      }
    </style>
  </defs>
  <rect class="cls-1" x="23.5" y="55.5" width="150" height="657" rx="7.5" />
  <path class="cls-2"
    d="M913,212a7,7,0,0,1,7,7V861a7,7,0,0,1-7,7H778a7,7,0,0,1-7-7V219a7,7,0,0,1,7-7H913m0-1H778a8,8,0,0,0-8,8V861a8,8,0,0,0,8,8H913a8,8,0,0,0,8-8V219a8,8,0,0,0-8-8Z"
    transform="translate(-747 -156)" />
  <rect class="cls-1" x="17.5" y="31.5" width="161" height="23" rx="4.33" />
  <path class="cls-2"
    d="M921.17,188a3.84,3.84,0,0,1,3.83,3.83v14.34a3.84,3.84,0,0,1-3.83,3.83H768.83a3.84,3.84,0,0,1-3.83-3.83V191.83a3.84,3.84,0,0,1,3.83-3.83H921.17m0-1H768.83a4.83,4.83,0,0,0-4.83,4.83v14.34a4.83,4.83,0,0,0,4.83,4.83H921.17a4.83,4.83,0,0,0,4.83-4.83V191.83a4.83,4.83,0,0,0-4.83-4.83Z"
    transform="translate(-747 -156)" />
  <rect class="cls-1" x="0.5" y="0.5" width="195" height="30" rx="4.83" />
  <path class="cls-2"
    d="M937.67,157a4.33,4.33,0,0,1,4.33,4.33v20.34a4.33,4.33,0,0,1-4.33,4.33H752.33a4.33,4.33,0,0,1-4.33-4.33V161.33a4.33,4.33,0,0,1,4.33-4.33H937.67m0-1H752.33a5.33,5.33,0,0,0-5.33,5.33v20.34a5.33,5.33,0,0,0,5.33,5.33H937.67a5.33,5.33,0,0,0,5.33-5.33V161.33a5.33,5.33,0,0,0-5.33-5.33Z"
    transform="translate(-747 -156)" />
  <rect class="cls-1" x="18.5" y="713.5" width="161" height="23" rx="2.9" />
  <path class="cls-2"
    d="M923.6,870a2.41,2.41,0,0,1,2.4,2.4v17.2a2.41,2.41,0,0,1-2.4,2.4H768.4a2.41,2.41,0,0,1-2.4-2.4V872.4a2.41,2.41,0,0,1,2.4-2.4H923.6m0-1H768.4a3.4,3.4,0,0,0-3.4,3.4v17.2a3.4,3.4,0,0,0,3.4,3.4H923.6a3.4,3.4,0,0,0,3.4-3.4V872.4a3.4,3.4,0,0,0-3.4-3.4Z"
    transform="translate(-747 -156)" />
  <rect class="cls-1" x="1.5" y="737.5" width="195" height="30" rx="3.1" />
  <path class="cls-2"
    d="M940.4,894a2.61,2.61,0,0,1,2.6,2.6v23.8a2.61,2.61,0,0,1-2.6,2.6H751.6a2.61,2.61,0,0,1-2.6-2.6V896.6a2.61,2.61,0,0,1,2.6-2.6H940.4m0-1H751.6a3.6,3.6,0,0,0-3.6,3.6v23.8a3.6,3.6,0,0,0,3.6,3.6H940.4a3.6,3.6,0,0,0,3.6-3.6V896.6a3.6,3.6,0,0,0-3.6-3.6Z"
    transform="translate(-747 -156)" />
  <rect class="cls-2" x="35.5" y="70.5" width="17" height="632" rx="4.85" />
  <path class="cls-2"
    d="M794.65,227a4.35,4.35,0,0,1,4.35,4.35v622.3a4.35,4.35,0,0,1-4.35,4.35h-7.3a4.35,4.35,0,0,1-4.35-4.35V231.35a4.35,4.35,0,0,1,4.35-4.35h7.3m0-1h-7.3a5.36,5.36,0,0,0-5.35,5.35v622.3a5.36,5.36,0,0,0,5.35,5.35h7.3a5.36,5.36,0,0,0,5.35-5.35V231.35a5.36,5.36,0,0,0-5.35-5.35Z"
    transform="translate(-747 -156)" />
  <rect class="cls-2" x="109.5" y="70.5" width="17" height="632" rx="4.85" />
  <path class="cls-2"
    d="M868.65,227a4.35,4.35,0,0,1,4.35,4.35v622.3a4.35,4.35,0,0,1-4.35,4.35h-7.3a4.35,4.35,0,0,1-4.35-4.35V231.35a4.35,4.35,0,0,1,4.35-4.35h7.3m0-1h-7.3a5.36,5.36,0,0,0-5.35,5.35v622.3a5.36,5.36,0,0,0,5.35,5.35h7.3a5.36,5.36,0,0,0,5.35-5.35V231.35a5.36,5.36,0,0,0-5.35-5.35Z"
    transform="translate(-747 -156)" />
  <rect class="cls-2" x="145.5" y="70.5" width="17" height="632" rx="4.85" />
  <path class="cls-2"
    d="M904.65,227a4.35,4.35,0,0,1,4.35,4.35v622.3a4.35,4.35,0,0,1-4.35,4.35h-7.3a4.35,4.35,0,0,1-4.35-4.35V231.35a4.35,4.35,0,0,1,4.35-4.35h7.3m0-1h-7.3a5.36,5.36,0,0,0-5.35,5.35v622.3a5.36,5.36,0,0,0,5.35,5.35h7.3a5.36,5.36,0,0,0,5.35-5.35V231.35a5.36,5.36,0,0,0-5.35-5.35Z"
    transform="translate(-747 -156)" />
  <rect class="cls-2" x="71.5" y="70.5" width="17" height="632" rx="4.85" />
  <path class="cls-2"
    d="M830.65,227a4.35,4.35,0,0,1,4.35,4.35v622.3a4.35,4.35,0,0,1-4.35,4.35h-7.3a4.35,4.35,0,0,1-4.35-4.35V231.35a4.35,4.35,0,0,1,4.35-4.35h7.3m0-1h-7.3a5.36,5.36,0,0,0-5.35,5.35v622.3a5.36,5.36,0,0,0,5.35,5.35h7.3a5.36,5.36,0,0,0,5.35-5.35V231.35a5.36,5.36,0,0,0-5.35-5.35Z"
    transform="translate(-747 -156)" />
</svg>