<svg width="34" height="30" viewBox="0 0 34 30" fill="none" xmlns="http://www.w3.org/2000/svg">
<path d="M8.15562 16.9163L9.16657 15.67C9.99214 14.6523 11.2274 13.9441 12.7515 13.4754C14.2373 13.0185 15.6554 12.7812 17 12.7812C18.3444 12.7812 19.7675 13.0184 21.2634 13.4748C22.7977 13.9428 24.0405 14.6505 24.8675 15.67L25.8785 16.9163L24.3143 17.2747C23.8647 17.3778 23.4392 17.574 23.0331 17.8751C22.6443 18.1634 22.2938 18.5568 21.9895 19.0777C21.9892 19.0782 21.9889 19.0787 21.9886 19.0791L8.15562 16.9163ZM8.15562 16.9163L9.71981 17.2747C10.1694 17.3778 10.5949 17.574 11.001 17.8751C11.3898 18.1634 11.7403 18.5568 12.0446 19.0777L8.15562 16.9163ZM1 28V29H2H10.8636H11.8636V28V25.3399C12.311 25.6468 12.78 25.915 13.2706 26.1438C14.449 26.6933 15.6956 26.9688 17 26.9688C18.3043 26.9688 19.5551 26.6934 20.7427 26.1455C21.2308 25.9204 21.6954 25.6567 22.1364 25.3552V28V29H23.1364H32H33V28V21.5C33 20.5006 32.6973 19.5971 32.0672 18.8462C31.4327 18.0902 30.6001 17.6562 29.6136 17.6562H24.8068C24.2078 17.6562 23.6512 17.8386 23.1563 18.1728C22.6801 18.4944 22.2906 18.924 21.9779 19.4322L21.9778 19.4321L21.9718 19.4421C21.3642 20.4558 20.6225 21.213 19.7525 21.7428C18.8811 22.2736 17.9693 22.5312 17 22.5312C16.0307 22.5312 15.1189 22.2736 14.2475 21.7428C13.381 21.2151 12.6535 20.4623 12.0698 19.4549L12.0632 19.4434L12.0562 19.4322C11.7393 18.9172 11.3393 18.4854 10.8482 18.1645C10.3484 17.8378 9.79116 17.6562 9.19318 17.6562H4.38636C3.3999 17.6562 2.56733 18.0902 1.93284 18.8462C1.30274 19.5971 1 20.5006 1 21.5V28ZM2.68284 15.135C3.58509 16.2102 4.73387 16.8125 6.09091 16.8125C7.4645 16.8125 8.62355 16.2152 9.5209 15.1291C10.4067 14.0571 10.8409 12.7781 10.8409 11.3438C10.8409 9.88826 10.41 8.59754 9.51602 7.53219C8.61649 6.46025 7.45848 5.875 6.09091 5.875C4.73988 5.875 3.59218 6.46518 2.68778 7.52635C1.78003 8.59144 1.34091 9.88421 1.34091 11.3438C1.34091 12.7822 1.78344 14.0632 2.68284 15.135ZM24.501 15.135C25.4033 16.2102 26.5521 16.8125 27.9091 16.8125C29.2827 16.8125 30.4417 16.2152 31.3391 15.1291C32.2249 14.0571 32.6591 12.7781 32.6591 11.3438C32.6591 9.88826 32.2282 8.59754 31.3342 7.53219C30.4347 6.46025 29.2767 5.875 27.9091 5.875C26.5581 5.875 25.4104 6.46518 24.506 7.52635C23.5982 8.59144 23.1591 9.88421 23.1591 11.3438C23.1591 12.7822 23.6016 14.0632 24.501 15.135ZM13.5919 10.26C14.4942 11.3352 15.643 11.9375 17 11.9375C18.3736 11.9375 19.5326 11.3402 20.43 10.2541C21.3158 9.18211 21.75 7.90311 21.75 6.46875C21.75 5.01326 21.3191 3.72254 20.4251 2.65719C19.5256 1.58525 18.3676 1 17 1C15.649 1 14.5013 1.59018 13.5969 2.65135C12.6891 3.71644 12.25 5.0092 12.25 6.46875C12.25 7.90719 12.6925 9.18822 13.5919 10.26Z" stroke="#F5F5F5" stroke-width="2"/>
</svg>
