<svg id="Слой_1" data-name="Слой 1" xmlns="http://www.w3.org/2000/svg" viewBox="115 230 555.2 425.8">
  <defs>
    <style>
      .cls-1 {
        fill: #fefefe;
      }

      .cls-2 {
        fill: #010101;
      }

      .cls-3 {
        fill: #fcc224;
      }

      .cls-4 {
        fill: #fcd489;
      }

      .cls-5 {
        fill: #ed6f21;
      }

      .cls-6 {
        fill: #ed6f22;
      }

      .cls-7 {
        fill: #ee7024;
      }

      .cls-8 {
        fill: #e45512;
      }

      .cls-9 {
        fill: #f8b67e;
      }

      .cls-10 {
        fill: #e45711;
      }

      .cls-11 {
        fill: #f6a124;
      }

      .cls-12 {
        fill: #eb5a4e;
      }

      .cls-13 {
        fill: #f9c077;
      }

      .cls-14 {
        fill: #ed6e22;
      }

      .cls-15 {
        fill: #fcc022;
      }

      .cls-16 {
        fill: #f4a024;
      }

      .cls-17 {
        fill: #fdd386;
      }

      .cls-18 {
        fill: #fbbf20;
      }

      .cls-19 {
        fill: #fcd083;
      }

      .cls-20 {
        fill: #f2923f;
      }

      .cls-21 {
        fill: #f8c56d;
      }

      .cls-22 {
        fill: #f9b91d;
      }

      .cls-23 {
        fill: #fff;
      }

      .cls-24 {
        fill: #e3cece;
      }

      .cls-25 {
        fill: #fcf3ac;
      }

      .cls-26 {
        fill: #6d150c;
      }

      .cls-27 {
        fill: #6e150c;
      }

      .cls-28 {
        fill: #e6560f;
      }

      .cls-29 {
        fill: #040203;
      }

      .cls-30 {
        fill: #eb5d4e;
      }

      .cls-31 {
        fill: #040301;
      }

      .cls-32 {
        fill: #030301;
      }

      .cls-33 {
        fill: #040402;
      }

      .cls-34 {
        fill: #050402;
      }

      .cls-35 {
        fill: #060502;
      }

      .cls-36 {
        fill: #050403;
      }

      .cls-37 {
        fill: #040504;
      }

      .cls-38 {
        fill: #e72d69;
      }

      .cls-39 {
        fill: #050505;
      }

      .cls-40 {
        fill: #a05e55;
      }

      .cls-41 {
        fill: #eb5b4c;
      }

      .cls-42 {
        fill: #fac35b;
      }

      .cls-43 {
        fill: #1e0d07;
      }

      .cls-44 {
        fill: #150a06;
      }

      .cls-45 {
        fill: #9f5e54;
      }

      .cls-46 {
        fill: #140702;
      }
    </style>
  </defs>
  <path class="cls-2"
    d="M483.6,398c.3-.33.58-.52.69-.78a21.77,21.77,0,0,1,5.25-6.72c1-1,2-2,3-3.09A43.43,43.43,0,0,1,509,376.53a20,20,0,0,1,7.75-1.28,16.14,16.14,0,0,0,1.84,0c3.6-.37,6.84.92,10,2.26a51.88,51.88,0,0,1,4.62,2.4,6.28,6.28,0,0,1,1.48,1.07c2.17,2.17,4.42,4.26,6.41,6.58a38.53,38.53,0,0,1,6.67,12.33,122.58,122.58,0,0,1,5.57,21.64,50.85,50.85,0,0,1,.78,9.15c-.09,5.11-.13,10.22,0,15.33a89.84,89.84,0,0,1-2.49,21.24c-.54,2.5-1.18,5-1.81,7.45A43.07,43.07,0,0,1,544,487.77a37.85,37.85,0,0,1-10.76,10.71,12.15,12.15,0,0,1-3.9,1.7,31.24,31.24,0,0,1-12.74.67A43.71,43.71,0,0,1,495.53,491a1.7,1.7,0,0,0-1.19-.5c-.22.85-.49,1.72-.69,2.61-1.79,8-4.07,15.83-6.51,23.64a269.4,269.4,0,0,1-10.78,28.66c-2.27,5.14-4.48,10.3-6.81,15.42q-2.48,5.43-5.21,10.74c-1.87,3.64-4.44,6.85-6.72,10.23-2.45,3.64-5,7.23-7.65,10.72s-5,7.2-8,10.44c-1,1.12-1.86,2.42-2.82,3.61a166.09,166.09,0,0,1-13.46,14.23,72.4,72.4,0,0,1-9.85,8.22,2.31,2.31,0,0,0-1.21,2.79,30.55,30.55,0,0,1,.55,7.93,7.82,7.82,0,0,1-.26,2.11,4,4,0,0,1-2.88,2.89,16.84,16.84,0,0,1-7.57.41,30.77,30.77,0,0,1-6.82-1.61,3,3,0,0,0-2.9.38c-2.42,1.51-4.77,3.13-7.29,4.5a117.08,117.08,0,0,1-13.74,6.71c-3.52,1.37-7,2.89-10.47,4.34a67.81,67.81,0,0,1-7.91,2.36c-.78.22-1.58.4-2.38.56-3.37.65-2.87,1-2.83,3.62a45.64,45.64,0,0,1-2.09,14.49,13.73,13.73,0,0,1-4.31,6.19,3.56,3.56,0,0,1-1.6.85c-2.54.45-5.08.64-7.32-1.09a27.86,27.86,0,0,1-2.45-1.83c-3.1-3-6.18-5.94-9-9.18a18.36,18.36,0,0,1-2.95-4.61c-.54-1.22-.75-1.36-1.8-1.09-4.77,1.21-9.66,1.42-14.54,1.9-12.32,1.21-24.68,1-37,1a95.16,95.16,0,0,1-12.5-1,11,11,0,0,0-1.52-.13A65,65,0,0,1,240.9,670c-6.22-1.15-12.41-2.44-18.6-3.72a73,73,0,0,1-10.64-2.87c-2.49-.92-5-1.72-7.55-2.52a129.18,129.18,0,0,1-12.88-4.9,1.87,1.87,0,0,0-2.43.48c-1.76,1.85-3.53,3.69-5.36,5.47A27.48,27.48,0,0,1,170.76,669a32.19,32.19,0,0,1-3.63.47c-4.36.54-8.06-3.45-8-7.42,0-4.48-.32-9,.39-13.45.43-2.72.68-5.47,1.27-8.16a1.86,1.86,0,0,0-.88-2.1c-.33-.23-.63-.53-1-.73-5.15-3-9.43-7.11-14-10.83a120.26,120.26,0,0,1-15-14.85c-2.53-2.91-5.18-5.74-7.44-8.9-3.75-5.24-7.44-10.5-10.89-15.93a115.8,115.8,0,0,1-5.62-10.18c-2.66-5.29-5.23-10.63-7.41-16.14-1-2.56-1.78-5.22-2.67-7.83-.52-1.5-.92-1.79-2.49-1.53a75,75,0,0,1-14,.48A9.58,9.58,0,0,1,72.78,549,6.36,6.36,0,0,1,71,542.53a12.82,12.82,0,0,1,1.18-3.14,34.8,34.8,0,0,1,6.62-9.13c2.63-2.58,5.19-5.22,7.87-7.74a3.65,3.65,0,0,0,1.26-3.26c-.26-2.43-.44-4.87-.85-7.27a26.63,26.63,0,0,1-.36-4.26,17.32,17.32,0,0,0-.47-5.17,6.83,6.83,0,0,1-.14-1.82c-.31-8.38-.15-16.76,0-25.14,1-4.31.32-8.75,1.05-13.1.37-2.18.48-4.44.72-6.67.14-1.23-.13-1.49-1.3-1.51-1.73,0-3.47,0-5.21,0a26.62,26.62,0,0,1-12.81-3.64c-1.24-.67-7.52-7.37-8.21-8.61a36.59,36.59,0,0,1-4.44-13.24A81,81,0,0,1,55.57,416,32.5,32.5,0,0,1,57,409.1a66.25,66.25,0,0,1,5.86-15.44,40.24,40.24,0,0,1,4.68-6.8C70,383.92,72.55,380.94,76,379a51.24,51.24,0,0,1,6.25-3.22,17.1,17.1,0,0,1,6-1.11c2.86-.05,5.72,0,8.58,0a6.8,6.8,0,0,1,2.11.33,30.83,30.83,0,0,1,9.2,4.75c.72.57,1.46,1.11,2.18,1.68s1.18,1.72,2.08,1.66c1.13-.08,1.34-1.41,1.78-2.26,3.53-6.71,7.93-12.85,12.31-19,.47-.67,1-1.32,1.42-2a1.43,1.43,0,0,0,.12-1.45c-.37-.84-.73-1.69-1.14-2.51a41.6,41.6,0,0,1-4.59-19.48c0-.71,0-1.43,0-2.14-.23-3.55,1.73-6,4.19-8.11a5,5,0,0,1,3.12-1.1A28.81,28.81,0,0,1,143,327.47a40.75,40.75,0,0,1,8.9,5.36c1.16.94,1.53.7,2.31-.05a83.05,83.05,0,0,1,10.71-8.63q5.42-3.73,10.76-7.57a124,124,0,0,1,12.62-8.1,128.46,128.46,0,0,1,18.27-8.6c3.84-1.38,7.58-3,11.39-4.51A132.29,132.29,0,0,1,231.36,291c5.13-1.36,10.32-2.44,15.55-3.29a2,2,0,0,0,1.84-1.72,53.71,53.71,0,0,1,5.06-12.78,26.62,26.62,0,0,1,5.54-6.89c2.42-2.37,8.45-2.75,11.09.53,2.06,2.54,4.25,4.93,5.69,7.93a55.25,55.25,0,0,1,3.15,7,2,2,0,0,0,2.32,1.51c.1,0,.2,0,.3,0,4.68-.77,9.36.07,14,0s9.4,0,14.09.21a67.31,67.31,0,0,1,9.7,1,3.19,3.19,0,0,0,.91.14c3-.27,5.86.73,8.83.67a8.65,8.65,0,0,1,1.81.24c4.31.75,8.63,1.49,12.93,2.29q4.07.75,8.08,1.67c1.88.42,3.72,1,5.76,1.53l1.22-4.14c.43-1.47.87-2.93,1.28-4.41a20.61,20.61,0,0,1,4.9-8.72c2.88-3.09,6-5.83,10-7.35a16.44,16.44,0,0,1,6.57-1.28c1,0,2,0,3.06,0A33.05,33.05,0,0,1,404,270.38a56.18,56.18,0,0,1,14.27,12.8,51.62,51.62,0,0,1,5.85,8.2,36.19,36.19,0,0,1,4.38,16.42,15.6,15.6,0,0,1-.78,5.12,35.85,35.85,0,0,1-4.13,9.53c-.79,1.17-.75,1.24.43,2.22,2.28,1.89,4.56,3.77,6.88,5.6A9.7,9.7,0,0,0,434.1,332a5,5,0,0,1,3.65,3.76,6.5,6.5,0,0,0,1.93,3c5.14,5.26,10.52,10.29,15.19,16a5.06,5.06,0,0,0,.87.86,1.27,1.27,0,0,0,1.43.18,12.48,12.48,0,0,1,1.34-.73c4.58-1.75,9.14-2,13.6.39a6,6,0,0,1,3.56,5.91c-.2,4.05-.92,8-3.27,11.33-1.76,2.51-2.26,4.74.1,7.07,3.21,5.46,6.4,10.92,9.62,16.38A3.49,3.49,0,0,0,483.6,398Z"
    transform="translate(86.2 -30.8)" />
  <path class="cls-2"
    d="M121,327.17a44.14,44.14,0,0,1-4.8,20.68,4.31,4.31,0,0,0-.33,3.47c1.48,4.77,2.75,9.6,4.14,14.4a4.31,4.31,0,0,1-.5,4,3.68,3.68,0,0,1-3.72,1.6c-1.21-.16-2.4-.49-3.59-.77-4.07-1-8.14-1.93-12.2-2.92a5,5,0,0,0-3.54.41,54.54,54.54,0,0,1-7,3,32.16,32.16,0,0,1-7.16,1.57c-6.53.47-13.06.62-19.4-1.5a45.89,45.89,0,0,1-17-10,46.85,46.85,0,0,1-12-50.06,46.3,46.3,0,0,1,12.28-18.4,42.72,42.72,0,0,1,23.91-11.39,43.07,43.07,0,0,1,23.12,2.94A46.68,46.68,0,0,1,120.38,319,52.75,52.75,0,0,1,121,327.17Z"
    transform="translate(86.2 -30.8)" />
  <path class="cls-3"
    d="M93.93,482a3.16,3.16,0,0,1-.11-.6q.32-11.3,1.54-22.52a175.72,175.72,0,0,1,4.34-22.72c1.12-4.53,2.13-9.1,3.55-13.55a3.18,3.18,0,0,1,2-.76c.71-.07,1.41-.2,2.11-.32,14.48-2.42,15-15.8,8.31-23a4,4,0,0,1-1.4-2.3A158,158,0,0,1,123.3,380a139.74,139.74,0,0,1,11.49-15.86c4.86-5.78,9.52-11.74,15.13-16.84,4.31-3.91,8.49-7.95,13.08-11.55,6.35-5,12.83-9.77,19.61-14.13,3.43-2.2,7-4.18,10.55-6.21,2.47-1.42,5-2.76,7.51-4.12a37.34,37.34,0,0,1,6.14-2.69A66.64,66.64,0,0,0,217.18,304a33,33,0,0,1,7.56-3.2c.42.66-.13,1-.42,1.27a68.86,68.86,0,0,0-8.84,11.7,37.86,37.86,0,0,0-2,3.77,9.72,9.72,0,0,0-1.13,5.33c.15,1.33-.58,2.82.63,4,1.2-.8,1.34-2.21,1.89-3.37a22.08,22.08,0,0,1,3.31-5.13c2.94-3.4,5.89-6.78,8.92-10.1,1.85-2,2.33-2,3.78.44a18.94,18.94,0,0,1,1.76,3.89q2.31,7.28,4.45,14.62c.49,1.65.77,3.36,1.16,5.16,1.21-1,1.28-2.46,1.55-3.69a21,21,0,0,0,.37-7.62,19.42,19.42,0,0,1-.26-3.05,29.47,29.47,0,0,0-1.32-8.13,13.71,13.71,0,0,0-5.38-7.94c-.9-.64-1.73-1.37-2.58-2,.34-.74.92-.58,1.35-.68,5.85-1.39,11.68-2.89,17.57-4.09a140.46,140.46,0,0,1,17.22-2.69c2.73-.21,5.44-.8,8.19-1,8.37-.56,16.74-.46,25.12-.38,3.06,0,6.12.16,9.19.19a134.19,134.19,0,0,1,13.72,1.1,239.89,239.89,0,0,1,28.56,5.24,162.68,162.68,0,0,1,27.29,8.84,199.3,199.3,0,0,1,25.56,13.75,152.45,152.45,0,0,1,14.72,9.88c.44.35,1.2.46,1.18,1.47-2.31.36-4.46,1.47-7,1.49-1.7,0-3.4.65-5.15.58a3.21,3.21,0,0,0-1.73.54c-.44.26-1,.48-.9,1.08a1.4,1.4,0,0,0,.9,1.16,11,11,0,0,0,2.61.84,44.35,44.35,0,0,0,12.81.3,38.12,38.12,0,0,1,4.28-.26,9.32,9.32,0,0,1,1.83.09c2,.3,2.39,1,1.68,3a23.53,23.53,0,0,1-1,2.23c-1.9,3.95-3.85,7.88-5.71,11.85-.93,2-1.92,4-1.47,6.59a15.18,15.18,0,0,0,3.05-2.65,97.6,97.6,0,0,0,9.62-12.65c.42-.68.93-.8,1.5-.26,2.29,2.18,4.56,4.38,6.79,6.63a84.8,84.8,0,0,1,6.12,7.63c2.84,3.6,5.75,7.16,8.62,10.74a118.18,118.18,0,0,1,6.7,9.88,189,189,0,0,1,11.89,21.38c.79,1.65,1.47,3.36,2.23,5,.88,1.95,1.71,3.94,2.74,5.81a23.23,23.23,0,0,1,2.5,7.49c.23,1.4.57,2.77.86,4.14.65-.08.74-.46.75-.88.09-2.34.17-4.69.26-7,0-.43.16-.85.62-.9a1.3,1.3,0,0,1,.8.34,6.25,6.25,0,0,1,1.68,2.16c1.23,2.46,2.51,4.91,3.77,7.35a29,29,0,0,1,3.58,14.08c0,2,.61,4,.47,6.09-.25,3.57-.38,7.14-.6,10.7-.11,1.73-.25,3.45-.48,5.16a11.53,11.53,0,0,1-2,5.27c-.8,0-.67-.55-.68-.87-.16-3.88-.23-7.76-.45-11.63-.12-2.14-.47-4.26-.73-6.39,0-.3-.13-.59-.48-.65s-.46.34-.48.59c-.17,4-.95,7.91-.79,11.91a3.11,3.11,0,0,1-.09.6c-1.77,9-4.88,17.58-8.19,26.1a3.52,3.52,0,0,1-3.11,2.56,6,6,0,0,1-3.16-1.75c-4.85-3.94-10.51-6.2-16.41-7.94-.95-.28-1.94-.71-3.09.05.6,1.56,2,2.17,3.3,2.93a107.92,107.92,0,0,1,10.48,6.87c3.69,2.92,3.56,4.35-.77,6.42-4.14,2-8.47,3.53-12.77,5.13-1,.38-2.21.43-3.32,2.07,6.23.43,11.62-1.74,17.15-2.72.38-.06.76-.1,1.14-.18l.68-.23c.32-.14.65-.29,1-.46s.44-.23.66-.33a4.4,4.4,0,0,1,1.12-.4,2.66,2.66,0,0,1,.84.07c1.71,1,1.18,2.5.5,3.74-2.84,5.15-5.65,10.24-9.73,14.69-5.93,6.46-12.84,11.84-18.8,18.24-4.11,2.72-9,3.06-13.57,4.28-.78.21-1.61.26-2.4.43a11.46,11.46,0,0,1-1.84.25,8.75,8.75,0,0,0-2.21.38,9.17,9.17,0,0,1-1.81.25,9.9,9.9,0,0,0-3.2.43,24,24,0,0,1-3.88.28,8.49,8.49,0,0,0-2.45.4c-10.28,1.4-20.56,1.08-30.85.25a338.8,338.8,0,0,1-51.94-8.57c-25.91-6.24-52-11.62-77.88-18-11.79-2.91-23.45-6.4-35.39-8.72-15.84-3.06-31.68-6.31-47.73-7.88-9.18-.9-18.49-1.68-27.81-.57-5.35.65-10.77.25-16.16,1.17-7,1.19-14,1.82-20.07,5.87a2.36,2.36,0,0,1-1,0c-2.83-1.86-4.17-4.87-5.78-7.64-2.53-4.37-3.82-9.38-6.81-13.52A2,2,0,0,1,93.93,482Z"
    transform="translate(86.2 -30.8)" />
  <path class="cls-4"
    d="M430.52,539.17a3.75,3.75,0,0,1,1-.52,78.59,78.59,0,0,0,12.83-3.17,4.13,4.13,0,0,0,2.08-1.15,3.71,3.71,0,0,1,1.4-.74c.37-.17.74-.32,1.12-.48a25.44,25.44,0,0,1,3.4-1.21c.35-.11.71-.2,1.06-.33l.64-.26c.32-.15.63-.31.94-.48l.64-.34,1-.57c1.87-.92,3.71-1.9,5.59-2.78l1.07-.51.68-.38a8.39,8.39,0,0,0,.93-.74q6.24-5.37,12.23-11c.85-.79,1.65-2,3.12-1.17a85.55,85.55,0,0,1-3.36,10.15c-1.88,5.28-3.9,10.51-5.94,15.74-1,2.46-2,4.9-3.18,7.28-2.28,4.68-4.64,9.31-7,14-.32.64-.7,1.24-1.14,2-2.64-2.42-5.51-4.34-8.24-6.45a28,28,0,0,0-5.8-3.37,4.81,4.81,0,0,0-1.43-.51c-1-.11-2.39-.48-2.9.28-.68,1,.59,1.78,1.28,2.45,4.53,4.41,8.94,9,14.09,12.69a5.86,5.86,0,0,1,.67.71,7.16,7.16,0,0,1-5.28,4.06c-4.19.9-8.45,1.27-12.68,1.88a44.37,44.37,0,0,0-7.24,1.15,2.35,2.35,0,0,0-1.49.93,2.49,2.49,0,0,0,1.55.9,23.34,23.34,0,0,0,4.56.51c4.29,0,8.58.12,12.86-.26a5.2,5.2,0,0,1,.88,0c.14.61-.22,1-.46,1.44a135,135,0,0,1-8.34,12.45c-3.45,4.85-7.5,9.17-11.35,13.66a98.53,98.53,0,0,1-10,10.35c-3.24,2.81-6.45,5.64-9.8,8.58a28.21,28.21,0,0,1-2.73-5.47,6.67,6.67,0,0,0-1.8-2.79c-.15-.12-.44-.25-.55-.19s-.57.41-.58.63a13.5,13.5,0,0,0,.05,3.05c.5,2.71,1.12,5.39,1.71,8.07a5,5,0,0,0,.49,1.43c1.55,2.61,1.46,5.46,1.26,8.33a1.36,1.36,0,0,1-1.49,1.21,17.63,17.63,0,0,1-3-.55c-5-1.53-10-2.87-14.74-5.05a8.59,8.59,0,0,0-4.4-1.25c.49,1.52,1.77,2.16,2.82,2.85,3.74,2.44,3.11,3.25-.07,5.24a16.65,16.65,0,0,1-2.07,1.3c-5.83,2.69-11.59,5.54-17.53,8a225.74,225.74,0,0,1-25.53,8.45A195.23,195.23,0,0,1,319.38,662c-2.52.38-5.07.56-7.62.72a75.7,75.7,0,0,0-11.52,1.52c-.59.13-1.2.16-1.77.23-.59-.4-.38-.91-.25-1.38a30,30,0,0,0-2.09-22,13.34,13.34,0,0,0-1.91-3.46c-.75.21-.39.81-.39,1.21,0,3.68,0,7.36.11,11a58.08,58.08,0,0,1-.67,8.84,1,1,0,0,1,0,.3c-.5,1.21-.78,2.74-2,3.32s-2-.64-2.95-1.21c-4.6-2.84-8.73-6.36-13.11-9.52a23.39,23.39,0,0,1-5.51-5.75,1.39,1.39,0,0,0-.16,1.31A30.61,30.61,0,0,0,277,659.33c1.06,1.11,2.19,2.14,3.25,3.25.77.8,1.46,1.66,2.53,2.89-6.18-1.2-12-.06-17.69-1.05a5.61,5.61,0,0,0-.92-.06,198.25,198.25,0,0,1-39.9-5.82,144.14,144.14,0,0,1-21.83-6.93c-2.25-1-4.59-1.69-6.87-2.58a138.56,138.56,0,0,1-16.32-7.65,126.4,126.4,0,0,1-15.74-10c-2.92-2.23-5.94-4.32-8.85-6.57-1.61-1.24-3.07-2.69-4.61-4a127.76,127.76,0,0,1-9.83-9.21c-.76-.81-1.69-1.51-1.78-2.82,5.71-1.65,9.9-5.53,13.74-9.78a43,43,0,0,0,4.25-6.34,44.77,44.77,0,0,0,2.31-4.32,45.26,45.26,0,0,1,2.55-4c-4.37,3.46-9,6.55-12.89,10.53A61.85,61.85,0,0,1,139,602.2a.57.57,0,0,1-.91-.4c-1-6.63-2-13.27-3.14-19.9a22.11,22.11,0,0,0-2-7c-1.08,2.47-.88,4.78-1,7s-.55,4.67-.48,7,.08,4.7,0,7.05a37,37,0,0,0,.65,6.92c-.87.26-1.1-.24-1.38-.63a13.42,13.42,0,0,1-.84-1.28c-2.48-4.72-5.83-8.86-8.68-13.33-2.57-4-4.89-8.25-7.22-12.44a149.26,149.26,0,0,1-9.84-21.05,36.19,36.19,0,0,1-1.5-5.29,1.14,1.14,0,0,1,.83-1.42l3.74-1.34c.47-.17,1-.3,1.43-.52,1-.43,1.89-1,1.79-2.2a2.64,2.64,0,0,0-2-2.14,7,7,0,0,0-3.93-.25c-5.52,1-11.11,1.6-16.58,2.86a27,27,0,0,1-8.5.75c-.75-.07-1.08-.56-.75-1.25a11.55,11.55,0,0,1,1.19-2.12c1.52-1.92,2.93-3.92,4.64-5.7A127.09,127.09,0,0,1,96.2,524.7a13.34,13.34,0,0,0,3.67-4.06,1.9,1.9,0,0,0-1.05-3,16,16,0,0,0-2.06-.53,1.79,1.79,0,0,1-1.59-1.94c0-.61,0-1.22,0-1.83,3.74-2.77,7.05-6.1,11.11-8.45l.62.05a3.28,3.28,0,0,1,1.49,1.5c4,8,10.33,14.14,16.15,20.7,13.22,14.86,29.23,26.18,46.75,35.16a137.82,137.82,0,0,0,42.06,13.72c12.1,1.86,24,4.78,36.22,6.12a44.27,44.27,0,0,0,4.88.33c15.83,0,31.67.35,47.48-.12,11.5-.34,23.11-.26,34.44-2.41,15.77-3,31.23-7.06,45.94-13.79,10.87-5,21.67-10.07,32.46-15.19,5.36-2.54,10.66-5.25,14.06-10.47A5.56,5.56,0,0,1,430.52,539.17Z"
    transform="translate(86.2 -30.8)" />
  <path class="cls-5"
    d="M514.51,469.13l1.26.34a3.46,3.46,0,0,1,.62.36l.61.15c.35.24.82.19,1.14.5l.7.16a2.43,2.43,0,0,0,.72.36l1.11.22a1.6,1.6,0,0,0,1,.2l.63,0a3.37,3.37,0,0,1,.68.49,1,1,0,0,1,.42.17l.06-.22-.21.09-.23-.11-.2-.18a1.21,1.21,0,0,0-.74-.34l-.2-.22c-.81-1.12-2.11-1.53-3.24-2.18-2.66-1.51-5.34-3-8-4.46a64.32,64.32,0,0,1-7.69-5.54,1.65,1.65,0,0,1-.64-1.61c.15-1.42.69-2.76.57-4a2.74,2.74,0,0,1,2-.5c2.35,0,4.71-.09,7,.12a32.15,32.15,0,0,1,6.31,1.15,18.87,18.87,0,0,0,6.62.35,14,14,0,0,0-4.9-1.73c-5.22-1.13-10-3.36-14.87-5.52a2.65,2.65,0,0,1-1.77-2.85c.08-1.31.15-1.57,1.4-2a40.65,40.65,0,0,1,7.38-1.92c6.13-1,12.22-2.26,18.27-3.74a4.4,4.4,0,0,0,2.66-1.38,3,3,0,0,0-2.11-.27c-4.9.15-9.8.33-14.7.5-3.67.13-7.35.14-11-.06a13.12,13.12,0,0,1-1.53-.11c-.72-.11-.94-.71-1.1-1.3a1.12,1.12,0,0,1,.55-1.31,1.64,1.64,0,0,1,.26-.16c4.69-2.06,8.64-5.4,13.25-7.61a68,68,0,0,0,7-4.34,2.68,2.68,0,0,0,.56-.68c-.58-.62-1.15-.26-1.67-.07-3.14,1.21-6.3,2.37-9.38,3.71a49.78,49.78,0,0,1-11.78,3.14,1.94,1.94,0,0,1-.9,0c-1.35-.49-2.2-3.7-1.22-4.72,1.2-1.26,2.47-2.44,3.74-3.63a96.83,96.83,0,0,1,12.15-10.26,7.59,7.59,0,0,0,2.44-2.28c.22-.36.37-.72,0-1.09a1.18,1.18,0,0,1,.36-1.12c3.63-2.76,5.4-6.77,7.29-10.73,1.54-3.21,2.89-3.34,5.48-.75,5.48,5.47,8.71,12.21,11,19.49a58,58,0,0,0,4.07,10.51,26.48,26.48,0,0,1,1.22,7.48,132.58,132.58,0,0,1,0,15.57,89.91,89.91,0,0,1-1.2,9.67,146.52,146.52,0,0,1-3.08,15.53,47.43,47.43,0,0,1-3.67,10c-1.78,1-3.7,1.66-5.53,2.55-8.42,4.12-18.84-2-19.37-12.67A1.42,1.42,0,0,1,514.51,469.13Z"
    transform="translate(86.2 -30.8)" />
  <path class="cls-6"
    d="M420,301.82a11.87,11.87,0,0,1,.58,6.34,34.07,34.07,0,0,1-3.08,11.12c-.53,1.07-.95,1.24-1.88.64a109.61,109.61,0,0,1-10-7.5c-1.78-1.46-1.81-1.87-.93-3.93.35-.84.69-1.69,1-2.55a.61.61,0,0,0-.21-.52.6.6,0,0,0-.54,0,15.87,15.87,0,0,0-3.32,2.68c-1.19,1.07-1.36,1.11-2.86.07a3.82,3.82,0,0,1-1.49-2.22,9,9,0,0,1-.12-4.53c.56-2.7,1.17-5.38,1.79-8.06a3,3,0,0,0,.21-1.79c-.5-.27-.68.13-.86.44a47.78,47.78,0,0,0-3.1,6.3,8.54,8.54,0,0,1-3.09,4.09,3.72,3.72,0,0,1-4.55-.06,2.22,2.22,0,0,1-.9-1.86,64.07,64.07,0,0,1,.09-8.87,28.17,28.17,0,0,0,.12-3.05.89.89,0,0,0-.65-.95c-1,1.36-1.12,3-1.55,4.56-.66,2.35-1.32,4.7-2,7a1,1,0,0,1-1.17.72l-.29-.07c-4.21-1.47-8.53-2.67-12.55-4.66-.13-.17-.32-.37-.27-.53,1.76-6.31,3.63-12.62,9.12-16.84,3.51-2.7,7.78-2,11.83-1.68a15.46,15.46,0,0,1,6.39,2c9.89,5.55,18.86,12.08,24.11,22.58a3.05,3.05,0,0,1,.22.32s0,.13-.06.19A.67.67,0,0,0,420,301.82Z"
    transform="translate(86.2 -30.8)" />
  <path class="cls-7"
    d="M77,388.84a9.76,9.76,0,0,1,3-3,32.87,32.87,0,0,1,9-4.37,10.09,10.09,0,0,1,6.9.23,35.66,35.66,0,0,1,9.46,4.92c1.21.94,2.29,2,3.43,3.05a1.64,1.64,0,0,1,.41,2.19c-1.48,2.9-2.92,5.83-4.16,8.85-.62,1.49-1.34,1.7-2.91,1.27-3.47-.93-6.56-2.78-9.86-4.12-.91-.37-1.73-1.16-2.85-.8-.13.81.55,1,1,1.34a46.35,46.35,0,0,0,9.28,5.31c1,.44,2,1,3,1.55.16.08.23.32.4.59-1.82,3.08-2.59,6.73-4.57,9.92-3.38-1.17-6.66-2.27-9.91-3.46a31.05,31.05,0,0,0-5-1.39c-2.71-.06-5.41-.1-8.11-.27-3.56-.22-4.93,2.61-6.77,4.8-2.68-1.22-1-3.69-1.58-5.51a4.86,4.86,0,0,1,.14-.85,12.55,12.55,0,0,0,.4-2.1,38.56,38.56,0,0,1,5.54-11.52C74.59,393.33,76.29,391.38,77,388.84Z"
    transform="translate(86.2 -30.8)" />
  <path class="cls-8"
    d="M68.28,415.31c.6-.35.58-1,.79-1.57a5.9,5.9,0,0,1,5.6-3.92,12.61,12.61,0,0,1,4.81.3,9.55,9.55,0,0,0,2.4.25,2.18,2.18,0,0,1,1.68.52l-1.81.18c-.28.7.28.94.62,1.19a21.47,21.47,0,0,0,5.94,3.11c1.84.61,3.68,1.21,5.51,1.84a23.39,23.39,0,0,1,2.28.89,1.14,1.14,0,0,1,.72,1.47c-.55,2-1.07,3.94-1.57,5.91a2.48,2.48,0,0,1-2.64,2.08c-1.94,0-3.88.06-5.82,0a59.6,59.6,0,0,0-8.23.7,1.63,1.63,0,0,0-1.54.83,3.55,3.55,0,0,0,3,1.08c1.73,0,3.47-.1,5.2-.17a52.28,52.28,0,0,1,6.74.08c2.08.18,2.14.59,1.87,2.57-.12.91-.33,1.8-.5,2.7A89.07,89.07,0,0,1,91,445.8c-.3.94-.69,1.76-1.78,1.82-4.41.24-8.77.12-12.9-1.73-10-7-11.13-17-9.32-27.92A3.7,3.7,0,0,1,68.28,415.31Z"
    transform="translate(86.2 -30.8)" />
  <path class="cls-9"
    d="M545.7,422.1c-1.77-1.13-2.34-3-3-4.82-1.46-4.1-2.64-8.3-4.39-12.3-1.52-3.46-3.15-6.82-5.86-9.55-.86-.85-1.53-1.9-2.37-2.77-2.53-2.59-2.87-2.51-4.35.67-.72,1.56-1.5,3.1-2.22,4.66a13.83,13.83,0,0,1-5.6,6.24c-.16.1-.25.31-.38.47L515,406.15a.61.61,0,0,1-.44.37l-.65.34c-5.41.44-10.67.33-15.32-3.17a10.25,10.25,0,0,0-5.17-1.59c-1.08-.1-2.25,0-3.1-.9a55,55,0,0,1,11.43-11.42,38.56,38.56,0,0,1,5.61-3.7,28.86,28.86,0,0,1,8.34-2.88,13.53,13.53,0,0,1,6.33.49,24.58,24.58,0,0,1,14.37,11.15,67.12,67.12,0,0,1,8.68,23.35C545.32,419.48,545.88,420.73,545.7,422.1Z"
    transform="translate(86.2 -30.8)" />
  <path class="cls-10"
    d="M514.51,469.13a4,4,0,0,0,.36,2.07,6.44,6.44,0,0,1,.88,3.49,4,4,0,0,0,1.15,2.75,19.46,19.46,0,0,0,5.55,4.67,10.53,10.53,0,0,0,8.52.76,13.22,13.22,0,0,0,4.15-1.8,5.31,5.31,0,0,1,3.8-.74,21.17,21.17,0,0,1-7.54,10.16,15.23,15.23,0,0,1-9,3.3c-9.13.29-16.65-3.28-23.09-9.5-.8-.78-1.54-1.63-2.35-2.41a4.51,4.51,0,0,1-1.29-4.76c.58-2.06,1.24-4.1,1.94-6.12s1.44-3.81,2.15-5.72c.34-.89.71-1.17,1.58-.83C505.66,466.13,510.24,467.18,514.51,469.13Z"
    transform="translate(86.2 -30.8)" />
  <path class="cls-11"
    d="M464.26,526.79l-.63.16c-.19.17-.39.33-.59.48-2.21,1.16-4.31,2.55-6.75,3.21l-.61.48-.66.11a2.75,2.75,0,0,1-.56.46l-.65.16a6.71,6.71,0,0,1-.58.48l-4.35,1.34a1.5,1.5,0,0,1-.56.44l-1.85.22a12.37,12.37,0,0,1,3.74-3.94,41.47,41.47,0,0,0,3.65-3.21,34.63,34.63,0,0,1,5-4.47,8,8,0,0,0,2.36-2.36,30.63,30.63,0,0,1,4.48-5,24.15,24.15,0,0,0,4-4.93q2.44-4.2,4.83-8.45a8.27,8.27,0,0,0,.67-1.69c.21-.77,0-1.07-1.24-1.69-.08-.84.53-1.28,1.07-1.69,2.93-2.25,4.63-4.86,2.69-8.62,1.68-.19,2.33-1.47,2.86-2.81.72-1.78,1.4-3.57,2-5.39,1.63-5,3.29-10,4.77-15,.51-1.73,1.4-3.27,1.9-5,0,4.29.34,8.61,0,12.86-.83,9.32-2,18.61-4.95,27.59-1.26,3.87-2.28,7.82-3.43,11.73a4.9,4.9,0,0,1-.54,1,4.26,4.26,0,0,0-2.53,1.54c-2.88,2.7-5.74,5.43-8.67,8.07-1.35,1.21-2.85,2.25-4.28,3.36A2.29,2.29,0,0,1,464.26,526.79Z"
    transform="translate(86.2 -30.8)" />
  <path class="cls-12"
    d="M114.22,396.24a17.85,17.85,0,0,1,4.17,4.78,14.61,14.61,0,0,1,1.91,10.55c-.79,4.56-3.69,7.59-7.88,9.32a20,20,0,0,1-9.17,1.75,35.16,35.16,0,0,1,2.65-8.33c2-4.94,4.22-9.84,6.32-14.76A7.34,7.34,0,0,1,114.22,396.24Z"
    transform="translate(86.2 -30.8)" />
  <path class="cls-13"
    d="M419.77,300.65a11.79,11.79,0,0,1-3.06-3.71,46,46,0,0,0-12.9-12.88q-3.4-2.32-6.95-4.44a19.52,19.52,0,0,0-9.83-2.93c-.92,0-1.84,0-2.76,0-5-.27-8.36,2.22-10.57,6.41a90.82,90.82,0,0,0-3.74,8.37,12.56,12.56,0,0,0-1.37,3.71c-.1,0-.2,0-.3,0-2.94-.54-2.9-.79-2.39-3.62a27.4,27.4,0,0,1,6.22-13.09c3.39-4,7.67-6.37,13.1-6a25.31,25.31,0,0,1,4.48.86A44.85,44.85,0,0,1,405,280.71a53.15,53.15,0,0,1,10,9.83A23.17,23.17,0,0,1,419.77,300.65Z"
    transform="translate(86.2 -30.8)" />
  <path class="cls-14"
    d="M490.32,401.2a15,15,0,0,1,7.16.93,13.36,13.36,0,0,1,2.68,1.39,13.26,13.26,0,0,0,9.14,2.66c1.11-.07,2.23,0,3.35,0a1.38,1.38,0,0,1,1.26.7c-.71.55-1.41,1.14-2.15,1.65-5.11,3.53-10.53,6.54-16.06,9.7-2.31-3.8-5.79-6.54-8.56-9.92-1.17-1.42-1.17-1.65-.2-3.21A14.12,14.12,0,0,1,490.32,401.2Z"
    transform="translate(86.2 -30.8)" />
  <path class="cls-15"
    d="M134.14,354.76A90.19,90.19,0,0,1,130,342.31c-.45-1.78-.46-3.62-.91-5.4a4.64,4.64,0,0,1,.3-2.4c.45-1.56,1-2,2.59-1.88a12.55,12.55,0,0,1,3.28.64A66.33,66.33,0,0,1,147,339c1.07.67,1.11,1,.27,1.86-2.58,2.74-5.19,5.46-7.77,8.19C137.76,350.87,136,352.72,134.14,354.76Z"
    transform="translate(86.2 -30.8)" />
  <path class="cls-16"
    d="M106.32,504.92a49.66,49.66,0,0,1-10,8.14,3.76,3.76,0,0,1-1.14.31,32.18,32.18,0,0,1-1.71-10.12c0-5.87,0-11.75.08-17.62a9.13,9.13,0,0,1,.35-3.6c.16.58.14,1.4.53,1.7,1.73,1.33,2.31,3.32,3.13,5.16,2.21,4.92,4.16,10,7.7,14.15A11,11,0,0,1,106.32,504.92Z"
    transform="translate(86.2 -30.8)" />
  <path class="cls-17"
    d="M168.06,642a65.37,65.37,0,0,1,7.74,4.61,85.13,85.13,0,0,0,7.66,4.09c-.39.88-1.12,1.27-1.64,1.82a15.46,15.46,0,0,1-1.6,1.42c-1.74,1.41-3.48,2.82-5.25,4.2a39.18,39.18,0,0,1-7.41,4.25.71.71,0,0,1-1-.68c0-1.43,0-2.86.08-4.28C166.76,652.36,167.62,647.34,168.06,642Z"
    transform="translate(86.2 -30.8)" />
  <path class="cls-18"
    d="M257.74,287.11c-.27,0-.57-.08-.86-.14s-.42-.42-.42-.71a2.25,2.25,0,0,1,.19-.88,46.64,46.64,0,0,1,5.94-10.95,15.36,15.36,0,0,1,1.41-1.6c.66-.65,1.3-.61,1.78.12,2.15,3.33,4.47,6.55,6.06,10.21a8,8,0,0,1,.49,1.43.6.6,0,0,1-.42.71,4.34,4.34,0,0,1-1.18.24A91,91,0,0,0,259,287C258.59,287.08,258.18,287.08,257.74,287.11Z"
    transform="translate(86.2 -30.8)" />
  <path class="cls-19"
    d="M342.46,664.47a67,67,0,0,1-2,15.24c-.17.74-.68.93-1.32.54a4.72,4.72,0,0,1-.75-.51c-.37-.34-.73-.71-1.08-1.07q-3.84-3.92-7.66-7.85a7.72,7.72,0,0,1-1-1.16c-.48-.72-1.49-1.39-.93-2.33.44-.75,1.49-.37,2.27-.42,3.16-.2,6.17-1.14,9.26-1.7C340.26,665,341.23,664.76,342.46,664.47Z"
    transform="translate(86.2 -30.8)" />
  <path class="cls-20"
    d="M68.28,415.31c-.38,2.3-.88,4.58-1.1,6.9a20.54,20.54,0,0,0,.19,6.68c.38,1.68.55,3.41.93,5.08a13.1,13.1,0,0,0,4.12,7.32c1,.86,1.89,1.86,2.84,2.78a3,3,0,0,1,1,1.82l-.89-.33-.27-.16-.91-.31-.34-.25-.9-.4-.25-.23c-3.48-1.57-5.39-4.62-7-7.81a31.3,31.3,0,0,1-2.84-17.27,3.56,3.56,0,0,1,.33-.85c2.29-.91,1.75-3.2,2.4-4.91.56-1.45-.21-3.54,2-4.19-.07,1.27.66,2.46.15,3.83C67.58,413.63,68.1,414.53,68.28,415.31Z"
    transform="translate(86.2 -30.8)" />
  <path class="cls-21"
    d="M67.66,409.18a7.09,7.09,0,0,0-1.19,3.94,15.56,15.56,0,0,1-1.94,6c-.18.36-.47.8-.85.58s-.24-.71-.35-1.09c0-.09,0-.19-.08-.29.08-.8.15-1.61.23-2.42.39-.51,0-1.21.44-1.71l.2-1.42a7.73,7.73,0,0,0,.31-1.07c2-8.8,5.67-16.69,12.53-22.82a1.65,1.65,0,0,1,0,2.23c-1,1.61-2.08,3.23-3.17,4.82a39.3,39.3,0,0,0-5.54,11.43c-.55.5-.06,1.34-.59,1.85Z"
    transform="translate(86.2 -30.8)" />
  <path class="cls-22"
    d="M464.85,361.08a10.87,10.87,0,0,1,1.52.17,1.83,1.83,0,0,1,1.54,1.67,6.62,6.62,0,0,1-.21,3c-.33.86-.65,1.72-1,2.57-1.16,3-1.1,2.94-3.24.46-1.6-1.86-3.19-3.71-4.62-5.71-.46-.65-.26-1.14.56-1.28C461.23,361.68,463,361,464.85,361.08Z"
    transform="translate(86.2 -30.8)" />
  <path class="cls-20" d="M63.92,414.15a1.59,1.59,0,0,1-.44,1.71A1.82,1.82,0,0,1,63.92,414.15Z"
    transform="translate(86.2 -30.8)" />
  <path class="cls-10" d="M518.14,470.48A1.1,1.1,0,0,1,517,470,1.15,1.15,0,0,1,518.14,470.48Z"
    transform="translate(86.2 -30.8)" />
  <path class="cls-10"
    d="M521.89,471.68a1.15,1.15,0,0,1-1.22-.46l1.19-.09,0-.05c.2.12.27.24.22.38S522,471.68,521.89,471.68Z"
    transform="translate(86.2 -30.8)" />
  <path class="cls-20" d="M64.43,411.66a.83.83,0,0,1-.31,1.07A.89.89,0,0,1,64.43,411.66Z"
    transform="translate(86.2 -30.8)" />
  <path class="cls-8" d="M73.89,444.84a.3.3,0,0,1,.35.25A.26.26,0,0,1,73.89,444.84Z"
    transform="translate(86.2 -30.8)" />
  <path class="cls-10" d="M519.56,471a.67.67,0,0,1-.72-.36A.6.6,0,0,1,519.56,471Z" transform="translate(86.2 -30.8)" />
  <path class="cls-8" d="M75.14,445.4a.22.22,0,0,1,.27.16l-.18,0Z" transform="translate(86.2 -30.8)" />
  <path class="cls-14" d="M514.56,406.52a.39.39,0,0,1,.44-.37C515,406.42,514.84,406.56,514.56,406.52Z"
    transform="translate(86.2 -30.8)" />
  <path class="cls-13" d="M420,301.82a2.39,2.39,0,0,1-.2-.43c0-.06.08-.15.13-.22C420,301.38,420,301.6,420,301.82Z"
    transform="translate(86.2 -30.8)" />
  <path class="cls-10" d="M516.39,469.83l-.62-.36A.56.56,0,0,1,516.39,469.83Z" transform="translate(86.2 -30.8)" />
  <path class="cls-8" d="M72.74,444.21c.16,0,.24.08.25.23l-.19,0Z" transform="translate(86.2 -30.8)" />
  <path class="cls-23"
    d="M40.56,338.09a18.1,18.1,0,0,1-1.64-7.1c-1.07-13.16,3.09-24.42,13-33.2a35.27,35.27,0,0,1,26.81-9c10.94.78,19.64,5.82,26.45,14.17A37.88,37.88,0,0,1,113,321.31c1.33,8.26-.25,16-3.9,23.45a10.24,10.24,0,0,1-.7,1.36,5.58,5.58,0,0,0-.84,4.67c.59,1.76-.81,2.36-1.87,3-20.3,13.14-49,7.66-63.21-12C41.66,340.64,41.36,339.25,40.56,338.09Z"
    transform="translate(86.2 -30.8)" />
  <path class="cls-24"
    d="M40.56,338.09c.17.1.41.16.5.32a43.15,43.15,0,0,0,7.61,9.09,43.34,43.34,0,0,0,14,9A58,58,0,0,0,70.2,359a34.75,34.75,0,0,0,8.73,1.09c.81,0,1.63,0,2.45,0a42.61,42.61,0,0,0,19.37-4.62,38.38,38.38,0,0,0,5.65-3,2.63,2.63,0,0,0,1.18-1.67c1.1,3.58,2.19,7.17,3.26,10.66-.57.77-1.21.47-1.76.36-2.79-.6-5.61-1.11-8.34-1.91a8.47,8.47,0,0,0-7,.8,36.12,36.12,0,0,1-40.23-3.15,38.6,38.6,0,0,1-7.27-7.4,40.61,40.61,0,0,1-5.15-9.69A5.73,5.73,0,0,1,40.56,338.09Z"
    transform="translate(86.2 -30.8)" />
  <path class="cls-25"
    d="M430.52,539.17a21.9,21.9,0,0,1-8.52,8.92c-3.21,1.8-6.45,3.51-9.75,5.12-4.75,2.33-9.51,4.67-14.33,6.83s-9.74,4.6-14.75,6.61c-3.39,1.36-6.66,3.08-10.11,4.33s-7.08,2.62-10.7,3.65c-5.08,1.44-10.24,2.6-15.35,3.92-4.22,1.1-8.47,2.07-12.77,2.83a12.4,12.4,0,0,1-1.83.1,14.13,14.13,0,0,0-4.23.46,10.32,10.32,0,0,1-2.74.16c-2.74.1-5.47-.11-8.22.5-1.85.42-3.86.09-5.81.12a17.41,17.41,0,0,0-5.46.48,7.82,7.82,0,0,1-2.43.12q-25.29,0-50.57,0c-2.46,0-4.82-.66-7.25-.86s-4.62-.6-6.92-1c-3.88-.7-7.84-.91-11.67-2a59.7,59.7,0,0,0-7.74-1.6c-5.22-.8-10.4-1.75-15.58-2.74a63.15,63.15,0,0,1-7.91-2.24c-3.29-1.09-6.59-2.12-9.83-3.32s-6.4-2.65-9.64-3.86c-5.39-2-10.18-5.13-15.11-8-6.18-3.58-11.87-7.9-17.76-11.9a58.16,58.16,0,0,1-9.16-7.59c-3.33-3.46-7-6.64-10.11-10.26-3.47-4-7.56-7.46-10.6-11.82-2.48-3.56-5.25-7-6.73-11.16a9.37,9.37,0,0,0,1.27-.85c3.13-2.75,7-3.45,10.92-4.29,4.49-1,9.09-1.17,13.56-2.21a6.15,6.15,0,0,1,1.22-.11c6.52-.2,13-.48,19.57-.59,5.71-.09,11.4.75,17.12.61a17.64,17.64,0,0,1,3,.49c3.71.61,7.47.93,11.16,1.72,2.07.45,4.25.32,6.36.76,5.18,1.08,10.38,2,15.58,3,4.8.88,9.63,1.65,14.42,2.6a107.09,107.09,0,0,1,13.06,3.06c2.31.76,4.77,1,7.11,1.7,4.27,1.33,8.64,2.29,12.94,3.52,4.68,1.34,9.51,2.2,14.27,3.27,4.07.92,8.14,1.82,12.2,2.78,2.67.63,5.32,1.37,8,2s5.14,1.24,7.72,1.81a19.49,19.49,0,0,0,4.8.84,2.1,2.1,0,0,1,.91.1c2,.88,4.16.92,6.21,1.43,3.46.87,7,1.21,10.4,2.34,2.52.85,5.11,1.32,7.65,2A181.14,181.14,0,0,0,345.11,535c3.11.49,6.16,1.44,9.27,1.89,4.83.71,9.57,2,14.46,2.31,2.23.16,4.44.59,6.65.9a11.44,11.44,0,0,0,1.52.18c3.48,0,6.88.76,10.32,1.08.82.07,1.63.13,2.45.14,4.9,0,9.8,0,14.7.08a85.12,85.12,0,0,0,11.29-.67c.56-.4,1.31,0,1.87-.44l4.27-.15c1-.56,2.11.06,3.09-.46l1.84-.11c.52-.52,1.32-.07,1.86-.53Z"
    transform="translate(86.2 -30.8)" />
  <path class="cls-26"
    d="M231.66,448.11a45.23,45.23,0,0,1,7.1-22.29,36.93,36.93,0,0,1,15.82-14c6.78-3.12,13.45-2.95,19.74,1.34,3.79,2.58,6,6.39,7.26,10.67a33.05,33.05,0,0,1-.32,19.59c-2.78,9.12-7.71,16.82-15.49,22.52-5,3.67-10.55,5.71-16.84,5.27a16.34,16.34,0,0,1-11.49-5.63,23,23,0,0,1-5.51-13C231.77,451.26,231.76,449.93,231.66,448.11Z"
    transform="translate(86.2 -30.8)" />
  <path class="cls-26"
    d="M154.71,462.51c-.14-6.1,1.31-11.94,3.21-17.66a111.88,111.88,0,0,1,8.26-18.72,18.45,18.45,0,0,1,1.42-2.34c1.68-2.2,3.93-2.13,5.53.16.93,1.34,1.7,2.79,2.68,4.09a36.36,36.36,0,0,0,18.1,13,45.52,45.52,0,0,0,14.39,2.44c1,0,2,0,3.06.12a3.62,3.62,0,0,1,2.76,1.72,2.45,2.45,0,0,1,.36,2.32,12.32,12.32,0,0,1-1,2.21,124.15,124.15,0,0,1-17.37,22.84,45.68,45.68,0,0,1-16.32,11.05A18.16,18.16,0,0,1,159,477.46a21.81,21.81,0,0,1-4.32-12.2C154.66,464.35,154.71,463.43,154.71,462.51Z"
    transform="translate(86.2 -30.8)" />
  <path class="cls-5"
    d="M334.86,461.36c-.15-.26-.41-.5-.44-.78-.26-2.22,0-4.48-.62-6.69a5.48,5.48,0,0,1,.19-1.81,18.22,18.22,0,0,0,.25-2.42c-.08-4,.86-7.88,1.61-11.77.13-.7.19-1.41.35-2.1a3,3,0,0,1,1.11-2.1,8.17,8.17,0,0,0,.69-.63l-.06.06c2.21-3.43,5.8-5.31,8.89-7.72,5.39-4.2,11.24-7.62,18-9.08a5.29,5.29,0,0,1,3.29-.1,24.39,24.39,0,0,0,6.36,3.47c8,3.31,13.67,9,16.54,17.23a50.55,50.55,0,0,1,3.19,16.63c-.67,5.29-2.4,10.3-4.17,15.28-.29.82-.56,2.15-2.07,1.53-1-1.59-.25-3.18,0-4.75.4-2.41,1-4.78.59-7.26-.35-2.07-1.48-3-3.61-2.74a11,11,0,0,0-1.5.28c-12,3.42-24,2.26-35.91-.34a55.47,55.47,0,0,0-5.68-1.15c-3.38-.4-4.81.64-5.71,4C335.91,459.43,335.83,460.6,334.86,461.36Z"
    transform="translate(86.2 -30.8)" />
  <path class="cls-27"
    d="M130.19,396.57a39.81,39.81,0,0,1,13-27.4,27.56,27.56,0,0,1,13.73-7c4.59-.78,12.68,1.21,16.48,7.3a25,25,0,0,1,3.71,14.9c-.62,11.31-5.53,20.62-14,27.93-4.65,4-10.13,6.48-16.49,6.28A15.28,15.28,0,0,1,134.48,412C131.31,407.73,130.19,402.8,130.19,396.57Z"
    transform="translate(86.2 -30.8)" />
  <path class="cls-28"
    d="M334.86,461.36a51.12,51.12,0,0,1,.83-5.1c.49-2,2.28-2.5,4-2.87a7.19,7.19,0,0,1,2.73.09c4,.8,8,1.64,11.9,2.55a11.93,11.93,0,0,0,2.71.36,10.46,10.46,0,0,1,3.33.37,7.78,7.78,0,0,0,2.42.23c3.47,0,6.94,0,10.42,0,2.87,0,5.59-.93,8.36-1.54,1.58-.35,3.1-1,4.78-.92s2.36.37,2.77,1.85a10.73,10.73,0,0,1,.55,4.76c-.4,2.3-.73,4.61-1.28,6.88a11.93,11.93,0,0,0,0,2.74c.88,1.55-.09,2.77-.79,4-3.89,6.61-9.93,9.83-17.33,10.63-9.49,1-18.17-1.62-26.41-6.15a30.71,30.71,0,0,1-6.75-5.68,4.15,4.15,0,0,1-.81-2.26,18.85,18.85,0,0,0-.82-4.78A31.7,31.7,0,0,1,334.86,461.36Z"
    transform="translate(86.2 -30.8)" />
  <path class="cls-29"
    d="M337.05,473.53c.28.1.65.11.84.3a33,33,0,0,0,10.71,6.92c6.81,3,13.86,4.77,21.38,3.91a24.33,24.33,0,0,0,11.36-4.17,17.54,17.54,0,0,0,7-9.72,2.07,2.07,0,0,0,.38-.47,93.17,93.17,0,0,0,4.87-16.94,69.5,69.5,0,0,0-1.42-14.88c-2-8.89-5.76-16.33-15-19.83-3-1.14-6.28-.8-9.24-2-4.38.17-8.26,2-12.11,3.81a53.58,53.58,0,0,0-8.95,5.81c-3,2.25-6,4.56-9,6.85a12.62,12.62,0,0,1,.15-2.14,6.82,6.82,0,0,1,.88-2.57c2.83-3.72,5.46-7.63,9-10.74a16.41,16.41,0,0,1,3.57-2.34c4.51-2.27,9.39-3.33,14.3-4.22a33.42,33.42,0,0,1,10.66-.17,22.52,22.52,0,0,1,12.13,5.32,34.49,34.49,0,0,1,7.79,9.76,13.77,13.77,0,0,1,1.4,3.71c.86,4.4,1.84,8.79,2.45,13.23a38.44,38.44,0,0,1-.22,12.2,91.79,91.79,0,0,1-1.83,9.6,59.83,59.83,0,0,1-4.93,12.16c-4.58,8.26-11.44,13.28-21,14.54a36.38,36.38,0,0,1-11.56-.34,28.67,28.67,0,0,1-13.6-6.61l-3-2.61A35.14,35.14,0,0,1,337.05,473.53Z"
    transform="translate(86.2 -30.8)" />
  <path class="cls-30"
    d="M267.22,478.4a21.85,21.85,0,0,1,14.14,5.71c2.71,2.42,5,5.11,5.93,8.73,2.06,8.25-1.53,14.05-8.82,16.77a34.5,34.5,0,0,1-4.74,1.16,12.57,12.57,0,0,1-5.45-.42c-3-.69-6-1.14-8.58-3a48.68,48.68,0,0,1-4.74-3.86,15.47,15.47,0,0,1-4.06-6.73c-.09-.29-.14-.59-.25-.88-2.44-6.47,2.18-14.06,8.16-16A21.63,21.63,0,0,1,267.22,478.4Z"
    transform="translate(86.2 -30.8)" />
  <path class="cls-31"
    d="M319.49,351.27a61.64,61.64,0,0,0-14.05,4c-2.47.95-4.88,2.06-7.34,3a19.89,19.89,0,0,1-2.92.85c-.95.23-2.2.82-2.73-.21-.41-.79.68-1.57,1.33-2.2a7.73,7.73,0,0,1,1.17-1,126,126,0,0,1,11.12-7,49,49,0,0,1,6.4-2.89,13.58,13.58,0,0,1,9.26-.33,7.14,7.14,0,0,1,3.54,2.8,2.48,2.48,0,0,1,.43,1.44,31.75,31.75,0,0,1-.1,4.58,55.4,55.4,0,0,1-2.47,10.38,28.63,28.63,0,0,1-3.89,7.25c-1.58,2.14-3.31,4.15-4.08,6.77a.57.57,0,0,1-.76.29.58.58,0,0,1-.22-.5c.21-1.41.39-2.83.71-4.22,1.2-5.26,2.47-10.51,3.66-15.77.4-1.79.65-3.61.93-5.42A13.64,13.64,0,0,0,319.49,351.27Z"
    transform="translate(86.2 -30.8)" />
  <path class="cls-32"
    d="M404.18,518.07a72.43,72.43,0,0,1-10.09-.53c-.26,0-.42-.11-.36-.38a.8.8,0,0,1,.25-.49,24.57,24.57,0,0,1,5.74-2.06c5-1.29,10.12-2.33,15.06-4a16.88,16.88,0,0,0,4.4-2.07,1.12,1.12,0,0,0,.3-1.81,18.7,18.7,0,0,0-3.34-3.13c-2.46-1.83-4.9-3.67-7.39-5.45a61.54,61.54,0,0,1-7-6.43,2.48,2.48,0,0,1-.56-1,.5.5,0,0,1,.45-.64,7.62,7.62,0,0,1,2.09.35,65.72,65.72,0,0,1,17.73,9.48c1.22.95,2.26,2.07,3.39,3.09,2.68,2.39,2.29,6.21,1.12,8.46-1,1.89-2.85,2.9-4.73,3.7a37.86,37.86,0,0,1-7.06,2A73.3,73.3,0,0,1,404.18,518.07Z"
    transform="translate(86.2 -30.8)" />
  <path class="cls-31"
    d="M454.67,408.19c5.21.36,10.21.65,14.82,2.88,2,1,4.07,1.91,5.56,3.68a9.29,9.29,0,0,1,2.15,3.66,3.72,3.72,0,0,1-1.1,3.85c-5.47,5.28-12.11,8.59-19.07,11.3a20.67,20.67,0,0,1-7.21,1.19c-.3,0-.63-.1-.58-.49a.69.69,0,0,1,.33-.45,27.11,27.11,0,0,1,2.45-1.27,28.44,28.44,0,0,0,6.72-4.18q5.13-4.14,10.21-8.3A6,6,0,0,0,470,419a.88.88,0,0,0-.21-1.34,10.71,10.71,0,0,0-2.18-1.06c-4.26-1.38-8.54-2.69-12.9-3.77a36.28,36.28,0,0,1-4.06-1.32,5.65,5.65,0,0,1-1.53-1,1,1,0,0,1-.28-1.13,1,1,0,0,1,.88-.74Z"
    transform="translate(86.2 -30.8)" />
  <path class="cls-33"
    d="M393.86,372.87a37.1,37.1,0,0,1,8.77.71,11.88,11.88,0,0,1,6.37,4,4.39,4.39,0,0,1,1.08,3.09,11.48,11.48,0,0,1-1.72,6.1,21.62,21.62,0,0,1-2.17,3,98.42,98.42,0,0,1-14.12,12.62,5.82,5.82,0,0,1-2.4,1.28.71.71,0,0,1-.55-.16.56.56,0,0,1,0-.52,42.22,42.22,0,0,1,2.86-4.34c2.6-3.14,4.93-6.49,7.73-9.49a34.17,34.17,0,0,0,3.2-4.47,6.19,6.19,0,0,0,.74-1.66,2.27,2.27,0,0,0-1.27-3,14.74,14.74,0,0,0-4-1.38,88.1,88.1,0,0,0-9.71-1.17c-4-.4-7.93-.71-11.85-1.42-.27-.05-.59-.05-.68-.44s.24-.52.49-.62a34.07,34.07,0,0,1,5.35-1.26C385.54,372.77,389.21,372.85,393.86,372.87Z"
    transform="translate(86.2 -30.8)" />
  <path class="cls-34"
    d="M477.72,488.32l.89,1.18a3.48,3.48,0,0,1,.12,4.66,14.89,14.89,0,0,1-3.61,3.56c-.41.28-.78.6-1.16.91l-.57.23a6.65,6.65,0,0,0-.63.39l-.61.22-.63.38-.6.2a2,2,0,0,1-.72.36c-3.37.77-6.73,1.59-10.11,2.31a25.51,25.51,0,0,1-7,.77,3,3,0,0,1-1.47-.31c-.63-.37-.81-1.44-.2-1.79a19.85,19.85,0,0,1,3-1.41c4.32-1.52,8.61-3.11,12.81-4.94a11.8,11.8,0,0,0,3.69-2.11.71.71,0,0,0,.1-1.06,9.93,9.93,0,0,0-1.06-1.09,48.17,48.17,0,0,0-7.41-5.36c-1.75-1.05-3.48-2.12-5.22-3.18a11.43,11.43,0,0,1-3.23-2.77,1.26,1.26,0,0,1-.34-1.11c.13-.51.59-.51,1-.56a9.09,9.09,0,0,1,3.61.44A48.6,48.6,0,0,1,477.72,488.32Z"
    transform="translate(86.2 -30.8)" />
  <path class="cls-35"
    d="M346,332.72c.81-2.39,1.48-4.17,2-6a48.67,48.67,0,0,0,2.32-11.63,23.79,23.79,0,0,0-.13-3,1.2,1.2,0,0,0-1.22-1.14,16.41,16.41,0,0,0-5.75.46,92.76,92.76,0,0,1-13.06,3.07c-.9.12-1.81.2-2.72.26a.57.57,0,0,1-.42-.3.68.68,0,0,1,.06-.56c1.81-2.09,3.67-4.13,6.34-5.13,3.23-1.21,6.48-2.42,9.77-3.48a17,17,0,0,1,7.86-.15,20.32,20.32,0,0,1,3.78,1.15,3.56,3.56,0,0,1,2.56,4.25c-.79,4.3-1.45,8.64-3.34,12.64-.61,1.29-1.31,2.53-1.94,3.81C350.91,329.4,349,331.12,346,332.72Z"
    transform="translate(86.2 -30.8)" />
  <path class="cls-4" d="M425,539.89c-.93.85-2,.46-3.09.46C422.84,539.54,423.94,539.85,425,539.89Z"
    transform="translate(86.2 -30.8)" />
  <path class="cls-4" d="M428.7,539.25c-.49.63-1.18.56-1.86.53A1.71,1.71,0,0,1,428.7,539.25Z"
    transform="translate(86.2 -30.8)" />
  <path class="cls-4" d="M417.64,540.5c-.51.62-1.19.52-1.87.44A1.83,1.83,0,0,1,417.64,540.5Z"
    transform="translate(86.2 -30.8)" />
  <path class="cls-11" d="M472.76,499.25a.53.53,0,0,1,.63-.39Z" transform="translate(86.2 -30.8)" />
  <path class="cls-11" d="M471.52,499.85a.52.52,0,0,1,.63-.38A.6.6,0,0,1,471.52,499.85Z"
    transform="translate(86.2 -30.8)" />
  <path class="cls-11" d="M470.2,500.41a.58.58,0,0,1,.72-.36A.65.65,0,0,1,470.2,500.41Z"
    transform="translate(86.2 -30.8)" />
  <path class="cls-29" d="M338,433.06l-.69.63C337.46,433.4,337.58,433.06,338,433.06Z"
    transform="translate(86.2 -30.8)" />
  <path class="cls-36"
    d="M248.65,586.34c.66.06.71.63.8,1a47.43,47.43,0,0,1,.59,21.2,37.88,37.88,0,0,1-2.15,7.29,4.68,4.68,0,0,1-3,2.75,8.77,8.77,0,0,1-8.15-.92,26.37,26.37,0,0,1-5.91-5.24c-2.74-3.3-5.41-6.63-7.14-10.61a9.14,9.14,0,0,1-.47-1.12c-.34-1.19-1.35-2.27-.63-3.64,1.3.3,2,1.38,2.74,2.31,1.47,1.86,3.54,3.06,5.1,4.81,3.07,3.42,6.68,6.28,9.93,9.52.77.77,1.26.65,1.85-.42a31,31,0,0,0,3.21-9.5c.92-5,1.79-10,2.7-15C248.23,588,248.45,587.17,248.65,586.34Z"
    transform="translate(86.2 -30.8)" />
  <path class="cls-37"
    d="M359.92,594.46c1.9.31,3.29,1.09,4.83,1s2.84-.32,4.27-.35c3.87-.08,7.75-.09,11.62-.11.92,0,1.84.06,2.76,0,1.54,0,1.74-.32,1.49-1.83a46.88,46.88,0,0,0-5.47-14.51,14.2,14.2,0,0,0-3.31-4c-.37-.32-.85-.53-1-1.25a15.68,15.68,0,0,1,5.44,1.87,14.1,14.1,0,0,1,5.17,5.09,64.26,64.26,0,0,1,4.62,10,19.91,19.91,0,0,1,.67,2.66c.63,2.7-2,6.82-4.89,7.12-1.11.11-2.22.32-3.33.38a67.22,67.22,0,0,1-12.18-.95,48.71,48.71,0,0,1-4.79-.91C363.28,598.11,362.06,597.21,359.92,594.46Z"
    transform="translate(86.2 -30.8)" />
  <path class="cls-3" d="M464.26,526.79l.55-.48Z" transform="translate(86.2 -30.8)" />
  <path class="cls-3" d="M463,527.43l.59-.48Z" transform="translate(86.2 -30.8)" />
  <path class="cls-3" d="M455.68,531.12l.61-.48Z" transform="translate(86.2 -30.8)" />
  <path class="cls-3" d="M454.46,531.69l.56-.46Z" transform="translate(86.2 -30.8)" />
  <path class="cls-3" d="M453.23,532.33l.58-.48Z" transform="translate(86.2 -30.8)" />
  <path class="cls-3" d="M448.32,534.11l.56-.44Z" transform="translate(86.2 -30.8)" />
  <path class="cls-10"
    d="M523.58,471.77a3.27,3.27,0,0,1,.55.2c.23.15.52.4.33.66s-.51.09-.7-.15a1.34,1.34,0,0,1-.13-.27c-.16-.08-.22-.17-.19-.27S523.53,471.77,523.58,471.77Z"
    transform="translate(86.2 -30.8)" />
  <path class="cls-2" d="M521.89,471.68l0-.6a1.46,1.46,0,0,1,1.24.67.39.39,0,0,1-.59.08Z"
    transform="translate(86.2 -30.8)" />
  <path class="cls-10" d="M522.49,471.83a.65.65,0,0,1,.59-.08l0-.06a.55.55,0,0,1,.19.55A.78.78,0,0,1,522.49,471.83Z"
    transform="translate(86.2 -30.8)" />
  <path class="cls-2" d="M523.24,472.24a1.8,1.8,0,0,0-.19-.55.66.66,0,0,0,.53.08.52.52,0,0,0,0,.44l-.2,0Z"
    transform="translate(86.2 -30.8)" />
  <path class="cls-20" d="M67.66,409.17c0-.68-.1-1.39.59-1.85C68.27,408,68.37,408.72,67.66,409.17Z"
    transform="translate(86.2 -30.8)" />
  <path class="cls-38"
    d="M75.83,316c.74-.56,1.43-1.15,2.18-1.66A8.9,8.9,0,0,1,82,312.77c3.29-.36,6.11.49,8.06,3.28s2.79,6.1,1.1,9.51a12.68,12.68,0,0,1-2.23,3.28c-3.71,3.79-7.45,7.56-11.15,11.36a2.62,2.62,0,0,1-2.43,1,2.81,2.81,0,0,1-1.52-1q-2.16-2.18-4.3-4.36c-2.08-2.11-4.14-4.23-6.22-6.34a14,14,0,0,1-3.18-4.81c-1.78-4.67,1.31-10.22,5-11.46a9.62,9.62,0,0,1,9,1.48c.33.23.58.57.9.82A7.73,7.73,0,0,0,75.83,316Z"
    transform="translate(86.2 -30.8)" />
  <path class="cls-39"
    d="M297.43,557.75c3.57-.86,6.82-1.52,10.23-1a102.84,102.84,0,0,0,14,.56c3.19,0,4-1.59,3-4.31a35.87,35.87,0,0,0-3.22-6.55q-3.14-5.07-6.25-10.14a4.77,4.77,0,0,1-.45-1.12c0-.07.24-.3.39-.33a1,1,0,0,1,.59.13,18.32,18.32,0,0,1,4.37,2.76A39.53,39.53,0,0,1,330.4,552a10.58,10.58,0,0,1,1.13,6.22,4.05,4.05,0,0,1-2.37,3.31,16.08,16.08,0,0,1-5.83,1.63,26,26,0,0,1-10.52-1.33,58.36,58.36,0,0,0-13-3.07,9.41,9.41,0,0,1-1.49-.32C298.1,558.36,298,558.18,297.43,557.75Z"
    transform="translate(86.2 -30.8)" />
  <path class="cls-23"
    d="M255.78,442.59a15.27,15.27,0,0,1,6.94-12.95c5-3.37,11-2.15,12.37,5.23a13.26,13.26,0,0,1-.93,7.19c-1.45,3.85-3.84,7-7.74,8.65-4.91,2.11-9.73,0-10.63-6.29A14,14,0,0,1,255.78,442.59Z"
    transform="translate(86.2 -30.8)" />
  <path class="cls-40"
    d="M247.88,445.11a16.41,16.41,0,0,1-2.36,9.14,7,7,0,0,1-2,2.29,2.62,2.62,0,0,1-3.59-.31c-1.74-1.86-2-4.23-1.78-6.57a25.23,25.23,0,0,1,1.92-7.65,9,9,0,0,1,2.33-3.17,4.54,4.54,0,0,1,.48-.39,2.72,2.72,0,0,1,4,.87,6.92,6.92,0,0,1,1,3.47C247.87,443.61,247.88,444.42,247.88,445.11Z"
    transform="translate(86.2 -30.8)" />
  <path class="cls-41"
    d="M193.79,464.83a53.52,53.52,0,0,1-4.5,4.64,32,32,0,0,1-7.55,5.68,21.49,21.49,0,0,1-6,2.22,11.42,11.42,0,0,1-12.44-6.19,25.88,25.88,0,0,1-1.66-5.23,2.33,2.33,0,0,1,1-2.67,28.45,28.45,0,0,1,10.37-5A20.14,20.14,0,0,1,188.53,461,21.8,21.8,0,0,1,193.79,464.83Z"
    transform="translate(86.2 -30.8)" />
  <path class="cls-42"
    d="M368,416.65c5.64-.66,10.61,1.13,15.21,4.19,3.24,2.16,5.25,5.34,6.92,8.73a38,38,0,0,1,3.7,15,46.52,46.52,0,0,1-.22,8.83c-.62-.81-.41-1.75-.42-2.65,0-2.43.06-4.82-1-7.16-.81-1.71-.95-3.72-1.51-5.57A24.83,24.83,0,0,0,385,428c-3.43-3.62-7.34-6.77-12.32-8.13A8,8,0,0,1,368,416.65Z"
    transform="translate(86.2 -30.8)" />
  <path class="cls-43"
    d="M384.85,449.75c-.4.88-1.14.87-1.82.95a139.72,139.72,0,0,1-22.59.63c-3-.16-6.12-.32-9-1.63a4.22,4.22,0,0,1-.57-.21.71.71,0,0,1-.29-.45c0-.24.14-.36.37-.38,1.32-.06,2.65-.2,4-.17q13,.31,26,.71A11.67,11.67,0,0,1,384.85,449.75Z"
    transform="translate(86.2 -30.8)" />
  <path class="cls-44"
    d="M349.47,439.73c.18-.25.3-.57.53-.69,3.39-1.82,6.69-3.83,10.6-4.44a42.55,42.55,0,0,1,10.93-.16c.73.08,1.67.14,2,1.11.19.65-.58,1.12-2.1,1.17A82,82,0,0,0,356,438.63c-1.38.32-2.72.82-4.1,1.13A3.35,3.35,0,0,1,349.47,439.73Z"
    transform="translate(86.2 -30.8)" />
  <path class="cls-23"
    d="M152.21,392.25a15.2,15.2,0,0,1,5.64-11.38,9,9,0,0,1,5-2,6.07,6.07,0,0,1,6.38,3.72,10.21,10.21,0,0,1,.72,6c-.86,5.13-3.43,9-8.31,11.27a6.48,6.48,0,0,1-8.65-3.38A8.73,8.73,0,0,1,152.21,392.25Z"
    transform="translate(86.2 -30.8)" />
  <path class="cls-45"
    d="M145.45,394c-.44,3-.88,6.07-2.56,8.71a9.37,9.37,0,0,1-2.11,2.2,2.11,2.11,0,0,1-3.38-.63,6.63,6.63,0,0,1-1-2.54c-.44-4.26,0-8.34,2.73-11.91.83-1.1,1.78-2.24,3.19-2s2.14,1.75,2.52,3.17C145.11,392,145.26,393,145.45,394Z"
    transform="translate(86.2 -30.8)" />
  <path class="cls-46"
    d="M374.58,468c-2.22-.24-4.43-.53-6.66-.71-4.57-.35-9.09-1.08-13.59-1.84a15.38,15.38,0,0,1-7.22-3.09c-.23-.18-.54-.45-.31-.75a.91.91,0,0,1,.74-.28c1.11.13,2.21.32,3.31.51a79.37,79.37,0,0,0,9.73.75,33.72,33.72,0,0,1,14.51,4.24c.34.18.79.42.56.9-.08.17-.5.19-.76.26A1.06,1.06,0,0,1,374.58,468Z"
    transform="translate(86.2 -30.8)" />
</svg>