<svg width="69" height="69" viewBox="0 0 69 69" fill="none" xmlns="http://www.w3.org/2000/svg">
  <g clip-path="url(#clip0_150_770)" transform="rotate(-35 33 33)">
    <path
      d="M47.2526 48.6656C46.313 48.9347 45.0817 49.1067 43.158 48.9929C43.1653 48.7299 43.1888 48.4422 43.2394 48.1393C43.4971 46.5951 44.2966 45.3785 45.6838 44.4197C46.8666 43.6022 47.1631 41.9803 46.3452 40.7978C45.5277 39.6149 43.906 39.3188 42.7232 40.1363C40.0944 41.9533 38.4807 44.5302 38.0567 47.5887C38.0509 47.6308 38.0458 47.6723 38.0405 47.7141C36.6712 47.1018 35.2348 46.2316 33.7668 45.0209C34.9688 43.8532 36.0336 42.5933 37.0642 41.3738C38.9294 39.1669 40.691 37.0822 43.1169 35.5071C44.1852 34.8134 45.4696 34.0929 46.8051 33.398C48.3354 35.544 51.2326 38.8606 55.0371 39.8066C56.4326 40.1535 57.8449 39.3036 58.1917 37.9081C58.5388 36.5126 57.6886 35.1003 56.2933 34.7535C54.5004 34.3076 52.7788 32.5994 51.5822 31.0837C53.9514 30.0036 55.761 29.2618 55.7994 29.2461C57.1305 28.7026 57.769 27.1829 57.2256 25.8518C56.6819 24.52 55.1624 23.882 53.8312 24.4254C53.4783 24.5695 45.1329 27.9898 40.2814 31.14C37.2106 33.1341 35.0201 35.7259 33.0874 38.0129C29.9965 41.6703 27.5744 44.5362 22.4667 44.7847C24.2548 42.5627 26.3447 39.4675 28.0224 35.5664C28.6504 34.106 29.2627 32.5979 29.9109 31.0013C31.3435 27.4722 32.8782 23.692 34.5821 20.5436C36.9631 21.878 41.1686 22.9409 47.4428 20.0801C48.7511 19.4837 49.328 17.9394 48.7316 16.6312C48.1346 15.3225 46.5909 14.746 45.2826 15.3424C41.2637 17.1749 38.7814 16.7671 37.4639 16.1794C38.1071 15.4284 38.7736 14.8028 39.4662 14.338C40.6602 13.5368 40.9812 11.9206 40.1773 10.7255C39.3762 9.53158 37.7588 9.21321 36.5648 10.0144C32.051 13.0433 29.0273 19.4797 26.261 26.1677C24.6636 23.7226 23.0858 20.4173 23.7496 17.8965C24.1167 16.5026 23.2812 15.0747 21.8842 14.713C20.4758 14.3485 19.042 15.2645 18.6873 16.6751C17.8865 19.8595 18.6761 23.5375 21.0348 27.6092C21.1293 27.7723 21.2243 27.9323 21.3198 28.0899C22.301 29.7089 23.3151 31.0235 23.958 31.8037C23.7174 32.384 23.4787 32.9527 23.2391 33.5094C20.1229 40.7552 15.3006 44.8394 15.2577 44.8754C14.4831 45.5155 14.1462 46.5442 14.3918 47.5185C14.4563 47.7736 14.5574 48.0131 14.6896 48.2312C15.0622 48.8458 15.68 49.2902 16.4072 49.4352C18.0054 49.754 19.4722 49.9278 20.8258 49.98C21.0572 50.7663 21.4547 51.8996 22.0808 53.0634C22.1948 53.2753 22.3108 53.4781 22.4288 53.6729C24.4838 57.0637 27.1177 57.9163 29.013 58.018C30.4488 58.0951 31.6752 56.9935 31.7522 55.5577C31.8293 54.1219 30.7277 52.8956 29.2918 52.8186C27.7215 52.7343 26.7051 50.8734 26.159 49.4679C27.38 49.158 28.4793 48.7245 29.4823 48.2001C35.0394 53.222 40.4787 54.2631 44.1611 54.2165C45.8996 54.1945 47.4026 53.9387 48.5951 53.6315C50.2047 53.2169 50.9972 51.4002 50.2159 49.9332C49.6481 48.8671 48.4137 48.3331 47.2526 48.6656Z"
      fill="#F15A24" />
    <path
      d="M13.8379 48.7476C13.6523 48.4414 13.5139 48.1099 13.4261 47.7622C13.0883 46.4223 13.5583 44.988 14.6232 44.1079C14.6633 44.0739 19.3298 40.0787 22.3242 33.1162C22.477 32.7606 22.6377 32.3816 22.8105 31.9685C22.072 31.0367 21.0934 29.6972 20.173 28.1089C17.68 23.8055 16.8552 19.8771 17.7213 16.4326C17.9609 15.4798 18.5836 14.6455 19.4297 14.1433C20.2578 13.652 21.2179 13.512 22.1336 13.7491C23.0674 13.9907 23.8532 14.5846 24.3375 15.4143C24.825 16.2464 24.9582 17.2181 24.7125 18.1506C24.2506 19.9045 25.1408 22.1806 26.1041 23.9643C28.6557 17.9682 31.5985 12.1477 36.0096 9.18757C37.6578 8.08176 39.8982 8.52281 41.0041 10.1708C41.54 10.9693 41.7336 11.9261 41.5486 12.869C41.3632 13.8132 40.8208 14.6288 40.021 15.1655C39.8124 15.3054 39.6016 15.4661 39.3894 15.6467C40.6137 15.7616 42.4065 15.5596 44.8692 14.4366C46.6746 13.6134 48.8135 14.4115 49.6375 16.2184C50.461 18.0242 49.6617 20.1634 47.8558 20.9869C41.95 23.6797 37.7163 23.0773 35.0082 21.8709C33.5097 24.784 32.1512 28.1305 30.8335 31.3764C30.182 32.9809 29.5686 34.492 28.9371 35.9605C27.8059 38.5908 26.3953 41.0989 24.7305 43.4428C27.9142 42.591 29.8374 40.3157 32.326 37.371C34.3038 35.0308 36.5447 32.3793 39.7387 30.3053C44.6701 27.1033 53.0981 23.6493 53.4546 23.504C55.2921 22.7539 57.397 23.638 58.1475 25.4762C58.8975 27.3136 58.0129 29.4187 56.1756 30.1689C56.1147 30.1939 54.9033 30.6915 53.1989 31.449C54.3703 32.7203 55.5298 33.538 56.5334 33.7877C57.4627 34.0187 58.247 34.5964 58.7432 35.415C58.7451 35.4183 58.7471 35.4216 58.749 35.4247C59.2448 36.2486 59.3902 37.2162 59.158 38.1492C58.9262 39.0821 58.3448 39.869 57.5209 40.3648C56.6972 40.8605 55.7296 41.0057 54.7966 40.7738C51.1791 39.8745 48.3634 37.0979 46.5127 34.6794C45.3971 35.2782 44.4396 35.8364 43.6591 36.3432C41.3569 37.838 39.6414 39.8677 37.8253 42.0167C37.0111 42.98 36.1757 43.9687 35.2621 44.9263C35.9314 45.4204 36.6128 45.8579 37.3015 46.2355C37.9861 43.4263 39.6472 41.0524 42.1568 39.3177C42.9476 38.771 43.9041 38.5651 44.85 38.7377C45.7958 38.9105 46.6178 39.4413 47.1645 40.2322C47.7109 41.0213 47.9174 41.9792 47.7446 42.9254C47.5718 43.8713 47.041 44.6933 46.25 45.2399C45.1639 45.9906 44.5308 46.8836 44.2744 48.0334C45.3325 48.0356 46.2082 47.9293 46.9783 47.7088C48.5776 47.2509 50.3082 47.9885 51.095 49.4657C51.6132 50.4385 51.6555 51.5752 51.2116 52.5842C50.769 53.5896 49.9058 54.3232 48.8435 54.5968C47.3339 54.9857 45.7628 55.1932 44.1737 55.2132C40.4973 55.2597 34.9811 54.2716 29.3246 49.3904C28.7446 49.6624 28.1466 49.9007 27.535 50.1035C28.0967 51.1766 28.7341 51.7919 29.3451 51.8246C30.3053 51.8761 31.1878 52.2985 31.8303 53.0138C32.4728 53.7291 32.7984 54.6519 32.7466 55.6119C32.6951 56.5718 32.2728 57.4543 31.5575 58.0968C30.8422 58.7394 29.9195 59.0649 28.9594 59.0133C26.8568 58.9006 23.8692 57.9722 21.5769 54.1899C21.4493 53.9795 21.3236 53.7594 21.2035 53.5361C20.6983 52.597 20.3343 51.6777 20.0843 50.9387C18.8501 50.8561 17.551 50.6797 16.2122 50.4127C15.2252 50.2152 14.3597 49.6086 13.8379 48.7476ZM24.8096 31.2877C24.9725 31.5564 25.0003 31.8897 24.8779 32.1852C24.6122 32.8264 24.3754 33.3885 24.154 33.9031C20.947 41.3598 15.9468 45.5977 15.8966 45.6396C15.4166 46.0364 15.2067 46.677 15.3576 47.2752C15.3969 47.4306 15.4586 47.5787 15.5413 47.7151C15.7744 48.0997 16.161 48.3707 16.6017 48.4585C18.0947 48.7562 19.5286 48.9334 20.8642 48.9848C21.2914 49.0012 21.6604 49.2882 21.7813 49.6988C21.9904 50.4095 22.3643 51.4883 22.9578 52.5916C23.0619 52.785 23.1705 52.9752 23.2806 53.1567C25.1219 56.195 27.4431 56.9365 29.0663 57.0235C29.495 57.0464 29.907 56.9011 30.2264 56.6141C30.5458 56.3273 30.7344 55.9331 30.7573 55.5043C30.7803 55.0755 30.635 54.6635 30.3482 54.3442C30.0612 54.0248 29.6669 53.8361 29.2381 53.8131C27.595 53.7251 26.2092 52.3474 25.2303 49.8286C25.127 49.5627 25.1426 49.2653 25.2733 49.0117C25.404 48.758 25.6372 48.5726 25.9136 48.5024C26.9973 48.2274 28.0426 47.8289 29.0204 47.3175C29.3899 47.1244 29.8405 47.1818 30.1497 47.4612C35.5042 52.3 40.7176 53.264 44.1481 53.2206C45.578 53.2025 46.9904 53.0164 48.3462 52.6671C48.8133 52.5468 49.1929 52.2238 49.3878 51.781C49.5843 51.3345 49.5655 50.8317 49.3363 50.4016C48.9885 49.7484 48.228 49.4223 47.5263 49.6232C46.2901 49.977 44.8833 50.0928 43.0987 49.9872C42.5616 49.9554 42.1468 49.5029 42.1618 48.9652C42.1711 48.6285 42.203 48.2956 42.2565 47.9754C42.5566 46.177 43.519 44.705 45.1169 43.6004C45.4703 43.3562 45.7073 42.9892 45.7845 42.5667C45.8616 42.1444 45.769 41.7157 45.5256 41.3645C45.2813 41.011 44.9142 40.774 44.4918 40.6969C44.0695 40.6198 43.6423 40.7117 43.2891 40.956C40.8958 42.6102 39.4274 44.9512 39.0428 47.7258C39.0391 47.7532 39.0357 47.7806 39.0321 47.8078L39.0281 47.8398C38.9884 48.1526 38.8028 48.4281 38.5279 48.5825C38.253 48.737 37.9214 48.7522 37.6335 48.6234C36.0907 47.9336 34.5763 46.9802 33.1326 45.7894C32.9142 45.6092 32.7826 45.3446 32.7712 45.0614C32.7597 44.7784 32.8692 44.5039 33.0724 44.3066C34.2394 43.1728 35.2885 41.9314 36.303 40.7309C38.2175 38.4657 40.0252 36.3269 42.5741 34.6717C43.5781 34.0199 44.8468 33.294 46.3448 32.5146C46.7853 32.2853 47.3273 32.4155 47.6155 32.8197C48.9479 34.6881 51.7148 37.9543 55.277 38.84C55.6938 38.9436 56.1258 38.8787 56.4937 38.6574C56.8615 38.436 57.1212 38.0846 57.2248 37.668C57.3284 37.2512 57.2636 36.8192 57.0423 36.4513C57.0414 36.4499 57.0405 36.4484 57.0396 36.447C56.818 36.0813 56.4678 35.8234 56.0528 35.7201C53.9145 35.1885 52.0162 33.241 50.8002 31.7011C50.6104 31.461 50.5417 31.1471 50.6138 30.8497C50.6856 30.5523 50.8903 30.3045 51.1687 30.1775C53.5156 29.1075 55.3436 28.3564 55.4203 28.325C56.2431 27.989 56.6382 27.0489 56.3032 26.2284C55.968 25.4073 55.028 25.0128 54.2074 25.3477C53.8581 25.4902 45.5989 28.8747 40.8235 31.9755C37.8762 33.8894 35.7362 36.4215 33.8481 38.6557C30.7393 42.3341 28.0549 45.5103 22.5149 45.7798C22.1232 45.7989 21.7555 45.5845 21.5789 45.2368C21.4011 44.8873 21.4448 44.466 21.6906 44.1604C23.9019 41.4126 25.7243 38.3889 27.1073 35.1732C27.7307 33.7235 28.3405 32.2214 28.9861 30.6314C30.4565 27.0091 31.9751 23.2682 33.706 20.0698C33.833 19.8351 34.0486 19.6614 34.3049 19.5873C34.561 19.513 34.8362 19.5447 35.069 19.675C37.2918 20.9208 41.1713 21.8452 47.0295 19.1741C47.8359 18.8063 48.1929 17.851 47.8252 17.0446C47.4571 16.238 46.502 15.8812 45.6956 16.2488C41.3954 18.2097 38.6248 17.788 37.0578 17.0892C36.7706 16.9611 36.561 16.7052 36.4919 16.3983C36.4228 16.0916 36.5027 15.7704 36.7071 15.5316C37.4314 14.6861 38.1729 14.0063 38.9111 13.5111C39.2686 13.2711 39.5111 12.9068 39.5939 12.485C39.6764 12.0646 39.589 11.6366 39.3506 11.2814C38.8561 10.5447 37.8554 10.3476 37.1193 10.8414C32.7239 13.7911 29.6846 20.4957 27.1809 26.5483C27.0397 26.8897 26.7212 27.1248 26.3532 27.1592C25.9855 27.1937 25.6286 27.0216 25.4266 26.7122C23.7914 24.2092 22.0062 20.604 22.786 17.6428C22.8957 17.2264 22.8362 16.7924 22.6185 16.4209C22.403 16.0508 22.0512 15.7852 21.6342 15.6773C21.2361 15.5742 20.8142 15.6378 20.4461 15.8562C20.0531 16.0893 19.7639 16.4763 19.6529 16.918C18.9175 19.842 19.6724 23.271 21.8963 27.1099C22.9155 28.8683 24.0152 30.3072 24.7262 31.1702C24.7573 31.2078 24.785 31.2471 24.8096 31.2877Z"
      fill="#AA2D00" />
    <path
      d="M26.7735 29.7062C26.6078 29.4328 26.5765 29.0848 26.7202 28.7726L28.5089 24.8877C28.7388 24.388 29.3304 24.1694 29.8302 24.3995C30.3297 24.6296 30.5485 25.2211 30.3184 25.7208L28.5297 29.6057C28.2998 30.1054 27.7082 30.324 27.2085 30.0939C27.021 30.0075 26.8731 29.8704 26.7735 29.7062Z"
      fill="#AA2D00" />
    <path
      d="M29.9804 22.7408C29.8147 22.4675 29.7834 22.1195 29.9271 21.8073L30.4527 20.6657C30.6827 20.1659 31.2743 19.9474 31.774 20.1774C32.2735 20.4075 32.4923 20.999 32.2622 21.4987L31.7366 22.6404C31.5067 23.1401 30.915 23.3587 30.4153 23.1286C30.2278 23.0423 30.0799 22.9051 29.9804 22.7408Z"
      fill="#AA2D00" />
  </g>
  <defs>
    <clipPath id="clip0_150_770">
      <rect width="50" height="50" fill="white" transform="translate(42.7601) rotate(58.7819)" />
    </clipPath>
  </defs>
</svg>