<svg width="68" height="68" viewBox="0 0 68 68" fill="none" xmlns="http://www.w3.org/2000/svg">
  <g transform="rotate(-35 33 33)">
    <path
      d="M26.7373 14.5832L26.2616 14.5258L26.7373 14.5832C27.2985 9.92873 30.8282 7.17599 33.6455 6.46777C34.3449 6.29195 34.9788 6.24825 35.4953 6.32052C36.0136 6.39307 36.3796 6.57638 36.6013 6.82207C37.0056 7.26994 37.1584 8.24832 36.0234 10.0588C32.2968 16.0028 31.152 20.7721 30.9523 24.0813C30.8525 25.7343 30.9888 27.0177 31.1534 27.8955C31.2357 28.3342 31.3249 28.6713 31.3951 28.9023C31.3984 28.9131 31.4016 28.9236 31.4048 28.934L29.7802 30.4268C29.677 30.2464 29.5518 30.0192 29.4114 29.7478C29.0075 28.967 28.4787 27.8219 27.9856 26.3748C26.9991 23.4799 26.1583 19.3855 26.7373 14.5832Z"
      fill="#4200DD" stroke="#774BDC" />
    <path
      d="M49.6462 21.001L49.6462 21.001C41.951 24.6284 35.8537 29.2263 29.048 39.4425L29.048 39.4426C25.0252 45.4819 19.603 49.6037 15.9266 51.9251C15.6142 51.3617 15.4666 51.0956 15.319 50.8294C15.0956 50.4266 14.8722 50.0238 14.0774 48.5913C20.8879 41.7923 23.6885 36.9542 26.1158 32.2363C26.392 31.6994 26.6632 31.1646 26.9346 30.6293C29.0665 26.4245 31.2193 22.1787 36.0346 16.5035C38.9124 13.1121 41.6437 11.5763 43.9703 11.1695C46.2893 10.764 48.2641 11.4686 49.678 12.6759C51.1024 13.8922 51.9435 15.606 51.9983 17.1921C52.052 18.7512 51.3527 20.1966 49.6462 21.001Z"
      fill="#4200DD" stroke="#774BDC" />
    <path
      d="M49.6462 21.0009L49.6462 21.001C41.951 24.6284 35.8537 29.2263 29.048 39.4425L29.048 39.4425C25.0252 45.4819 19.603 49.6037 15.9266 51.9251L15.4981 51.1524C18.1836 49.4099 22.3228 46.2483 24.8777 41.966C28.7976 35.3958 37.7603 25.9429 44.598 21.3814C48.4426 18.8167 49.4018 15.2471 49.4592 12.4966C50.8511 13.5898 51.7453 15.1582 51.954 16.6798C52.1952 18.4379 51.5285 20.1138 49.6462 21.0009Z"
      fill="#4200DD" stroke="#774BDC" />
    <path
      d="M33.6167 49.7962C28.6746 49.7268 24.0935 48.5618 21.5776 46.9422L22.9646 45.5516C22.9872 45.5406 23.0176 45.5265 23.0562 45.5098C23.1693 45.4607 23.3527 45.3888 23.6162 45.3081C24.1431 45.1468 24.9909 44.9499 26.238 44.8296C29.8658 44.481 35.4578 43.4818 41.3787 40.6916C43.8524 39.5289 45.9831 38.9325 47.66 38.7744C49.3569 38.6144 50.5044 38.9094 51.1112 39.4146C51.4044 39.6588 51.5812 39.9581 51.6469 40.3117C51.7138 40.6726 51.6706 41.1228 51.4627 41.6638C51.0434 42.7554 49.986 44.13 48.1009 45.67C44.3928 48.6992 38.8777 49.87 33.6167 49.7962Z"
      fill="#4200DD" stroke="#774BDC" />
    <path
      d="M23.4773 45.1037C23.8277 45.0676 24.2936 45.0203 24.8872 44.9615C24.7517 45.1587 24.6471 45.3581 24.5751 45.5598C24.3668 46.1433 24.4479 46.7038 24.7602 47.1878C25.0579 47.6492 25.5472 48.0156 26.1218 48.3038C26.7024 48.5951 27.4084 48.8258 28.1893 48.9956C31.2907 49.67 35.8504 49.4399 39.2034 47.8284L39.2035 47.8283C42.008 46.4801 43.1915 44.8105 43.5034 43.2C43.7514 41.9197 43.4308 40.7602 43.0795 39.9572C45.1248 39.1554 46.8771 38.7784 48.2598 38.7329C49.7707 38.6831 50.7525 39.0293 51.2472 39.5396C51.7026 40.0093 51.8552 40.7409 51.4086 41.7974C50.9559 42.8681 49.9082 44.1935 48.1009 45.6699C44.3928 48.6992 38.8777 49.87 33.6168 49.7961C28.6341 49.7262 24.0184 48.5425 21.5161 46.9022L22.8446 45.17C22.9831 45.1552 23.1918 45.1332 23.4773 45.1037Z"
      fill="#4200DD" stroke="#774BDC" />
    <path
      d="M49.6215 27.1671C51.6883 26.4915 53.302 26.4493 54.422 26.7488C55.5388 27.0475 56.1305 27.6683 56.3003 28.3305C56.4716 28.9981 56.255 29.8657 55.4195 30.7361C54.5848 31.6056 53.1569 32.442 51.0294 32.9783L51.0293 32.9784C46.6609 34.0801 41.0445 35.2752 36.5153 36.1957C34.2518 36.6557 32.2618 37.0468 30.8376 37.3228C30.2333 37.4399 29.731 37.5363 29.3529 37.6085L29.7777 36.1263C35.0428 33.2736 43.6833 29.1091 49.6215 27.1671ZM49.6215 27.1671L49.4662 26.6919M49.6215 27.1671L49.4662 26.6919M49.4662 26.6919C57.9756 23.9101 59.9109 31.2549 51.1516 33.4632C43.4313 35.4103 31.8421 37.6439 29.1986 38.1469L29.3549 35.787C34.6104 32.9272 43.4155 28.6706 49.4662 26.6919Z"
      fill="#4200DD" stroke="#774BDC" />
    <path
      d="M41.0007 55.1029L41.0007 55.1029C41.6751 56.5053 41.6152 57.3918 41.3201 57.8285C41.0485 58.2305 40.3965 58.4905 39.2311 58.1861C36.9681 57.595 33.421 54.9784 29.9408 49.4009L30.0649 49.2767C31.254 49.3836 32.5483 49.3788 33.8483 49.2456C36.8814 50.3801 39.6459 52.2849 41.0007 55.1029Z"
      fill="#4200DD" stroke="#774BDC" />
    <path
      d="M23.4817 24.3871L23.4817 24.3871C22.7104 25.0451 21.861 25.677 20.9781 26.3339C20.3807 26.7784 19.7679 27.2343 19.1535 27.7175C17.6656 28.8876 16.2244 30.1791 15.2505 31.7054C14.2659 33.2484 13.7596 35.0306 14.1428 37.1476C14.5095 39.1735 15.6824 41.4593 17.9314 44.108L17.0658 45.4799C17.0111 45.4254 16.9526 45.3674 16.891 45.3064C16.8669 45.2827 16.8423 45.2583 16.8171 45.2334C16.4641 44.8846 15.9994 44.4253 15.4723 43.8683C14.3418 42.6736 12.9353 41.0405 11.7711 39.1329C10.6054 37.223 9.69861 35.0639 9.53478 32.8133C9.37203 30.5775 9.93952 28.2223 11.7726 25.8888C15.5108 21.1299 19.744 19.9349 22.3219 20.3594C23.6318 20.5751 24.4188 21.1804 24.6561 21.8319C24.8793 22.4442 24.6982 23.3493 23.4817 24.3871Z"
      fill="#4200DD" stroke="#774BDC" />
  </g>
</svg>